<mxfile host="65bd71144e" pages="3">
    <diagram id="LbyiiqKcff7rYcrrg-aS" name="Vue diagram">
        <mxGraphModel dx="2584" dy="952" grid="1" gridSize="10" guides="1" tooltips="1" connect="1" arrows="1" fold="1" page="1" pageScale="1" pageWidth="850" pageHeight="1100" math="0" shadow="0">
            <root>
                <mxCell id="0"/>
                <mxCell id="1" parent="0"/>
                <mxCell id="IKAJmKTSgz2SnLKFUgmy-34" style="edgeStyle=orthogonalEdgeStyle;html=1;exitX=0.5;exitY=1;exitDx=0;exitDy=0;entryX=0.5;entryY=0;entryDx=0;entryDy=0;endArrow=none;endFill=0;rounded=0;" parent="1" source="ObuQfwCCNbUYY3Va3A8u-1" target="IKAJmKTSgz2SnLKFUgmy-10" edge="1">
                    <mxGeometry relative="1" as="geometry"/>
                </mxCell>
                <mxCell id="IKAJmKTSgz2SnLKFUgmy-35" style="edgeStyle=orthogonalEdgeStyle;rounded=0;html=1;exitX=0.5;exitY=1;exitDx=0;exitDy=0;entryX=0.5;entryY=0;entryDx=0;entryDy=0;endArrow=none;endFill=0;" parent="1" source="ObuQfwCCNbUYY3Va3A8u-1" target="IKAJmKTSgz2SnLKFUgmy-2" edge="1">
                    <mxGeometry relative="1" as="geometry"/>
                </mxCell>
                <mxCell id="IKAJmKTSgz2SnLKFUgmy-36" style="edgeStyle=orthogonalEdgeStyle;rounded=0;html=1;exitX=0.5;exitY=1;exitDx=0;exitDy=0;entryX=0.5;entryY=0;entryDx=0;entryDy=0;endArrow=none;endFill=0;" parent="1" source="ObuQfwCCNbUYY3Va3A8u-1" target="IKAJmKTSgz2SnLKFUgmy-22" edge="1">
                    <mxGeometry relative="1" as="geometry"/>
                </mxCell>
                <mxCell id="IKAJmKTSgz2SnLKFUgmy-37" style="edgeStyle=orthogonalEdgeStyle;rounded=0;html=1;exitX=0.5;exitY=1;exitDx=0;exitDy=0;entryX=0.5;entryY=0;entryDx=0;entryDy=0;endArrow=none;endFill=0;" parent="1" source="ObuQfwCCNbUYY3Va3A8u-1" target="IKAJmKTSgz2SnLKFUgmy-18" edge="1">
                    <mxGeometry relative="1" as="geometry"/>
                </mxCell>
                <mxCell id="IKAJmKTSgz2SnLKFUgmy-38" style="edgeStyle=orthogonalEdgeStyle;rounded=0;html=1;exitX=0.5;exitY=1;exitDx=0;exitDy=0;entryX=0.5;entryY=0;entryDx=0;entryDy=0;endArrow=none;endFill=0;" parent="1" source="ObuQfwCCNbUYY3Va3A8u-1" target="fJ-Qevt4VeCcorlOKBM6-1" edge="1">
                    <mxGeometry relative="1" as="geometry"/>
                </mxCell>
                <mxCell id="IKAJmKTSgz2SnLKFUgmy-39" style="edgeStyle=orthogonalEdgeStyle;rounded=0;html=1;exitX=0.5;exitY=1;exitDx=0;exitDy=0;entryX=0.5;entryY=0;entryDx=0;entryDy=0;endArrow=none;endFill=0;" parent="1" source="ObuQfwCCNbUYY3Va3A8u-1" target="IKAJmKTSgz2SnLKFUgmy-26" edge="1">
                    <mxGeometry relative="1" as="geometry"/>
                </mxCell>
                <mxCell id="IKAJmKTSgz2SnLKFUgmy-43" style="edgeStyle=orthogonalEdgeStyle;rounded=0;html=1;exitX=0.5;exitY=1;exitDx=0;exitDy=0;entryX=0.5;entryY=0;entryDx=0;entryDy=0;endArrow=none;endFill=0;" parent="1" source="ObuQfwCCNbUYY3Va3A8u-1" target="IKAJmKTSgz2SnLKFUgmy-14" edge="1">
                    <mxGeometry relative="1" as="geometry"/>
                </mxCell>
                <mxCell id="ObuQfwCCNbUYY3Va3A8u-1" value="«page»&#10;Week" style="swimlane;fontStyle=1;align=center;verticalAlign=top;childLayout=stackLayout;horizontal=1;startSize=40;horizontalStack=0;resizeParent=1;resizeParentMax=0;resizeLast=0;collapsible=1;marginBottom=0;" parent="1" vertex="1">
                    <mxGeometry x="200" y="150" width="160" height="48" as="geometry"/>
                </mxCell>
                <mxCell id="ObuQfwCCNbUYY3Va3A8u-3" value="" style="line;strokeWidth=1;fillColor=none;align=left;verticalAlign=middle;spacingTop=-1;spacingLeft=3;spacingRight=3;rotatable=0;labelPosition=right;points=[];portConstraint=eastwest;strokeColor=inherit;" parent="ObuQfwCCNbUYY3Va3A8u-1" vertex="1">
                    <mxGeometry y="40" width="160" height="8" as="geometry"/>
                </mxCell>
                <mxCell id="IKAJmKTSgz2SnLKFUgmy-2" value="«component»&#10;Workers" style="swimlane;fontStyle=1;align=center;verticalAlign=top;childLayout=stackLayout;horizontal=1;startSize=40;horizontalStack=0;resizeParent=1;resizeParentMax=0;resizeLast=0;collapsible=1;marginBottom=0;" parent="1" vertex="1">
                    <mxGeometry x="-200" y="280" width="160" height="48" as="geometry"/>
                </mxCell>
                <mxCell id="IKAJmKTSgz2SnLKFUgmy-4" value="" style="line;strokeWidth=1;fillColor=none;align=left;verticalAlign=middle;spacingTop=-1;spacingLeft=3;spacingRight=3;rotatable=0;labelPosition=right;points=[];portConstraint=eastwest;strokeColor=inherit;" parent="IKAJmKTSgz2SnLKFUgmy-2" vertex="1">
                    <mxGeometry y="40" width="160" height="8" as="geometry"/>
                </mxCell>
                <mxCell id="IKAJmKTSgz2SnLKFUgmy-10" value="«component»&#10;Allocation" style="swimlane;fontStyle=1;align=center;verticalAlign=top;childLayout=stackLayout;horizontal=1;startSize=40;horizontalStack=0;resizeParent=1;resizeParentMax=0;resizeLast=0;collapsible=1;marginBottom=0;" parent="1" vertex="1">
                    <mxGeometry y="280" width="160" height="48" as="geometry"/>
                </mxCell>
                <mxCell id="IKAJmKTSgz2SnLKFUgmy-12" value="" style="line;strokeWidth=1;fillColor=none;align=left;verticalAlign=middle;spacingTop=-1;spacingLeft=3;spacingRight=3;rotatable=0;labelPosition=right;points=[];portConstraint=eastwest;strokeColor=inherit;" parent="IKAJmKTSgz2SnLKFUgmy-10" vertex="1">
                    <mxGeometry y="40" width="160" height="8" as="geometry"/>
                </mxCell>
                <mxCell id="fJ-Qevt4VeCcorlOKBM6-1" value="«component»&#10;Loan" style="swimlane;fontStyle=1;align=center;verticalAlign=top;childLayout=stackLayout;horizontal=1;startSize=40;horizontalStack=0;resizeParent=1;resizeParentMax=0;resizeLast=0;collapsible=1;marginBottom=0;" parent="1" vertex="1">
                    <mxGeometry x="600" y="280" width="160" height="48" as="geometry"/>
                </mxCell>
                <mxCell id="fJ-Qevt4VeCcorlOKBM6-3" value="" style="line;strokeWidth=1;fillColor=none;align=left;verticalAlign=middle;spacingTop=-1;spacingLeft=3;spacingRight=3;rotatable=0;labelPosition=right;points=[];portConstraint=eastwest;strokeColor=inherit;" parent="fJ-Qevt4VeCcorlOKBM6-1" vertex="1">
                    <mxGeometry y="40" width="160" height="8" as="geometry"/>
                </mxCell>
                <mxCell id="IKAJmKTSgz2SnLKFUgmy-14" value="«component»&#10;Equipment" style="swimlane;fontStyle=1;align=center;verticalAlign=top;childLayout=stackLayout;horizontal=1;startSize=40;horizontalStack=0;resizeParent=1;resizeParentMax=0;resizeLast=0;collapsible=1;marginBottom=0;" parent="1" vertex="1">
                    <mxGeometry x="200" y="280" width="160" height="48" as="geometry"/>
                </mxCell>
                <mxCell id="IKAJmKTSgz2SnLKFUgmy-16" value="" style="line;strokeWidth=1;fillColor=none;align=left;verticalAlign=middle;spacingTop=-1;spacingLeft=3;spacingRight=3;rotatable=0;labelPosition=right;points=[];portConstraint=eastwest;strokeColor=inherit;" parent="IKAJmKTSgz2SnLKFUgmy-14" vertex="1">
                    <mxGeometry y="40" width="160" height="8" as="geometry"/>
                </mxCell>
                <mxCell id="IKAJmKTSgz2SnLKFUgmy-18" value="«component»&#10;Bid" style="swimlane;fontStyle=1;align=center;verticalAlign=top;childLayout=stackLayout;horizontal=1;startSize=40;horizontalStack=0;resizeParent=1;resizeParentMax=0;resizeLast=0;collapsible=1;marginBottom=0;" parent="1" vertex="1">
                    <mxGeometry x="400" y="280" width="160" height="48" as="geometry"/>
                </mxCell>
                <mxCell id="IKAJmKTSgz2SnLKFUgmy-20" value="" style="line;strokeWidth=1;fillColor=none;align=left;verticalAlign=middle;spacingTop=-1;spacingLeft=3;spacingRight=3;rotatable=0;labelPosition=right;points=[];portConstraint=eastwest;strokeColor=inherit;" parent="IKAJmKTSgz2SnLKFUgmy-18" vertex="1">
                    <mxGeometry y="40" width="160" height="8" as="geometry"/>
                </mxCell>
                <mxCell id="IKAJmKTSgz2SnLKFUgmy-22" value="«component»&#10;NextWeek" style="swimlane;fontStyle=1;align=center;verticalAlign=top;childLayout=stackLayout;horizontal=1;startSize=40;horizontalStack=0;resizeParent=1;resizeParentMax=0;resizeLast=0;collapsible=1;marginBottom=0;" parent="1" vertex="1">
                    <mxGeometry x="-400" y="280" width="160" height="74" as="geometry"/>
                </mxCell>
                <mxCell id="IKAJmKTSgz2SnLKFUgmy-24" value="" style="line;strokeWidth=1;fillColor=none;align=left;verticalAlign=middle;spacingTop=-1;spacingLeft=3;spacingRight=3;rotatable=0;labelPosition=right;points=[];portConstraint=eastwest;strokeColor=inherit;" parent="IKAJmKTSgz2SnLKFUgmy-22" vertex="1">
                    <mxGeometry y="40" width="160" height="8" as="geometry"/>
                </mxCell>
                <mxCell id="IKAJmKTSgz2SnLKFUgmy-25" value="onClick(MouseEvent)" style="text;strokeColor=none;fillColor=none;align=left;verticalAlign=top;spacingLeft=4;spacingRight=4;overflow=hidden;rotatable=0;points=[[0,0.5],[1,0.5]];portConstraint=eastwest;" parent="IKAJmKTSgz2SnLKFUgmy-22" vertex="1">
                    <mxGeometry y="48" width="160" height="26" as="geometry"/>
                </mxCell>
                <mxCell id="IKAJmKTSgz2SnLKFUgmy-26" value="«component»&#10;Funds" style="swimlane;fontStyle=1;align=center;verticalAlign=top;childLayout=stackLayout;horizontal=1;startSize=40;horizontalStack=0;resizeParent=1;resizeParentMax=0;resizeLast=0;collapsible=1;marginBottom=0;" parent="1" vertex="1">
                    <mxGeometry x="800" y="280" width="160" height="48" as="geometry"/>
                </mxCell>
                <mxCell id="IKAJmKTSgz2SnLKFUgmy-28" value="" style="line;strokeWidth=1;fillColor=none;align=left;verticalAlign=middle;spacingTop=-1;spacingLeft=3;spacingRight=3;rotatable=0;labelPosition=right;points=[];portConstraint=eastwest;strokeColor=inherit;" parent="IKAJmKTSgz2SnLKFUgmy-26" vertex="1">
                    <mxGeometry y="40" width="160" height="8" as="geometry"/>
                </mxCell>
                <mxCell id="IKAJmKTSgz2SnLKFUgmy-42" value="" style="endArrow=none;dashed=1;html=1;rounded=0;" parent="1" edge="1">
                    <mxGeometry width="50" height="50" relative="1" as="geometry">
                        <mxPoint x="1080" y="880" as="sourcePoint"/>
                        <mxPoint x="1080" y="40" as="targetPoint"/>
                    </mxGeometry>
                </mxCell>
                <mxCell id="IKAJmKTSgz2SnLKFUgmy-45" value="Workers" style="swimlane;fontStyle=1;align=center;verticalAlign=top;childLayout=stackLayout;horizontal=1;startSize=26;horizontalStack=0;resizeParent=1;resizeParentMax=0;resizeLast=0;collapsible=1;marginBottom=0;" parent="1" vertex="1">
                    <mxGeometry x="1320" y="40" width="260" height="146" as="geometry"/>
                </mxCell>
                <mxCell id="IKAJmKTSgz2SnLKFUgmy-46" value="labour: number" style="text;strokeColor=none;fillColor=none;align=left;verticalAlign=top;spacingLeft=4;spacingRight=4;overflow=hidden;rotatable=0;points=[[0,0.5],[1,0.5]];portConstraint=eastwest;" parent="IKAJmKTSgz2SnLKFUgmy-45" vertex="1">
                    <mxGeometry y="26" width="260" height="26" as="geometry"/>
                </mxCell>
                <mxCell id="C1zAiaUE-qayzrO_iwcF-7" value="skilled: number" style="text;strokeColor=none;fillColor=none;align=left;verticalAlign=top;spacingLeft=4;spacingRight=4;overflow=hidden;rotatable=0;points=[[0,0.5],[1,0.5]];portConstraint=eastwest;" parent="IKAJmKTSgz2SnLKFUgmy-45" vertex="1">
                    <mxGeometry y="52" width="260" height="26" as="geometry"/>
                </mxCell>
                <mxCell id="C1zAiaUE-qayzrO_iwcF-9" value="electrician: number" style="text;strokeColor=none;fillColor=none;align=left;verticalAlign=top;spacingLeft=4;spacingRight=4;overflow=hidden;rotatable=0;points=[[0,0.5],[1,0.5]];portConstraint=eastwest;" parent="IKAJmKTSgz2SnLKFUgmy-45" vertex="1">
                    <mxGeometry y="78" width="260" height="26" as="geometry"/>
                </mxCell>
                <mxCell id="IKAJmKTSgz2SnLKFUgmy-47" value="" style="line;strokeWidth=1;fillColor=none;align=left;verticalAlign=middle;spacingTop=-1;spacingLeft=3;spacingRight=3;rotatable=0;labelPosition=right;points=[];portConstraint=eastwest;strokeColor=inherit;" parent="IKAJmKTSgz2SnLKFUgmy-45" vertex="1">
                    <mxGeometry y="104" width="260" height="8" as="geometry"/>
                </mxCell>
                <mxCell id="RgcTgYS2e9T_qnjGHquK-13" value="" style="line;strokeWidth=1;fillColor=none;align=left;verticalAlign=middle;spacingTop=-1;spacingLeft=3;spacingRight=3;rotatable=0;labelPosition=right;points=[];portConstraint=eastwest;strokeColor=inherit;" parent="IKAJmKTSgz2SnLKFUgmy-45" vertex="1">
                    <mxGeometry y="112" width="260" height="8" as="geometry"/>
                </mxCell>
                <mxCell id="C1zAiaUE-qayzrO_iwcF-12" value="change(key: WorkerType, difference: number)" style="text;strokeColor=none;fillColor=none;align=left;verticalAlign=top;spacingLeft=4;spacingRight=4;overflow=hidden;rotatable=0;points=[[0,0.5],[1,0.5]];portConstraint=eastwest;" parent="IKAJmKTSgz2SnLKFUgmy-45" vertex="1">
                    <mxGeometry y="120" width="260" height="26" as="geometry"/>
                </mxCell>
                <mxCell id="RgcTgYS2e9T_qnjGHquK-21" value="Finance" style="swimlane;fontStyle=1;align=center;verticalAlign=top;childLayout=stackLayout;horizontal=1;startSize=26;horizontalStack=0;resizeParent=1;resizeParentMax=0;resizeLast=0;collapsible=1;marginBottom=0;" parent="1" vertex="1">
                    <mxGeometry x="1320" y="410" width="170" height="250" as="geometry"/>
                </mxCell>
                <mxCell id="RgcTgYS2e9T_qnjGHquK-22" value="incoming: number" style="text;strokeColor=none;fillColor=none;align=left;verticalAlign=top;spacingLeft=4;spacingRight=4;overflow=hidden;rotatable=0;points=[[0,0.5],[1,0.5]];portConstraint=eastwest;" parent="RgcTgYS2e9T_qnjGHquK-21" vertex="1">
                    <mxGeometry y="26" width="170" height="26" as="geometry"/>
                </mxCell>
                <mxCell id="C1zAiaUE-qayzrO_iwcF-24" value="outgoing: number" style="text;strokeColor=none;fillColor=none;align=left;verticalAlign=top;spacingLeft=4;spacingRight=4;overflow=hidden;rotatable=0;points=[[0,0.5],[1,0.5]];portConstraint=eastwest;" parent="RgcTgYS2e9T_qnjGHquK-21" vertex="1">
                    <mxGeometry y="52" width="170" height="26" as="geometry"/>
                </mxCell>
                <mxCell id="C1zAiaUE-qayzrO_iwcF-23" value="loan: number" style="text;strokeColor=none;fillColor=none;align=left;verticalAlign=top;spacingLeft=4;spacingRight=4;overflow=hidden;rotatable=0;points=[[0,0.5],[1,0.5]];portConstraint=eastwest;" parent="RgcTgYS2e9T_qnjGHquK-21" vertex="1">
                    <mxGeometry y="78" width="170" height="26" as="geometry"/>
                </mxCell>
                <mxCell id="RgcTgYS2e9T_qnjGHquK-23" value="" style="line;strokeWidth=1;fillColor=none;align=left;verticalAlign=middle;spacingTop=-1;spacingLeft=3;spacingRight=3;rotatable=0;labelPosition=right;points=[];portConstraint=eastwest;strokeColor=inherit;" parent="RgcTgYS2e9T_qnjGHquK-21" vertex="1">
                    <mxGeometry y="104" width="170" height="8" as="geometry"/>
                </mxCell>
                <mxCell id="RgcTgYS2e9T_qnjGHquK-24" value="balance(): number" style="text;strokeColor=none;fillColor=none;align=left;verticalAlign=top;spacingLeft=4;spacingRight=4;overflow=hidden;rotatable=0;points=[[0,0.5],[1,0.5]];portConstraint=eastwest;" parent="RgcTgYS2e9T_qnjGHquK-21" vertex="1">
                    <mxGeometry y="112" width="170" height="26" as="geometry"/>
                </mxCell>
                <mxCell id="RgcTgYS2e9T_qnjGHquK-25" value="" style="line;strokeWidth=1;fillColor=none;align=left;verticalAlign=middle;spacingTop=-1;spacingLeft=3;spacingRight=3;rotatable=0;labelPosition=right;points=[];portConstraint=eastwest;strokeColor=inherit;" parent="RgcTgYS2e9T_qnjGHquK-21" vertex="1">
                    <mxGeometry y="138" width="170" height="8" as="geometry"/>
                </mxCell>
                <mxCell id="RgcTgYS2e9T_qnjGHquK-26" value="addIncoming(value: number)" style="text;strokeColor=none;fillColor=none;align=left;verticalAlign=top;spacingLeft=4;spacingRight=4;overflow=hidden;rotatable=0;points=[[0,0.5],[1,0.5]];portConstraint=eastwest;" parent="RgcTgYS2e9T_qnjGHquK-21" vertex="1">
                    <mxGeometry y="146" width="170" height="26" as="geometry"/>
                </mxCell>
                <mxCell id="C1zAiaUE-qayzrO_iwcF-25" value="addOutgoing(value: number)" style="text;strokeColor=none;fillColor=none;align=left;verticalAlign=top;spacingLeft=4;spacingRight=4;overflow=hidden;rotatable=0;points=[[0,0.5],[1,0.5]];portConstraint=eastwest;" parent="RgcTgYS2e9T_qnjGHquK-21" vertex="1">
                    <mxGeometry y="172" width="170" height="26" as="geometry"/>
                </mxCell>
                <mxCell id="C1zAiaUE-qayzrO_iwcF-26" value="takeLoan(value: number)" style="text;strokeColor=none;fillColor=none;align=left;verticalAlign=top;spacingLeft=4;spacingRight=4;overflow=hidden;rotatable=0;points=[[0,0.5],[1,0.5]];portConstraint=eastwest;" parent="RgcTgYS2e9T_qnjGHquK-21" vertex="1">
                    <mxGeometry y="198" width="170" height="26" as="geometry"/>
                </mxCell>
                <mxCell id="C1zAiaUE-qayzrO_iwcF-27" value="repayLoan(value: number)" style="text;strokeColor=none;fillColor=none;align=left;verticalAlign=top;spacingLeft=4;spacingRight=4;overflow=hidden;rotatable=0;points=[[0,0.5],[1,0.5]];portConstraint=eastwest;" parent="RgcTgYS2e9T_qnjGHquK-21" vertex="1">
                    <mxGeometry y="224" width="170" height="26" as="geometry"/>
                </mxCell>
                <mxCell id="RgcTgYS2e9T_qnjGHquK-27" value="Bid" style="swimlane;fontStyle=1;align=center;verticalAlign=top;childLayout=stackLayout;horizontal=1;startSize=26;horizontalStack=0;resizeParent=1;resizeParentMax=0;resizeLast=0;collapsible=1;marginBottom=0;" parent="1" vertex="1">
                    <mxGeometry x="1320" y="680" width="160" height="94" as="geometry"/>
                </mxCell>
                <mxCell id="RgcTgYS2e9T_qnjGHquK-28" value="cost: number" style="text;strokeColor=none;fillColor=none;align=left;verticalAlign=top;spacingLeft=4;spacingRight=4;overflow=hidden;rotatable=0;points=[[0,0.5],[1,0.5]];portConstraint=eastwest;" parent="RgcTgYS2e9T_qnjGHquK-27" vertex="1">
                    <mxGeometry y="26" width="160" height="26" as="geometry"/>
                </mxCell>
                <mxCell id="As9LgbY8hWjeQk43dG-T-1" value="time: number" style="text;strokeColor=none;fillColor=none;align=left;verticalAlign=top;spacingLeft=4;spacingRight=4;overflow=hidden;rotatable=0;points=[[0,0.5],[1,0.5]];portConstraint=eastwest;" parent="RgcTgYS2e9T_qnjGHquK-27" vertex="1">
                    <mxGeometry y="52" width="160" height="26" as="geometry"/>
                </mxCell>
                <mxCell id="RgcTgYS2e9T_qnjGHquK-29" value="" style="line;strokeWidth=1;fillColor=none;align=left;verticalAlign=middle;spacingTop=-1;spacingLeft=3;spacingRight=3;rotatable=0;labelPosition=right;points=[];portConstraint=eastwest;strokeColor=inherit;" parent="RgcTgYS2e9T_qnjGHquK-27" vertex="1">
                    <mxGeometry y="78" width="160" height="8" as="geometry"/>
                </mxCell>
                <mxCell id="RgcTgYS2e9T_qnjGHquK-31" value="" style="line;strokeWidth=1;fillColor=none;align=left;verticalAlign=middle;spacingTop=-1;spacingLeft=3;spacingRight=3;rotatable=0;labelPosition=right;points=[];portConstraint=eastwest;strokeColor=inherit;" parent="RgcTgYS2e9T_qnjGHquK-27" vertex="1">
                    <mxGeometry y="86" width="160" height="8" as="geometry"/>
                </mxCell>
                <mxCell id="RgcTgYS2e9T_qnjGHquK-33" value="Activities" style="swimlane;fontStyle=1;align=center;verticalAlign=top;childLayout=stackLayout;horizontal=1;startSize=26;horizontalStack=0;resizeParent=1;resizeParentMax=0;resizeLast=0;collapsible=1;marginBottom=0;" parent="1" vertex="1">
                    <mxGeometry x="1320" y="990" width="460" height="198" as="geometry"/>
                </mxCell>
                <mxCell id="RgcTgYS2e9T_qnjGHquK-34" value="activities: Activity[]" style="text;strokeColor=none;fillColor=none;align=left;verticalAlign=top;spacingLeft=4;spacingRight=4;overflow=hidden;rotatable=0;points=[[0,0.5],[1,0.5]];portConstraint=eastwest;" parent="RgcTgYS2e9T_qnjGHquK-33" vertex="1">
                    <mxGeometry y="26" width="460" height="26" as="geometry"/>
                </mxCell>
                <mxCell id="RgcTgYS2e9T_qnjGHquK-35" value="" style="line;strokeWidth=1;fillColor=none;align=left;verticalAlign=middle;spacingTop=-1;spacingLeft=3;spacingRight=3;rotatable=0;labelPosition=right;points=[];portConstraint=eastwest;strokeColor=inherit;" parent="RgcTgYS2e9T_qnjGHquK-33" vertex="1">
                    <mxGeometry y="52" width="460" height="8" as="geometry"/>
                </mxCell>
                <mxCell id="RgcTgYS2e9T_qnjGHquK-36" value="isActivityDone(label: string): boolean" style="text;strokeColor=none;fillColor=none;align=left;verticalAlign=top;spacingLeft=4;spacingRight=4;overflow=hidden;rotatable=0;points=[[0,0.5],[1,0.5]];portConstraint=eastwest;" parent="RgcTgYS2e9T_qnjGHquK-33" vertex="1">
                    <mxGeometry y="60" width="460" height="26" as="geometry"/>
                </mxCell>
                <mxCell id="8MIi-V0CIElsMQN61LRY-1" value="allActivitiesDone(): boolean" style="text;strokeColor=none;fillColor=none;align=left;verticalAlign=top;spacingLeft=4;spacingRight=4;overflow=hidden;rotatable=0;points=[[0,0.5],[1,0.5]];portConstraint=eastwest;" parent="RgcTgYS2e9T_qnjGHquK-33" vertex="1">
                    <mxGeometry y="86" width="460" height="26" as="geometry"/>
                </mxCell>
                <mxCell id="8MIi-V0CIElsMQN61LRY-2" value="requirementsMet(label: string): boolean" style="text;strokeColor=none;fillColor=none;align=left;verticalAlign=top;spacingLeft=4;spacingRight=4;overflow=hidden;rotatable=0;points=[[0,0.5],[1,0.5]];portConstraint=eastwest;" parent="RgcTgYS2e9T_qnjGHquK-33" vertex="1">
                    <mxGeometry y="112" width="460" height="26" as="geometry"/>
                </mxCell>
                <mxCell id="RgcTgYS2e9T_qnjGHquK-37" value="" style="line;strokeWidth=1;fillColor=none;align=left;verticalAlign=middle;spacingTop=-1;spacingLeft=3;spacingRight=3;rotatable=0;labelPosition=right;points=[];portConstraint=eastwest;strokeColor=inherit;" parent="RgcTgYS2e9T_qnjGHquK-33" vertex="1">
                    <mxGeometry y="138" width="460" height="8" as="geometry"/>
                </mxCell>
                <mxCell id="RgcTgYS2e9T_qnjGHquK-38" value="allocateWorkers(label: string, workers: Record&lt;WorkerType, number&gt;)" style="text;strokeColor=none;fillColor=none;align=left;verticalAlign=top;spacingLeft=4;spacingRight=4;overflow=hidden;rotatable=0;points=[[0,0.5],[1,0.5]];portConstraint=eastwest;" parent="RgcTgYS2e9T_qnjGHquK-33" vertex="1">
                    <mxGeometry y="146" width="460" height="26" as="geometry"/>
                </mxCell>
                <mxCell id="8MIi-V0CIElsMQN61LRY-3" value="progressActivities()" style="text;strokeColor=none;fillColor=none;align=left;verticalAlign=top;spacingLeft=4;spacingRight=4;overflow=hidden;rotatable=0;points=[[0,0.5],[1,0.5]];portConstraint=eastwest;" parent="RgcTgYS2e9T_qnjGHquK-33" vertex="1">
                    <mxGeometry y="172" width="460" height="26" as="geometry"/>
                </mxCell>
                <mxCell id="C1zAiaUE-qayzrO_iwcF-1" value="Week" style="swimlane;fontStyle=1;align=center;verticalAlign=top;childLayout=stackLayout;horizontal=1;startSize=26;horizontalStack=0;resizeParent=1;resizeParentMax=0;resizeLast=0;collapsible=1;marginBottom=0;" parent="1" vertex="1">
                    <mxGeometry x="1320" y="790" width="230" height="172" as="geometry"/>
                </mxCell>
                <mxCell id="C1zAiaUE-qayzrO_iwcF-2" value="week: number" style="text;strokeColor=none;fillColor=none;align=left;verticalAlign=top;spacingLeft=4;spacingRight=4;overflow=hidden;rotatable=0;points=[[0,0.5],[1,0.5]];portConstraint=eastwest;" parent="C1zAiaUE-qayzrO_iwcF-1" vertex="1">
                    <mxGeometry y="26" width="230" height="26" as="geometry"/>
                </mxCell>
                <mxCell id="YB6wrs3C5YlcXNREA4JL-1" value="weekListeners: Function[]" style="text;strokeColor=none;fillColor=none;align=left;verticalAlign=top;spacingLeft=4;spacingRight=4;overflow=hidden;rotatable=0;points=[[0,0.5],[1,0.5]];portConstraint=eastwest;" parent="C1zAiaUE-qayzrO_iwcF-1" vertex="1">
                    <mxGeometry y="52" width="230" height="26" as="geometry"/>
                </mxCell>
                <mxCell id="C1zAiaUE-qayzrO_iwcF-3" value="" style="line;strokeWidth=1;fillColor=none;align=left;verticalAlign=middle;spacingTop=-1;spacingLeft=3;spacingRight=3;rotatable=0;labelPosition=right;points=[];portConstraint=eastwest;strokeColor=inherit;" parent="C1zAiaUE-qayzrO_iwcF-1" vertex="1">
                    <mxGeometry y="78" width="230" height="8" as="geometry"/>
                </mxCell>
                <mxCell id="C1zAiaUE-qayzrO_iwcF-5" value="" style="line;strokeWidth=1;fillColor=none;align=left;verticalAlign=middle;spacingTop=-1;spacingLeft=3;spacingRight=3;rotatable=0;labelPosition=right;points=[];portConstraint=eastwest;strokeColor=inherit;" parent="C1zAiaUE-qayzrO_iwcF-1" vertex="1">
                    <mxGeometry y="86" width="230" height="8" as="geometry"/>
                </mxCell>
                <mxCell id="C1zAiaUE-qayzrO_iwcF-6" value="nextWeek()" style="text;strokeColor=none;fillColor=none;align=left;verticalAlign=top;spacingLeft=4;spacingRight=4;overflow=hidden;rotatable=0;points=[[0,0.5],[1,0.5]];portConstraint=eastwest;" parent="C1zAiaUE-qayzrO_iwcF-1" vertex="1">
                    <mxGeometry y="94" width="230" height="26" as="geometry"/>
                </mxCell>
                <mxCell id="YB6wrs3C5YlcXNREA4JL-2" value="addWeekListener(listener: Function)" style="text;strokeColor=none;fillColor=none;align=left;verticalAlign=top;spacingLeft=4;spacingRight=4;overflow=hidden;rotatable=0;points=[[0,0.5],[1,0.5]];portConstraint=eastwest;" parent="C1zAiaUE-qayzrO_iwcF-1" vertex="1">
                    <mxGeometry y="120" width="230" height="26" as="geometry"/>
                </mxCell>
                <mxCell id="YB6wrs3C5YlcXNREA4JL-3" value="removeWeekListener(listener: Function)" style="text;strokeColor=none;fillColor=none;align=left;verticalAlign=top;spacingLeft=4;spacingRight=4;overflow=hidden;rotatable=0;points=[[0,0.5],[1,0.5]];portConstraint=eastwest;" parent="C1zAiaUE-qayzrO_iwcF-1" vertex="1">
                    <mxGeometry y="146" width="230" height="26" as="geometry"/>
                </mxCell>
                <mxCell id="C1zAiaUE-qayzrO_iwcF-14" value="Equipment" style="swimlane;fontStyle=1;align=center;verticalAlign=top;childLayout=stackLayout;horizontal=1;startSize=26;horizontalStack=0;resizeParent=1;resizeParentMax=0;resizeLast=0;collapsible=1;marginBottom=0;" parent="1" vertex="1">
                    <mxGeometry x="1320" y="211" width="470" height="172" as="geometry"/>
                </mxCell>
                <mxCell id="C1zAiaUE-qayzrO_iwcF-15" value="steelwork: { status: EquipmentStatus, deliveryType: DeliveryType, activity: Activity }" style="text;strokeColor=none;fillColor=none;align=left;verticalAlign=top;spacingLeft=4;spacingRight=4;overflow=hidden;rotatable=0;points=[[0,0.5],[1,0.5]];portConstraint=eastwest;" parent="C1zAiaUE-qayzrO_iwcF-14" vertex="1">
                    <mxGeometry y="26" width="470" height="26" as="geometry"/>
                </mxCell>
                <mxCell id="C1zAiaUE-qayzrO_iwcF-16" value="Interior: { status: EquipmentStatus, deliveryType: DeliveryType, activity: Activity }" style="text;strokeColor=none;fillColor=none;align=left;verticalAlign=top;spacingLeft=4;spacingRight=4;overflow=hidden;rotatable=0;points=[[0,0.5],[1,0.5]];portConstraint=eastwest;" parent="C1zAiaUE-qayzrO_iwcF-14" vertex="1">
                    <mxGeometry y="52" width="470" height="26" as="geometry"/>
                </mxCell>
                <mxCell id="C1zAiaUE-qayzrO_iwcF-17" value="tbs: { status: EquipmentStatus, deliveryType: DeliveryType, activity: Activity }" style="text;strokeColor=none;fillColor=none;align=left;verticalAlign=top;spacingLeft=4;spacingRight=4;overflow=hidden;rotatable=0;points=[[0,0.5],[1,0.5]];portConstraint=eastwest;" parent="C1zAiaUE-qayzrO_iwcF-14" vertex="1">
                    <mxGeometry y="78" width="470" height="26" as="geometry"/>
                </mxCell>
                <mxCell id="C1zAiaUE-qayzrO_iwcF-18" value="" style="line;strokeWidth=1;fillColor=none;align=left;verticalAlign=middle;spacingTop=-1;spacingLeft=3;spacingRight=3;rotatable=0;labelPosition=right;points=[];portConstraint=eastwest;strokeColor=inherit;" parent="C1zAiaUE-qayzrO_iwcF-14" vertex="1">
                    <mxGeometry y="104" width="470" height="8" as="geometry"/>
                </mxCell>
                <mxCell id="C1zAiaUE-qayzrO_iwcF-19" value="" style="line;strokeWidth=1;fillColor=none;align=left;verticalAlign=middle;spacingTop=-1;spacingLeft=3;spacingRight=3;rotatable=0;labelPosition=right;points=[];portConstraint=eastwest;strokeColor=inherit;" parent="C1zAiaUE-qayzrO_iwcF-14" vertex="1">
                    <mxGeometry y="112" width="470" height="8" as="geometry"/>
                </mxCell>
                <mxCell id="C1zAiaUE-qayzrO_iwcF-20" value="order(key: EquipmentType, deliveryType: DeliveryType)" style="text;strokeColor=none;fillColor=none;align=left;verticalAlign=top;spacingLeft=4;spacingRight=4;overflow=hidden;rotatable=0;points=[[0,0.5],[1,0.5]];portConstraint=eastwest;" parent="C1zAiaUE-qayzrO_iwcF-14" vertex="1">
                    <mxGeometry y="120" width="470" height="26" as="geometry"/>
                </mxCell>
                <mxCell id="8MIi-V0CIElsMQN61LRY-4" value="finishDelivery(key: EquipmentType)" style="text;strokeColor=none;fillColor=none;align=left;verticalAlign=top;spacingLeft=4;spacingRight=4;overflow=hidden;rotatable=0;points=[[0,0.5],[1,0.5]];portConstraint=eastwest;" parent="C1zAiaUE-qayzrO_iwcF-14" vertex="1">
                    <mxGeometry y="146" width="470" height="26" as="geometry"/>
                </mxCell>
                <mxCell id="8MIi-V0CIElsMQN61LRY-5" value="&lt;span style=&quot;&quot;&gt;type WorkerType = 'labour' | 'skilled' | 'electrician'&lt;/span&gt;" style="shape=note;whiteSpace=wrap;html=1;backgroundOutline=1;darkOpacity=0.05;fontFamily=Lucida Console;align=left;" parent="1" vertex="1">
                    <mxGeometry x="2340" y="40" width="440" height="30" as="geometry"/>
                </mxCell>
                <mxCell id="8MIi-V0CIElsMQN61LRY-7" value="&lt;span style=&quot;&quot;&gt;type EquipmentStatus = 'unordered' | 'ordered' | 'delivered'&lt;/span&gt;" style="shape=note;whiteSpace=wrap;html=1;backgroundOutline=1;darkOpacity=0.05;fontFamily=Lucida Console;align=left;" parent="1" vertex="1">
                    <mxGeometry x="2340" y="141" width="480" height="30" as="geometry"/>
                </mxCell>
                <mxCell id="8MIi-V0CIElsMQN61LRY-8" value="&lt;span style=&quot;&quot;&gt;type DeliveryType = 'regular' | 'express'&lt;/span&gt;" style="shape=note;whiteSpace=wrap;html=1;backgroundOutline=1;darkOpacity=0.05;fontFamily=Lucida Console;align=left;" parent="1" vertex="1">
                    <mxGeometry x="2340" y="189" width="340" height="30" as="geometry"/>
                </mxCell>
                <mxCell id="8MIi-V0CIElsMQN61LRY-9" value="interface Activity {&lt;br style=&quot;border-color: var(--border-color);&quot;&gt;&amp;nbsp; label: string&lt;br style=&quot;border-color: var(--border-color);&quot;&gt;&amp;nbsp; duration: () =&amp;gt; number&lt;br style=&quot;border-color: var(--border-color);&quot;&gt;&amp;nbsp; progress: number&lt;br style=&quot;border-color: var(--border-color);&quot;&gt;&amp;nbsp; requirements: {&lt;br style=&quot;border-color: var(--border-color);&quot;&gt;&amp;nbsp; &amp;nbsp; workers: Record&amp;lt;WorkerType, number&amp;gt;,&lt;br style=&quot;border-color: var(--border-color);&quot;&gt;&amp;nbsp; &amp;nbsp; activities: string[], // Labels&lt;br style=&quot;border-color: var(--border-color);&quot;&gt;&amp;nbsp; &amp;nbsp; equipment: EquipmentType[]&lt;br style=&quot;border-color: var(--border-color);&quot;&gt;&amp;nbsp; },&lt;br style=&quot;border-color: var(--border-color);&quot;&gt;&amp;nbsp; allocation: Record&amp;lt;WorkerType, number&amp;gt;&lt;br style=&quot;border-color: var(--border-color);&quot;&gt;}" style="shape=note;whiteSpace=wrap;html=1;backgroundOutline=1;darkOpacity=0.05;fontFamily=Lucida Console;align=left;" parent="1" vertex="1">
                    <mxGeometry x="2340" y="240" width="300" height="170" as="geometry"/>
                </mxCell>
                <mxCell id="8MIi-V0CIElsMQN61LRY-33" style="edgeStyle=orthogonalEdgeStyle;rounded=1;html=1;exitX=0;exitY=0.5;exitDx=0;exitDy=0;entryX=1;entryY=0.5;entryDx=0;entryDy=0;fontFamily=Lucida Console;endArrow=classicThin;endFill=1;jumpStyle=gap;" parent="1" source="8MIi-V0CIElsMQN61LRY-10" target="RgcTgYS2e9T_qnjGHquK-26" edge="1">
                    <mxGeometry relative="1" as="geometry">
                        <Array as="points">
                            <mxPoint x="2020" y="214"/>
                            <mxPoint x="2020" y="569"/>
                        </Array>
                    </mxGeometry>
                </mxCell>
                <mxCell id="8MIi-V0CIElsMQN61LRY-35" style="edgeStyle=orthogonalEdgeStyle;rounded=1;html=1;exitX=0;exitY=0.5;exitDx=0;exitDy=0;entryX=1;entryY=0.5;entryDx=0;entryDy=0;fontFamily=Lucida Console;endArrow=classicThin;endFill=1;jumpStyle=gap;" parent="1" source="8MIi-V0CIElsMQN61LRY-10" target="C1zAiaUE-qayzrO_iwcF-25" edge="1">
                    <mxGeometry relative="1" as="geometry">
                        <Array as="points">
                            <mxPoint x="2020" y="214"/>
                            <mxPoint x="2020" y="595"/>
                        </Array>
                    </mxGeometry>
                </mxCell>
                <mxCell id="8MIi-V0CIElsMQN61LRY-38" style="edgeStyle=orthogonalEdgeStyle;rounded=1;html=1;exitX=0;exitY=0.5;exitDx=0;exitDy=0;entryX=1;entryY=0.5;entryDx=0;entryDy=0;fontFamily=Lucida Console;endArrow=classicThin;endFill=1;jumpStyle=gap;" parent="1" source="8MIi-V0CIElsMQN61LRY-10" target="C1zAiaUE-qayzrO_iwcF-6" edge="1">
                    <mxGeometry relative="1" as="geometry">
                        <Array as="points">
                            <mxPoint x="2020" y="214"/>
                            <mxPoint x="2020" y="897"/>
                        </Array>
                    </mxGeometry>
                </mxCell>
                <mxCell id="8MIi-V0CIElsMQN61LRY-10" value="«page»&#10;Week" style="swimlane;fontStyle=1;align=center;verticalAlign=top;childLayout=stackLayout;horizontal=1;startSize=40;horizontalStack=0;resizeParent=1;resizeParentMax=0;resizeLast=0;collapsible=1;marginBottom=0;" parent="1" vertex="1">
                    <mxGeometry x="2080" y="190" width="160" height="48" as="geometry"/>
                </mxCell>
                <mxCell id="8MIi-V0CIElsMQN61LRY-11" value="" style="line;strokeWidth=1;fillColor=none;align=left;verticalAlign=middle;spacingTop=-1;spacingLeft=3;spacingRight=3;rotatable=0;labelPosition=right;points=[];portConstraint=eastwest;strokeColor=inherit;" parent="8MIi-V0CIElsMQN61LRY-10" vertex="1">
                    <mxGeometry y="40" width="160" height="8" as="geometry"/>
                </mxCell>
                <mxCell id="8MIi-V0CIElsMQN61LRY-31" style="edgeStyle=orthogonalEdgeStyle;rounded=1;html=1;exitX=0;exitY=0.5;exitDx=0;exitDy=0;entryX=1;entryY=0.5;entryDx=0;entryDy=0;fontFamily=Lucida Console;endArrow=classicThin;endFill=1;jumpStyle=gap;" parent="1" source="8MIi-V0CIElsMQN61LRY-12" target="C1zAiaUE-qayzrO_iwcF-12" edge="1">
                    <mxGeometry relative="1" as="geometry"/>
                </mxCell>
                <mxCell id="8MIi-V0CIElsMQN61LRY-39" style="edgeStyle=orthogonalEdgeStyle;rounded=1;html=1;exitX=0;exitY=0.5;exitDx=0;exitDy=0;entryX=1;entryY=0.5;entryDx=0;entryDy=0;fontFamily=Lucida Console;endArrow=classicThin;endFill=1;jumpStyle=gap;" parent="1" source="8MIi-V0CIElsMQN61LRY-12" target="YB6wrs3C5YlcXNREA4JL-2" edge="1">
                    <mxGeometry relative="1" as="geometry">
                        <Array as="points">
                            <mxPoint x="2040" y="404"/>
                            <mxPoint x="2040" y="923"/>
                        </Array>
                    </mxGeometry>
                </mxCell>
                <mxCell id="8MIi-V0CIElsMQN61LRY-12" value="«component»&#10;Workers" style="swimlane;fontStyle=1;align=center;verticalAlign=top;childLayout=stackLayout;horizontal=1;startSize=40;horizontalStack=0;resizeParent=1;resizeParentMax=0;resizeLast=0;collapsible=1;marginBottom=0;" parent="1" vertex="1">
                    <mxGeometry x="2080" y="380" width="160" height="48" as="geometry"/>
                </mxCell>
                <mxCell id="8MIi-V0CIElsMQN61LRY-13" value="" style="line;strokeWidth=1;fillColor=none;align=left;verticalAlign=middle;spacingTop=-1;spacingLeft=3;spacingRight=3;rotatable=0;labelPosition=right;points=[];portConstraint=eastwest;strokeColor=inherit;" parent="8MIi-V0CIElsMQN61LRY-12" vertex="1">
                    <mxGeometry y="40" width="160" height="8" as="geometry"/>
                </mxCell>
                <mxCell id="8MIi-V0CIElsMQN61LRY-14" value="«component»&#10;Assignment" style="swimlane;fontStyle=1;align=center;verticalAlign=top;childLayout=stackLayout;horizontal=1;startSize=40;horizontalStack=0;resizeParent=1;resizeParentMax=0;resizeLast=0;collapsible=1;marginBottom=0;" parent="1" vertex="1">
                    <mxGeometry x="2080" y="461" width="160" height="48" as="geometry"/>
                </mxCell>
                <mxCell id="8MIi-V0CIElsMQN61LRY-15" value="" style="line;strokeWidth=1;fillColor=none;align=left;verticalAlign=middle;spacingTop=-1;spacingLeft=3;spacingRight=3;rotatable=0;labelPosition=right;points=[];portConstraint=eastwest;strokeColor=inherit;" parent="8MIi-V0CIElsMQN61LRY-14" vertex="1">
                    <mxGeometry y="40" width="160" height="8" as="geometry"/>
                </mxCell>
                <mxCell id="8MIi-V0CIElsMQN61LRY-36" style="edgeStyle=orthogonalEdgeStyle;rounded=1;html=1;exitX=0;exitY=0.5;exitDx=0;exitDy=0;entryX=1;entryY=0.5;entryDx=0;entryDy=0;fontFamily=Lucida Console;endArrow=classicThin;endFill=1;jumpStyle=gap;" parent="1" source="8MIi-V0CIElsMQN61LRY-16" target="C1zAiaUE-qayzrO_iwcF-26" edge="1">
                    <mxGeometry relative="1" as="geometry"/>
                </mxCell>
                <mxCell id="8MIi-V0CIElsMQN61LRY-37" style="edgeStyle=orthogonalEdgeStyle;rounded=1;html=1;exitX=0;exitY=0.5;exitDx=0;exitDy=0;entryX=1;entryY=0.5;entryDx=0;entryDy=0;fontFamily=Lucida Console;endArrow=classicThin;endFill=1;jumpStyle=gap;" parent="1" source="8MIi-V0CIElsMQN61LRY-16" target="C1zAiaUE-qayzrO_iwcF-27" edge="1">
                    <mxGeometry relative="1" as="geometry"/>
                </mxCell>
                <mxCell id="8MIi-V0CIElsMQN61LRY-42" style="edgeStyle=orthogonalEdgeStyle;rounded=1;html=1;exitX=0;exitY=0.5;exitDx=0;exitDy=0;entryX=1;entryY=0.5;entryDx=0;entryDy=0;fontFamily=Lucida Console;endArrow=classicThin;endFill=1;jumpStyle=gap;" parent="1" source="8MIi-V0CIElsMQN61LRY-16" target="YB6wrs3C5YlcXNREA4JL-2" edge="1">
                    <mxGeometry relative="1" as="geometry">
                        <Array as="points">
                            <mxPoint x="2040" y="730"/>
                            <mxPoint x="2040" y="923"/>
                        </Array>
                    </mxGeometry>
                </mxCell>
                <mxCell id="8MIi-V0CIElsMQN61LRY-16" value="«component»&#10;Loan" style="swimlane;fontStyle=1;align=center;verticalAlign=top;childLayout=stackLayout;horizontal=1;startSize=40;horizontalStack=0;resizeParent=1;resizeParentMax=0;resizeLast=0;collapsible=1;marginBottom=0;" parent="1" vertex="1">
                    <mxGeometry x="2080" y="706" width="160" height="48" as="geometry"/>
                </mxCell>
                <mxCell id="8MIi-V0CIElsMQN61LRY-17" value="" style="line;strokeWidth=1;fillColor=none;align=left;verticalAlign=middle;spacingTop=-1;spacingLeft=3;spacingRight=3;rotatable=0;labelPosition=right;points=[];portConstraint=eastwest;strokeColor=inherit;" parent="8MIi-V0CIElsMQN61LRY-16" vertex="1">
                    <mxGeometry y="40" width="160" height="8" as="geometry"/>
                </mxCell>
                <mxCell id="8MIi-V0CIElsMQN61LRY-32" style="edgeStyle=orthogonalEdgeStyle;rounded=1;html=1;exitX=0;exitY=0.25;exitDx=0;exitDy=0;entryX=1;entryY=0.5;entryDx=0;entryDy=0;fontFamily=Lucida Console;endArrow=classicThin;endFill=1;jumpStyle=gap;" parent="1" source="8MIi-V0CIElsMQN61LRY-18" target="C1zAiaUE-qayzrO_iwcF-20" edge="1">
                    <mxGeometry relative="1" as="geometry"/>
                </mxCell>
                <mxCell id="8MIi-V0CIElsMQN61LRY-41" style="edgeStyle=orthogonalEdgeStyle;rounded=1;html=1;exitX=0;exitY=0.5;exitDx=0;exitDy=0;entryX=1;entryY=0.5;entryDx=0;entryDy=0;fontFamily=Lucida Console;endArrow=classicThin;endFill=1;jumpStyle=gap;" parent="1" source="8MIi-V0CIElsMQN61LRY-18" target="YB6wrs3C5YlcXNREA4JL-2" edge="1">
                    <mxGeometry relative="1" as="geometry">
                        <Array as="points">
                            <mxPoint x="2040" y="567"/>
                            <mxPoint x="2040" y="923"/>
                        </Array>
                    </mxGeometry>
                </mxCell>
                <mxCell id="8MIi-V0CIElsMQN61LRY-18" value="«component»&#10;Equipment" style="swimlane;fontStyle=1;align=center;verticalAlign=top;childLayout=stackLayout;horizontal=1;startSize=40;horizontalStack=0;resizeParent=1;resizeParentMax=0;resizeLast=0;collapsible=1;marginBottom=0;" parent="1" vertex="1">
                    <mxGeometry x="2080" y="543" width="160" height="48" as="geometry"/>
                </mxCell>
                <mxCell id="8MIi-V0CIElsMQN61LRY-19" value="" style="line;strokeWidth=1;fillColor=none;align=left;verticalAlign=middle;spacingTop=-1;spacingLeft=3;spacingRight=3;rotatable=0;labelPosition=right;points=[];portConstraint=eastwest;strokeColor=inherit;" parent="8MIi-V0CIElsMQN61LRY-18" vertex="1">
                    <mxGeometry y="40" width="160" height="8" as="geometry"/>
                </mxCell>
                <mxCell id="8MIi-V0CIElsMQN61LRY-20" value="«component»&#10;Bid" style="swimlane;fontStyle=1;align=center;verticalAlign=top;childLayout=stackLayout;horizontal=1;startSize=40;horizontalStack=0;resizeParent=1;resizeParentMax=0;resizeLast=0;collapsible=1;marginBottom=0;" parent="1" vertex="1">
                    <mxGeometry x="2080" y="625" width="160" height="48" as="geometry"/>
                </mxCell>
                <mxCell id="8MIi-V0CIElsMQN61LRY-21" value="" style="line;strokeWidth=1;fillColor=none;align=left;verticalAlign=middle;spacingTop=-1;spacingLeft=3;spacingRight=3;rotatable=0;labelPosition=right;points=[];portConstraint=eastwest;strokeColor=inherit;" parent="8MIi-V0CIElsMQN61LRY-20" vertex="1">
                    <mxGeometry y="40" width="160" height="8" as="geometry"/>
                </mxCell>
                <mxCell id="8MIi-V0CIElsMQN61LRY-22" value="«component»&#10;NextWeek" style="swimlane;fontStyle=1;align=center;verticalAlign=top;childLayout=stackLayout;horizontal=1;startSize=40;horizontalStack=0;resizeParent=1;resizeParentMax=0;resizeLast=0;collapsible=1;marginBottom=0;" parent="1" vertex="1">
                    <mxGeometry x="2080" y="268" width="160" height="74" as="geometry">
                        <mxRectangle x="2080" y="268" width="120" height="40" as="alternateBounds"/>
                    </mxGeometry>
                </mxCell>
                <mxCell id="8MIi-V0CIElsMQN61LRY-23" value="" style="line;strokeWidth=1;fillColor=none;align=left;verticalAlign=middle;spacingTop=-1;spacingLeft=3;spacingRight=3;rotatable=0;labelPosition=right;points=[];portConstraint=eastwest;strokeColor=inherit;" parent="8MIi-V0CIElsMQN61LRY-22" vertex="1">
                    <mxGeometry y="40" width="160" height="8" as="geometry"/>
                </mxCell>
                <mxCell id="8MIi-V0CIElsMQN61LRY-24" value="onClick(MouseEvent)" style="text;strokeColor=none;fillColor=none;align=left;verticalAlign=top;spacingLeft=4;spacingRight=4;overflow=hidden;rotatable=0;points=[[0,0.5],[1,0.5]];portConstraint=eastwest;" parent="8MIi-V0CIElsMQN61LRY-22" vertex="1">
                    <mxGeometry y="48" width="160" height="26" as="geometry"/>
                </mxCell>
                <mxCell id="8MIi-V0CIElsMQN61LRY-44" style="edgeStyle=orthogonalEdgeStyle;rounded=1;html=1;exitX=0;exitY=0.5;exitDx=0;exitDy=0;entryX=1;entryY=0.5;entryDx=0;entryDy=0;fontFamily=Lucida Console;endArrow=classicThin;endFill=1;jumpStyle=gap;" parent="1" source="8MIi-V0CIElsMQN61LRY-25" target="YB6wrs3C5YlcXNREA4JL-2" edge="1">
                    <mxGeometry relative="1" as="geometry">
                        <Array as="points">
                            <mxPoint x="2080" y="923"/>
                        </Array>
                    </mxGeometry>
                </mxCell>
                <mxCell id="8MIi-V0CIElsMQN61LRY-25" value="«component»&#10;Funds" style="swimlane;fontStyle=1;align=center;verticalAlign=top;childLayout=stackLayout;horizontal=1;startSize=40;horizontalStack=0;resizeParent=1;resizeParentMax=0;resizeLast=0;collapsible=1;marginBottom=0;" parent="1" vertex="1">
                    <mxGeometry x="2080" y="903" width="160" height="48" as="geometry"/>
                </mxCell>
                <mxCell id="8MIi-V0CIElsMQN61LRY-26" value="" style="line;strokeWidth=1;fillColor=none;align=left;verticalAlign=middle;spacingTop=-1;spacingLeft=3;spacingRight=3;rotatable=0;labelPosition=right;points=[];portConstraint=eastwest;strokeColor=inherit;" parent="8MIi-V0CIElsMQN61LRY-25" vertex="1">
                    <mxGeometry y="40" width="160" height="8" as="geometry"/>
                </mxCell>
                <mxCell id="8MIi-V0CIElsMQN61LRY-43" style="edgeStyle=orthogonalEdgeStyle;rounded=1;html=1;exitX=0;exitY=0.25;exitDx=0;exitDy=0;entryX=1;entryY=0.5;entryDx=0;entryDy=0;fontFamily=Lucida Console;endArrow=classicThin;endFill=1;jumpStyle=gap;" parent="1" source="8MIi-V0CIElsMQN61LRY-27" target="YB6wrs3C5YlcXNREA4JL-2" edge="1">
                    <mxGeometry relative="1" as="geometry">
                        <Array as="points">
                            <mxPoint x="2040" y="806"/>
                            <mxPoint x="2040" y="923"/>
                        </Array>
                    </mxGeometry>
                </mxCell>
                <mxCell id="8MIi-V0CIElsMQN61LRY-45" style="edgeStyle=orthogonalEdgeStyle;rounded=1;html=1;exitX=0;exitY=0.25;exitDx=0;exitDy=0;entryX=1;entryY=0.5;entryDx=0;entryDy=0;fontFamily=Lucida Console;endArrow=classicThin;endFill=1;jumpStyle=gap;" parent="1" source="8MIi-V0CIElsMQN61LRY-27" target="RgcTgYS2e9T_qnjGHquK-38" edge="1">
                    <mxGeometry relative="1" as="geometry"/>
                </mxCell>
                <mxCell id="8MIi-V0CIElsMQN61LRY-27" value="«component»&#10;Activity" style="swimlane;fontStyle=1;align=center;verticalAlign=top;childLayout=stackLayout;horizontal=1;startSize=40;horizontalStack=0;resizeParent=1;resizeParentMax=0;resizeLast=0;collapsible=1;marginBottom=0;" parent="1" vertex="1">
                    <mxGeometry x="2080" y="788" width="160" height="74" as="geometry"/>
                </mxCell>
                <mxCell id="8MIi-V0CIElsMQN61LRY-28" value="activity: Activity" style="text;strokeColor=none;fillColor=none;align=left;verticalAlign=top;spacingLeft=4;spacingRight=4;overflow=hidden;rotatable=0;points=[[0,0.5],[1,0.5]];portConstraint=eastwest;" parent="8MIi-V0CIElsMQN61LRY-27" vertex="1">
                    <mxGeometry y="40" width="160" height="26" as="geometry"/>
                </mxCell>
                <mxCell id="8MIi-V0CIElsMQN61LRY-29" value="" style="line;strokeWidth=1;fillColor=none;align=left;verticalAlign=middle;spacingTop=-1;spacingLeft=3;spacingRight=3;rotatable=0;labelPosition=right;points=[];portConstraint=eastwest;strokeColor=inherit;" parent="8MIi-V0CIElsMQN61LRY-27" vertex="1">
                    <mxGeometry y="66" width="160" height="8" as="geometry"/>
                </mxCell>
                <mxCell id="8MIi-V0CIElsMQN61LRY-30" style="edgeStyle=orthogonalEdgeStyle;rounded=1;html=1;exitX=0;exitY=0.5;exitDx=0;exitDy=0;entryX=0;entryY=0.5;entryDx=0;entryDy=0;fontFamily=Lucida Console;endArrow=classicThin;endFill=1;" parent="1" source="8MIi-V0CIElsMQN61LRY-3" target="8MIi-V0CIElsMQN61LRY-4" edge="1">
                    <mxGeometry relative="1" as="geometry">
                        <Array as="points">
                            <mxPoint x="1300" y="1175"/>
                            <mxPoint x="1300" y="370"/>
                        </Array>
                    </mxGeometry>
                </mxCell>
                <mxCell id="06ANsJ-rXmkAQVMU99Mr-1" value="&lt;span style=&quot;&quot;&gt;type EquipmentType =&amp;nbsp;&lt;/span&gt;'steelwork' | 'interior' | 'tbs'" style="shape=note;whiteSpace=wrap;html=1;backgroundOutline=1;darkOpacity=0.05;fontFamily=Lucida Console;align=left;" parent="1" vertex="1">
                    <mxGeometry x="2340" y="90" width="440" height="30" as="geometry"/>
                </mxCell>
            </root>
        </mxGraphModel>
    </diagram>
    <diagram name="New Vue diagram" id="9B7h04sZO9dNE8C6L8SG">
        <mxGraphModel dx="1253" dy="1321" grid="1" gridSize="10" guides="1" tooltips="1" connect="1" arrows="1" fold="1" page="1" pageScale="1" pageWidth="850" pageHeight="1100" math="0" shadow="0">
            <root>
                <mxCell id="QKRQY_yc0Inge7q_qlOR-0"/>
                <mxCell id="QKRQY_yc0Inge7q_qlOR-1" parent="QKRQY_yc0Inge7q_qlOR-0"/>
                <mxCell id="QKRQY_yc0Inge7q_qlOR-2" style="edgeStyle=orthogonalEdgeStyle;html=1;exitX=0.5;exitY=1;exitDx=0;exitDy=0;entryX=0.5;entryY=0;entryDx=0;entryDy=0;endArrow=none;endFill=0;rounded=0;" parent="QKRQY_yc0Inge7q_qlOR-1" source="QKRQY_yc0Inge7q_qlOR-9" target="QKRQY_yc0Inge7q_qlOR-13" edge="1">
                    <mxGeometry relative="1" as="geometry"/>
                </mxCell>
                <mxCell id="QKRQY_yc0Inge7q_qlOR-3" style="edgeStyle=orthogonalEdgeStyle;rounded=0;html=1;exitX=0.5;exitY=1;exitDx=0;exitDy=0;entryX=0.5;entryY=0;entryDx=0;entryDy=0;endArrow=none;endFill=0;" parent="QKRQY_yc0Inge7q_qlOR-1" source="QKRQY_yc0Inge7q_qlOR-9" target="QKRQY_yc0Inge7q_qlOR-11" edge="1">
                    <mxGeometry relative="1" as="geometry"/>
                </mxCell>
                <mxCell id="QKRQY_yc0Inge7q_qlOR-4" style="edgeStyle=orthogonalEdgeStyle;rounded=0;html=1;exitX=0.5;exitY=1;exitDx=0;exitDy=0;entryX=0.5;entryY=0;entryDx=0;entryDy=0;endArrow=none;endFill=0;" parent="QKRQY_yc0Inge7q_qlOR-1" source="QKRQY_yc0Inge7q_qlOR-9" target="QKRQY_yc0Inge7q_qlOR-21" edge="1">
                    <mxGeometry relative="1" as="geometry"/>
                </mxCell>
                <mxCell id="QKRQY_yc0Inge7q_qlOR-5" style="edgeStyle=orthogonalEdgeStyle;rounded=0;html=1;exitX=0.5;exitY=1;exitDx=0;exitDy=0;entryX=0.5;entryY=0;entryDx=0;entryDy=0;endArrow=none;endFill=0;" parent="QKRQY_yc0Inge7q_qlOR-1" source="QKRQY_yc0Inge7q_qlOR-9" target="QKRQY_yc0Inge7q_qlOR-19" edge="1">
                    <mxGeometry relative="1" as="geometry"/>
                </mxCell>
                <mxCell id="QKRQY_yc0Inge7q_qlOR-6" style="edgeStyle=orthogonalEdgeStyle;rounded=0;html=1;exitX=0.5;exitY=1;exitDx=0;exitDy=0;entryX=0.5;entryY=0;entryDx=0;entryDy=0;endArrow=none;endFill=0;" parent="QKRQY_yc0Inge7q_qlOR-1" source="QKRQY_yc0Inge7q_qlOR-9" target="QKRQY_yc0Inge7q_qlOR-15" edge="1">
                    <mxGeometry relative="1" as="geometry"/>
                </mxCell>
                <mxCell id="QKRQY_yc0Inge7q_qlOR-7" style="edgeStyle=orthogonalEdgeStyle;rounded=0;html=1;exitX=0.5;exitY=1;exitDx=0;exitDy=0;entryX=0.5;entryY=0;entryDx=0;entryDy=0;endArrow=none;endFill=0;" parent="QKRQY_yc0Inge7q_qlOR-1" source="QKRQY_yc0Inge7q_qlOR-9" target="QKRQY_yc0Inge7q_qlOR-24" edge="1">
                    <mxGeometry relative="1" as="geometry"/>
                </mxCell>
                <mxCell id="QKRQY_yc0Inge7q_qlOR-8" style="edgeStyle=orthogonalEdgeStyle;rounded=0;html=1;exitX=0.5;exitY=1;exitDx=0;exitDy=0;entryX=0.5;entryY=0;entryDx=0;entryDy=0;endArrow=none;endFill=0;" parent="QKRQY_yc0Inge7q_qlOR-1" source="QKRQY_yc0Inge7q_qlOR-9" target="QKRQY_yc0Inge7q_qlOR-17" edge="1">
                    <mxGeometry relative="1" as="geometry"/>
                </mxCell>
                <mxCell id="QKRQY_yc0Inge7q_qlOR-9" value="«page»&#10;Week" style="swimlane;fontStyle=1;align=center;verticalAlign=top;childLayout=stackLayout;horizontal=1;startSize=40;horizontalStack=0;resizeParent=1;resizeParentMax=0;resizeLast=0;collapsible=1;marginBottom=0;" parent="QKRQY_yc0Inge7q_qlOR-1" vertex="1">
                    <mxGeometry x="200" y="150" width="160" height="48" as="geometry"/>
                </mxCell>
                <mxCell id="QKRQY_yc0Inge7q_qlOR-10" value="" style="line;strokeWidth=1;fillColor=none;align=left;verticalAlign=middle;spacingTop=-1;spacingLeft=3;spacingRight=3;rotatable=0;labelPosition=right;points=[];portConstraint=eastwest;strokeColor=inherit;" parent="QKRQY_yc0Inge7q_qlOR-9" vertex="1">
                    <mxGeometry y="40" width="160" height="8" as="geometry"/>
                </mxCell>
                <mxCell id="QKRQY_yc0Inge7q_qlOR-11" value="«component»&#10;Workers" style="swimlane;fontStyle=1;align=center;verticalAlign=top;childLayout=stackLayout;horizontal=1;startSize=40;horizontalStack=0;resizeParent=1;resizeParentMax=0;resizeLast=0;collapsible=1;marginBottom=0;" parent="QKRQY_yc0Inge7q_qlOR-1" vertex="1">
                    <mxGeometry x="-200" y="280" width="160" height="48" as="geometry"/>
                </mxCell>
                <mxCell id="QKRQY_yc0Inge7q_qlOR-12" value="" style="line;strokeWidth=1;fillColor=none;align=left;verticalAlign=middle;spacingTop=-1;spacingLeft=3;spacingRight=3;rotatable=0;labelPosition=right;points=[];portConstraint=eastwest;strokeColor=inherit;" parent="QKRQY_yc0Inge7q_qlOR-11" vertex="1">
                    <mxGeometry y="40" width="160" height="8" as="geometry"/>
                </mxCell>
                <mxCell id="QKRQY_yc0Inge7q_qlOR-13" value="«component»&#10;Allocation" style="swimlane;fontStyle=1;align=center;verticalAlign=top;childLayout=stackLayout;horizontal=1;startSize=40;horizontalStack=0;resizeParent=1;resizeParentMax=0;resizeLast=0;collapsible=1;marginBottom=0;" parent="QKRQY_yc0Inge7q_qlOR-1" vertex="1">
                    <mxGeometry y="280" width="160" height="48" as="geometry"/>
                </mxCell>
                <mxCell id="QKRQY_yc0Inge7q_qlOR-14" value="" style="line;strokeWidth=1;fillColor=none;align=left;verticalAlign=middle;spacingTop=-1;spacingLeft=3;spacingRight=3;rotatable=0;labelPosition=right;points=[];portConstraint=eastwest;strokeColor=inherit;" parent="QKRQY_yc0Inge7q_qlOR-13" vertex="1">
                    <mxGeometry y="40" width="160" height="8" as="geometry"/>
                </mxCell>
                <mxCell id="QKRQY_yc0Inge7q_qlOR-15" value="«component»&#10;Loan" style="swimlane;fontStyle=1;align=center;verticalAlign=top;childLayout=stackLayout;horizontal=1;startSize=40;horizontalStack=0;resizeParent=1;resizeParentMax=0;resizeLast=0;collapsible=1;marginBottom=0;" parent="QKRQY_yc0Inge7q_qlOR-1" vertex="1">
                    <mxGeometry x="600" y="280" width="160" height="48" as="geometry"/>
                </mxCell>
                <mxCell id="QKRQY_yc0Inge7q_qlOR-16" value="" style="line;strokeWidth=1;fillColor=none;align=left;verticalAlign=middle;spacingTop=-1;spacingLeft=3;spacingRight=3;rotatable=0;labelPosition=right;points=[];portConstraint=eastwest;strokeColor=inherit;" parent="QKRQY_yc0Inge7q_qlOR-15" vertex="1">
                    <mxGeometry y="40" width="160" height="8" as="geometry"/>
                </mxCell>
                <mxCell id="QKRQY_yc0Inge7q_qlOR-17" value="«component»&#10;Equipment" style="swimlane;fontStyle=1;align=center;verticalAlign=top;childLayout=stackLayout;horizontal=1;startSize=40;horizontalStack=0;resizeParent=1;resizeParentMax=0;resizeLast=0;collapsible=1;marginBottom=0;" parent="QKRQY_yc0Inge7q_qlOR-1" vertex="1">
                    <mxGeometry x="200" y="280" width="160" height="48" as="geometry"/>
                </mxCell>
                <mxCell id="QKRQY_yc0Inge7q_qlOR-18" value="" style="line;strokeWidth=1;fillColor=none;align=left;verticalAlign=middle;spacingTop=-1;spacingLeft=3;spacingRight=3;rotatable=0;labelPosition=right;points=[];portConstraint=eastwest;strokeColor=inherit;" parent="QKRQY_yc0Inge7q_qlOR-17" vertex="1">
                    <mxGeometry y="40" width="160" height="8" as="geometry"/>
                </mxCell>
                <mxCell id="QKRQY_yc0Inge7q_qlOR-19" value="«component»&#10;Bid" style="swimlane;fontStyle=1;align=center;verticalAlign=top;childLayout=stackLayout;horizontal=1;startSize=40;horizontalStack=0;resizeParent=1;resizeParentMax=0;resizeLast=0;collapsible=1;marginBottom=0;" parent="QKRQY_yc0Inge7q_qlOR-1" vertex="1">
                    <mxGeometry x="400" y="280" width="160" height="48" as="geometry"/>
                </mxCell>
                <mxCell id="QKRQY_yc0Inge7q_qlOR-20" value="" style="line;strokeWidth=1;fillColor=none;align=left;verticalAlign=middle;spacingTop=-1;spacingLeft=3;spacingRight=3;rotatable=0;labelPosition=right;points=[];portConstraint=eastwest;strokeColor=inherit;" parent="QKRQY_yc0Inge7q_qlOR-19" vertex="1">
                    <mxGeometry y="40" width="160" height="8" as="geometry"/>
                </mxCell>
                <mxCell id="QKRQY_yc0Inge7q_qlOR-21" value="«component»&#10;NextWeek" style="swimlane;fontStyle=1;align=center;verticalAlign=top;childLayout=stackLayout;horizontal=1;startSize=40;horizontalStack=0;resizeParent=1;resizeParentMax=0;resizeLast=0;collapsible=1;marginBottom=0;" parent="QKRQY_yc0Inge7q_qlOR-1" vertex="1">
                    <mxGeometry x="-400" y="280" width="160" height="74" as="geometry"/>
                </mxCell>
                <mxCell id="QKRQY_yc0Inge7q_qlOR-22" value="" style="line;strokeWidth=1;fillColor=none;align=left;verticalAlign=middle;spacingTop=-1;spacingLeft=3;spacingRight=3;rotatable=0;labelPosition=right;points=[];portConstraint=eastwest;strokeColor=inherit;" parent="QKRQY_yc0Inge7q_qlOR-21" vertex="1">
                    <mxGeometry y="40" width="160" height="8" as="geometry"/>
                </mxCell>
                <mxCell id="QKRQY_yc0Inge7q_qlOR-23" value="onClick(MouseEvent)" style="text;strokeColor=none;fillColor=none;align=left;verticalAlign=top;spacingLeft=4;spacingRight=4;overflow=hidden;rotatable=0;points=[[0,0.5],[1,0.5]];portConstraint=eastwest;" parent="QKRQY_yc0Inge7q_qlOR-21" vertex="1">
                    <mxGeometry y="48" width="160" height="26" as="geometry"/>
                </mxCell>
                <mxCell id="QKRQY_yc0Inge7q_qlOR-24" value="«component»&#10;Funds" style="swimlane;fontStyle=1;align=center;verticalAlign=top;childLayout=stackLayout;horizontal=1;startSize=40;horizontalStack=0;resizeParent=1;resizeParentMax=0;resizeLast=0;collapsible=1;marginBottom=0;" parent="QKRQY_yc0Inge7q_qlOR-1" vertex="1">
                    <mxGeometry x="800" y="280" width="160" height="48" as="geometry"/>
                </mxCell>
                <mxCell id="QKRQY_yc0Inge7q_qlOR-25" value="" style="line;strokeWidth=1;fillColor=none;align=left;verticalAlign=middle;spacingTop=-1;spacingLeft=3;spacingRight=3;rotatable=0;labelPosition=right;points=[];portConstraint=eastwest;strokeColor=inherit;" parent="QKRQY_yc0Inge7q_qlOR-24" vertex="1">
                    <mxGeometry y="40" width="160" height="8" as="geometry"/>
                </mxCell>
                <mxCell id="QKRQY_yc0Inge7q_qlOR-26" value="" style="endArrow=none;dashed=1;html=1;rounded=0;" parent="QKRQY_yc0Inge7q_qlOR-1" edge="1">
                    <mxGeometry width="50" height="50" relative="1" as="geometry">
                        <mxPoint x="1080" y="880" as="sourcePoint"/>
                        <mxPoint x="1080" y="40" as="targetPoint"/>
                    </mxGeometry>
                </mxCell>
                <mxCell id="QKRQY_yc0Inge7q_qlOR-27" value="Workers" style="swimlane;fontStyle=1;align=center;verticalAlign=top;childLayout=stackLayout;horizontal=1;startSize=26;horizontalStack=0;resizeParent=1;resizeParentMax=0;resizeLast=0;collapsible=1;marginBottom=0;" parent="QKRQY_yc0Inge7q_qlOR-1" vertex="1">
                    <mxGeometry x="1320" y="40" width="260" height="138" as="geometry"/>
                </mxCell>
                <mxCell id="QKRQY_yc0Inge7q_qlOR-28" value="workers: {labour: number, skilled: number,&#10;electrican: number}[]" style="text;strokeColor=none;fillColor=none;align=left;verticalAlign=top;spacingLeft=4;spacingRight=4;overflow=hidden;rotatable=0;points=[[0,0.5],[1,0.5]];portConstraint=eastwest;" parent="QKRQY_yc0Inge7q_qlOR-27" vertex="1">
                    <mxGeometry y="26" width="260" height="44" as="geometry"/>
                </mxCell>
                <mxCell id="QKRQY_yc0Inge7q_qlOR-31" value="" style="line;strokeWidth=1;fillColor=none;align=left;verticalAlign=middle;spacingTop=-1;spacingLeft=3;spacingRight=3;rotatable=0;labelPosition=right;points=[];portConstraint=eastwest;strokeColor=inherit;" parent="QKRQY_yc0Inge7q_qlOR-27" vertex="1">
                    <mxGeometry y="70" width="260" height="8" as="geometry"/>
                </mxCell>
                <mxCell id="9hVN3hlwsKjAI1bXE_wh-16" value="currentWorkers(): {number, number, number}" style="text;strokeColor=none;fillColor=none;align=left;verticalAlign=top;spacingLeft=4;spacingRight=4;overflow=hidden;rotatable=0;points=[[0,0.5],[1,0.5]];portConstraint=eastwest;" parent="QKRQY_yc0Inge7q_qlOR-27" vertex="1">
                    <mxGeometry y="78" width="260" height="26" as="geometry"/>
                </mxCell>
                <mxCell id="QKRQY_yc0Inge7q_qlOR-32" value="" style="line;strokeWidth=1;fillColor=none;align=left;verticalAlign=middle;spacingTop=-1;spacingLeft=3;spacingRight=3;rotatable=0;labelPosition=right;points=[];portConstraint=eastwest;strokeColor=inherit;" parent="QKRQY_yc0Inge7q_qlOR-27" vertex="1">
                    <mxGeometry y="104" width="260" height="8" as="geometry"/>
                </mxCell>
                <mxCell id="QKRQY_yc0Inge7q_qlOR-33" value="change(type: WorkerType, value: number)" style="text;strokeColor=none;fillColor=none;align=left;verticalAlign=top;spacingLeft=4;spacingRight=4;overflow=hidden;rotatable=0;points=[[0,0.5],[1,0.5]];portConstraint=eastwest;" parent="QKRQY_yc0Inge7q_qlOR-27" vertex="1">
                    <mxGeometry y="112" width="260" height="26" as="geometry"/>
                </mxCell>
                <mxCell id="QKRQY_yc0Inge7q_qlOR-34" value="Finance" style="swimlane;fontStyle=1;align=center;verticalAlign=top;childLayout=stackLayout;horizontal=1;startSize=26;horizontalStack=0;resizeParent=1;resizeParentMax=0;resizeLast=0;collapsible=1;marginBottom=0;" parent="QKRQY_yc0Inge7q_qlOR-1" vertex="1">
                    <mxGeometry x="1320" y="610" width="190" height="328" as="geometry"/>
                </mxCell>
                <mxCell id="QKRQY_yc0Inge7q_qlOR-35" value="incomingTimeline: number[]" style="text;strokeColor=none;fillColor=none;align=left;verticalAlign=top;spacingLeft=4;spacingRight=4;overflow=hidden;rotatable=0;points=[[0,0.5],[1,0.5]];portConstraint=eastwest;" parent="QKRQY_yc0Inge7q_qlOR-34" vertex="1">
                    <mxGeometry y="26" width="190" height="26" as="geometry"/>
                </mxCell>
                <mxCell id="QKRQY_yc0Inge7q_qlOR-36" value="outgoingTimeline: number[]" style="text;strokeColor=none;fillColor=none;align=left;verticalAlign=top;spacingLeft=4;spacingRight=4;overflow=hidden;rotatable=0;points=[[0,0.5],[1,0.5]];portConstraint=eastwest;" parent="QKRQY_yc0Inge7q_qlOR-34" vertex="1">
                    <mxGeometry y="52" width="190" height="26" as="geometry"/>
                </mxCell>
                <mxCell id="QKRQY_yc0Inge7q_qlOR-37" value="loanTimeline: number[]" style="text;strokeColor=none;fillColor=none;align=left;verticalAlign=top;spacingLeft=4;spacingRight=4;overflow=hidden;rotatable=0;points=[[0,0.5],[1,0.5]];portConstraint=eastwest;" parent="QKRQY_yc0Inge7q_qlOR-34" vertex="1">
                    <mxGeometry y="78" width="190" height="26" as="geometry"/>
                </mxCell>
                <mxCell id="QKRQY_yc0Inge7q_qlOR-38" value="" style="line;strokeWidth=1;fillColor=none;align=left;verticalAlign=middle;spacingTop=-1;spacingLeft=3;spacingRight=3;rotatable=0;labelPosition=right;points=[];portConstraint=eastwest;strokeColor=inherit;" parent="QKRQY_yc0Inge7q_qlOR-34" vertex="1">
                    <mxGeometry y="104" width="190" height="8" as="geometry"/>
                </mxCell>
                <mxCell id="QKRQY_yc0Inge7q_qlOR-39" value="incoming(): number" style="text;strokeColor=none;fillColor=none;align=left;verticalAlign=top;spacingLeft=4;spacingRight=4;overflow=hidden;rotatable=0;points=[[0,0.5],[1,0.5]];portConstraint=eastwest;" parent="QKRQY_yc0Inge7q_qlOR-34" vertex="1">
                    <mxGeometry y="112" width="190" height="26" as="geometry"/>
                </mxCell>
                <mxCell id="9hVN3hlwsKjAI1bXE_wh-24" value="outgoing(): number" style="text;strokeColor=none;fillColor=none;align=left;verticalAlign=top;spacingLeft=4;spacingRight=4;overflow=hidden;rotatable=0;points=[[0,0.5],[1,0.5]];portConstraint=eastwest;" parent="QKRQY_yc0Inge7q_qlOR-34" vertex="1">
                    <mxGeometry y="138" width="190" height="26" as="geometry"/>
                </mxCell>
                <mxCell id="9hVN3hlwsKjAI1bXE_wh-25" value="loan(): number" style="text;strokeColor=none;fillColor=none;align=left;verticalAlign=top;spacingLeft=4;spacingRight=4;overflow=hidden;rotatable=0;points=[[0,0.5],[1,0.5]];portConstraint=eastwest;" parent="QKRQY_yc0Inge7q_qlOR-34" vertex="1">
                    <mxGeometry y="164" width="190" height="26" as="geometry"/>
                </mxCell>
                <mxCell id="9hVN3hlwsKjAI1bXE_wh-26" value="balance(): number" style="text;strokeColor=none;fillColor=none;align=left;verticalAlign=top;spacingLeft=4;spacingRight=4;overflow=hidden;rotatable=0;points=[[0,0.5],[1,0.5]];portConstraint=eastwest;" parent="QKRQY_yc0Inge7q_qlOR-34" vertex="1">
                    <mxGeometry y="190" width="190" height="26" as="geometry"/>
                </mxCell>
                <mxCell id="QKRQY_yc0Inge7q_qlOR-40" value="" style="line;strokeWidth=1;fillColor=none;align=left;verticalAlign=middle;spacingTop=-1;spacingLeft=3;spacingRight=3;rotatable=0;labelPosition=right;points=[];portConstraint=eastwest;strokeColor=inherit;" parent="QKRQY_yc0Inge7q_qlOR-34" vertex="1">
                    <mxGeometry y="216" width="190" height="8" as="geometry"/>
                </mxCell>
                <mxCell id="QKRQY_yc0Inge7q_qlOR-41" value="addIncoming(value: number)" style="text;strokeColor=none;fillColor=none;align=left;verticalAlign=top;spacingLeft=4;spacingRight=4;overflow=hidden;rotatable=0;points=[[0,0.5],[1,0.5]];portConstraint=eastwest;" parent="QKRQY_yc0Inge7q_qlOR-34" vertex="1">
                    <mxGeometry y="224" width="190" height="26" as="geometry"/>
                </mxCell>
                <mxCell id="QKRQY_yc0Inge7q_qlOR-42" value="addOutgoing(value: number)" style="text;strokeColor=none;fillColor=none;align=left;verticalAlign=top;spacingLeft=4;spacingRight=4;overflow=hidden;rotatable=0;points=[[0,0.5],[1,0.5]];portConstraint=eastwest;" parent="QKRQY_yc0Inge7q_qlOR-34" vertex="1">
                    <mxGeometry y="250" width="190" height="26" as="geometry"/>
                </mxCell>
                <mxCell id="QKRQY_yc0Inge7q_qlOR-43" value="takeLoan(value: number)" style="text;strokeColor=none;fillColor=none;align=left;verticalAlign=top;spacingLeft=4;spacingRight=4;overflow=hidden;rotatable=0;points=[[0,0.5],[1,0.5]];portConstraint=eastwest;" parent="QKRQY_yc0Inge7q_qlOR-34" vertex="1">
                    <mxGeometry y="276" width="190" height="26" as="geometry"/>
                </mxCell>
                <mxCell id="QKRQY_yc0Inge7q_qlOR-44" value="repayLoan(value: number)" style="text;strokeColor=none;fillColor=none;align=left;verticalAlign=top;spacingLeft=4;spacingRight=4;overflow=hidden;rotatable=0;points=[[0,0.5],[1,0.5]];portConstraint=eastwest;" parent="QKRQY_yc0Inge7q_qlOR-34" vertex="1">
                    <mxGeometry y="302" width="190" height="26" as="geometry"/>
                </mxCell>
                <mxCell id="QKRQY_yc0Inge7q_qlOR-45" value="Bid" style="swimlane;fontStyle=1;align=center;verticalAlign=top;childLayout=stackLayout;horizontal=1;startSize=26;horizontalStack=0;resizeParent=1;resizeParentMax=0;resizeLast=0;collapsible=1;marginBottom=0;" parent="QKRQY_yc0Inge7q_qlOR-1" vertex="1">
                    <mxGeometry x="1320" y="990" width="160" height="100" as="geometry"/>
                </mxCell>
                <mxCell id="QKRQY_yc0Inge7q_qlOR-46" value="price: number" style="text;strokeColor=none;fillColor=none;align=left;verticalAlign=top;spacingLeft=4;spacingRight=4;overflow=hidden;rotatable=0;points=[[0,0.5],[1,0.5]];portConstraint=eastwest;" parent="QKRQY_yc0Inge7q_qlOR-45" vertex="1">
                    <mxGeometry y="26" width="160" height="26" as="geometry"/>
                </mxCell>
                <mxCell id="QKRQY_yc0Inge7q_qlOR-47" value="duration: number" style="text;strokeColor=none;fillColor=none;align=left;verticalAlign=top;spacingLeft=4;spacingRight=4;overflow=hidden;rotatable=0;points=[[0,0.5],[1,0.5]];portConstraint=eastwest;" parent="QKRQY_yc0Inge7q_qlOR-45" vertex="1">
                    <mxGeometry y="52" width="160" height="26" as="geometry"/>
                </mxCell>
                <mxCell id="QKRQY_yc0Inge7q_qlOR-48" value="" style="line;strokeWidth=1;fillColor=none;align=left;verticalAlign=middle;spacingTop=-1;spacingLeft=3;spacingRight=3;rotatable=0;labelPosition=right;points=[];portConstraint=eastwest;strokeColor=inherit;" parent="QKRQY_yc0Inge7q_qlOR-45" vertex="1">
                    <mxGeometry y="78" width="160" height="2" as="geometry"/>
                </mxCell>
                <mxCell id="QKRQY_yc0Inge7q_qlOR-49" value="" style="line;strokeWidth=1;fillColor=none;align=left;verticalAlign=middle;spacingTop=-1;spacingLeft=3;spacingRight=3;rotatable=0;labelPosition=right;points=[];portConstraint=eastwest;strokeColor=inherit;" parent="QKRQY_yc0Inge7q_qlOR-45" vertex="1">
                    <mxGeometry y="80" width="160" height="20" as="geometry"/>
                </mxCell>
                <mxCell id="QKRQY_yc0Inge7q_qlOR-50" value="Activities" style="swimlane;fontStyle=1;align=center;verticalAlign=top;childLayout=stackLayout;horizontal=1;startSize=26;horizontalStack=0;resizeParent=1;resizeParentMax=0;resizeLast=0;collapsible=1;marginBottom=0;" parent="QKRQY_yc0Inge7q_qlOR-1" vertex="1">
                    <mxGeometry x="1320" y="1310" width="460" height="354" as="geometry"/>
                </mxCell>
                <mxCell id="QKRQY_yc0Inge7q_qlOR-51" value="progressTimelines: Record&lt;string, number[]&gt;" style="text;strokeColor=none;fillColor=none;align=left;verticalAlign=top;spacingLeft=4;spacingRight=4;overflow=hidden;rotatable=0;points=[[0,0.5],[1,0.5]];portConstraint=eastwest;" parent="QKRQY_yc0Inge7q_qlOR-50" vertex="1">
                    <mxGeometry y="26" width="460" height="26" as="geometry"/>
                </mxCell>
                <mxCell id="QKRQY_yc0Inge7q_qlOR-53" value="allocations: Record&lt;string, Record&lt;WorkerType, number&gt;[]&gt;" style="text;strokeColor=none;fillColor=none;align=left;verticalAlign=top;spacingLeft=4;spacingRight=4;overflow=hidden;rotatable=0;points=[[0,0.5],[1,0.5]];portConstraint=eastwest;" parent="QKRQY_yc0Inge7q_qlOR-50" vertex="1">
                    <mxGeometry y="52" width="460" height="26" as="geometry"/>
                </mxCell>
                <mxCell id="QKRQY_yc0Inge7q_qlOR-52" value="" style="line;strokeWidth=1;fillColor=none;align=left;verticalAlign=middle;spacingTop=-1;spacingLeft=3;spacingRight=3;rotatable=0;labelPosition=right;points=[];portConstraint=eastwest;strokeColor=inherit;" parent="QKRQY_yc0Inge7q_qlOR-50" vertex="1">
                    <mxGeometry y="78" width="460" height="8" as="geometry"/>
                </mxCell>
                <mxCell id="9hVN3hlwsKjAI1bXE_wh-0" value="progressAtWeek(activity: string, week?: number) : number" style="text;strokeColor=none;fillColor=none;align=left;verticalAlign=top;spacingLeft=4;spacingRight=4;overflow=hidden;rotatable=0;points=[[0,0.5],[1,0.5]];portConstraint=eastwest;" parent="QKRQY_yc0Inge7q_qlOR-50" vertex="1">
                    <mxGeometry y="86" width="460" height="26" as="geometry"/>
                </mxCell>
                <mxCell id="QKRQY_yc0Inge7q_qlOR-54" value="activitiesAtWeek(week?: number): Activity[]" style="text;strokeColor=none;fillColor=none;align=left;verticalAlign=top;spacingLeft=4;spacingRight=4;overflow=hidden;rotatable=0;points=[[0,0.5],[1,0.5]];portConstraint=eastwest;" parent="QKRQY_yc0Inge7q_qlOR-50" vertex="1">
                    <mxGeometry y="112" width="460" height="26" as="geometry"/>
                </mxCell>
                <mxCell id="QKRQY_yc0Inge7q_qlOR-55" value="activities(): Activity[]" style="text;strokeColor=none;fillColor=none;align=left;verticalAlign=top;spacingLeft=4;spacingRight=4;overflow=hidden;rotatable=0;points=[[0,0.5],[1,0.5]];portConstraint=eastwest;" parent="QKRQY_yc0Inge7q_qlOR-50" vertex="1">
                    <mxGeometry y="138" width="460" height="26" as="geometry"/>
                </mxCell>
                <mxCell id="9hVN3hlwsKjAI1bXE_wh-2" value="isActivityDone(label: string, week?: number): boolean " style="text;strokeColor=none;fillColor=none;align=left;verticalAlign=top;spacingLeft=4;spacingRight=4;overflow=hidden;rotatable=0;points=[[0,0.5],[1,0.5]];portConstraint=eastwest;" parent="QKRQY_yc0Inge7q_qlOR-50" vertex="1">
                    <mxGeometry y="164" width="460" height="26" as="geometry"/>
                </mxCell>
                <mxCell id="9hVN3hlwsKjAI1bXE_wh-4" value="allActivitiesDone(week?: number): boolean" style="text;strokeColor=none;fillColor=none;align=left;verticalAlign=top;spacingLeft=4;spacingRight=4;overflow=hidden;rotatable=0;points=[[0,0.5],[1,0.5]];portConstraint=eastwest;" parent="QKRQY_yc0Inge7q_qlOR-50" vertex="1">
                    <mxGeometry y="190" width="460" height="26" as="geometry"/>
                </mxCell>
                <mxCell id="_F0GKywh5wCs7DmWXlNR-0" value="getDuration(activity: Activity): number" style="text;strokeColor=none;fillColor=none;align=left;verticalAlign=top;spacingLeft=4;spacingRight=4;overflow=hidden;rotatable=0;points=[[0,0.5],[1,0.5]];portConstraint=eastwest;" parent="QKRQY_yc0Inge7q_qlOR-50" vertex="1">
                    <mxGeometry y="216" width="460" height="26" as="geometry"/>
                </mxCell>
                <mxCell id="3YxlM-aCxOGLGn3RMyvL-3" value="totalWorkersAssigned(type: WorkertType, week?: number): number" style="text;strokeColor=none;fillColor=none;align=left;verticalAlign=top;spacingLeft=4;spacingRight=4;overflow=hidden;rotatable=0;points=[[0,0.5],[1,0.5]];portConstraint=eastwest;" parent="QKRQY_yc0Inge7q_qlOR-50" vertex="1">
                    <mxGeometry y="242" width="460" height="26" as="geometry"/>
                </mxCell>
                <mxCell id="9hVN3hlwsKjAI1bXE_wh-3" value="requirementsMet(label:string, week?: number): boolean" style="text;strokeColor=none;fillColor=none;align=left;verticalAlign=top;spacingLeft=4;spacingRight=4;overflow=hidden;rotatable=0;points=[[0,0.5],[1,0.5]];portConstraint=eastwest;" parent="QKRQY_yc0Inge7q_qlOR-50" vertex="1">
                    <mxGeometry y="268" width="460" height="26" as="geometry"/>
                </mxCell>
                <mxCell id="QKRQY_yc0Inge7q_qlOR-56" value="" style="line;strokeWidth=1;fillColor=none;align=left;verticalAlign=middle;spacingTop=-1;spacingLeft=3;spacingRight=3;rotatable=0;labelPosition=right;points=[];portConstraint=eastwest;strokeColor=inherit;" parent="QKRQY_yc0Inge7q_qlOR-50" vertex="1">
                    <mxGeometry y="294" width="460" height="8" as="geometry"/>
                </mxCell>
                <mxCell id="QKRQY_yc0Inge7q_qlOR-57" value="allocateWorkers(activity: string, type: WorkerType, value: number)" style="text;strokeColor=none;fillColor=none;align=left;verticalAlign=top;spacingLeft=4;spacingRight=4;overflow=hidden;rotatable=0;points=[[0,0.5],[1,0.5]];portConstraint=eastwest;" parent="QKRQY_yc0Inge7q_qlOR-50" vertex="1">
                    <mxGeometry y="302" width="460" height="26" as="geometry"/>
                </mxCell>
                <mxCell id="QKRQY_yc0Inge7q_qlOR-58" value="progressActivities()" style="text;strokeColor=none;fillColor=none;align=left;verticalAlign=top;spacingLeft=4;spacingRight=4;overflow=hidden;rotatable=0;points=[[0,0.5],[1,0.5]];portConstraint=eastwest;" parent="QKRQY_yc0Inge7q_qlOR-50" vertex="1">
                    <mxGeometry y="328" width="460" height="26" as="geometry"/>
                </mxCell>
                <mxCell id="QKRQY_yc0Inge7q_qlOR-59" value="Week" style="swimlane;fontStyle=1;align=center;verticalAlign=top;childLayout=stackLayout;horizontal=1;startSize=26;horizontalStack=0;resizeParent=1;resizeParentMax=0;resizeLast=0;collapsible=1;marginBottom=0;" parent="QKRQY_yc0Inge7q_qlOR-1" vertex="1">
                    <mxGeometry x="1320" y="1140" width="230" height="120" as="geometry"/>
                </mxCell>
                <mxCell id="QKRQY_yc0Inge7q_qlOR-60" value="week: number" style="text;strokeColor=none;fillColor=none;align=left;verticalAlign=top;spacingLeft=4;spacingRight=4;overflow=hidden;rotatable=0;points=[[0,0.5],[1,0.5]];portConstraint=eastwest;" parent="QKRQY_yc0Inge7q_qlOR-59" vertex="1">
                    <mxGeometry y="26" width="230" height="26" as="geometry"/>
                </mxCell>
                <mxCell id="QKRQY_yc0Inge7q_qlOR-62" value="" style="line;strokeWidth=1;fillColor=none;align=left;verticalAlign=middle;spacingTop=-1;spacingLeft=3;spacingRight=3;rotatable=0;labelPosition=right;points=[];portConstraint=eastwest;strokeColor=inherit;" parent="QKRQY_yc0Inge7q_qlOR-59" vertex="1">
                    <mxGeometry y="52" width="230" height="8" as="geometry"/>
                </mxCell>
                <mxCell id="9hVN3hlwsKjAI1bXE_wh-27" value="decisionForm(): number" style="text;strokeColor=none;fillColor=none;align=left;verticalAlign=top;spacingLeft=4;spacingRight=4;overflow=hidden;rotatable=0;points=[[0,0.5],[1,0.5]];portConstraint=eastwest;" parent="QKRQY_yc0Inge7q_qlOR-59" vertex="1">
                    <mxGeometry y="60" width="230" height="26" as="geometry"/>
                </mxCell>
                <mxCell id="QKRQY_yc0Inge7q_qlOR-63" value="" style="line;strokeWidth=1;fillColor=none;align=left;verticalAlign=middle;spacingTop=-1;spacingLeft=3;spacingRight=3;rotatable=0;labelPosition=right;points=[];portConstraint=eastwest;strokeColor=inherit;" parent="QKRQY_yc0Inge7q_qlOR-59" vertex="1">
                    <mxGeometry y="86" width="230" height="8" as="geometry"/>
                </mxCell>
                <mxCell id="QKRQY_yc0Inge7q_qlOR-64" value="nextWeek()" style="text;strokeColor=none;fillColor=none;align=left;verticalAlign=top;spacingLeft=4;spacingRight=4;overflow=hidden;rotatable=0;points=[[0,0.5],[1,0.5]];portConstraint=eastwest;" parent="QKRQY_yc0Inge7q_qlOR-59" vertex="1">
                    <mxGeometry y="94" width="230" height="26" as="geometry"/>
                </mxCell>
                <mxCell id="QKRQY_yc0Inge7q_qlOR-67" value="Equipment" style="swimlane;fontStyle=1;align=center;verticalAlign=top;childLayout=stackLayout;horizontal=1;startSize=26;horizontalStack=0;resizeParent=1;resizeParentMax=0;resizeLast=0;collapsible=1;marginBottom=0;" parent="QKRQY_yc0Inge7q_qlOR-1" vertex="1">
                    <mxGeometry x="1320" y="230" width="470" height="328" as="geometry"/>
                </mxCell>
                <mxCell id="QKRQY_yc0Inge7q_qlOR-68" value="steelwork: { status: EquipmentStatus, deliveryType: DeliveryType, activity: Activity }" style="text;strokeColor=none;fillColor=none;align=left;verticalAlign=top;spacingLeft=4;spacingRight=4;overflow=hidden;rotatable=0;points=[[0,0.5],[1,0.5]];portConstraint=eastwest;" parent="QKRQY_yc0Inge7q_qlOR-67" vertex="1">
                    <mxGeometry y="26" width="470" height="26" as="geometry"/>
                </mxCell>
                <mxCell id="QKRQY_yc0Inge7q_qlOR-69" value="interior: { status: EquipmentStatus, deliveryType: DeliveryType, activity: Activity }" style="text;strokeColor=none;fillColor=none;align=left;verticalAlign=top;spacingLeft=4;spacingRight=4;overflow=hidden;rotatable=0;points=[[0,0.5],[1,0.5]];portConstraint=eastwest;" parent="QKRQY_yc0Inge7q_qlOR-67" vertex="1">
                    <mxGeometry y="52" width="470" height="26" as="geometry"/>
                </mxCell>
                <mxCell id="QKRQY_yc0Inge7q_qlOR-70" value="tbs: { status: EquipmentStatus, deliveryType: DeliveryType, activity: Activity }" style="text;strokeColor=none;fillColor=none;align=left;verticalAlign=top;spacingLeft=4;spacingRight=4;overflow=hidden;rotatable=0;points=[[0,0.5],[1,0.5]];portConstraint=eastwest;" parent="QKRQY_yc0Inge7q_qlOR-67" vertex="1">
                    <mxGeometry y="78" width="470" height="26" as="geometry"/>
                </mxCell>
                <mxCell id="9hVN3hlwsKjAI1bXE_wh-17" value="timeline: Partial&lt;Record&lt;EquipmentType, Partial&lt;Equipment&gt;&gt;&gt;[][]" style="text;strokeColor=none;fillColor=none;align=left;verticalAlign=top;spacingLeft=4;spacingRight=4;overflow=hidden;rotatable=0;points=[[0,0.5],[1,0.5]];portConstraint=eastwest;" parent="QKRQY_yc0Inge7q_qlOR-67" vertex="1">
                    <mxGeometry y="104" width="470" height="26" as="geometry"/>
                </mxCell>
                <mxCell id="QKRQY_yc0Inge7q_qlOR-71" value="" style="line;strokeWidth=1;fillColor=none;align=left;verticalAlign=middle;spacingTop=-1;spacingLeft=3;spacingRight=3;rotatable=0;labelPosition=right;points=[];portConstraint=eastwest;strokeColor=inherit;" parent="QKRQY_yc0Inge7q_qlOR-67" vertex="1">
                    <mxGeometry y="130" width="470" height="8" as="geometry"/>
                </mxCell>
                <mxCell id="9hVN3hlwsKjAI1bXE_wh-18" value="equipmentAtWeek: Partial&lt;Record&lt;EquipmentType, Partial&lt;Equipment&gt;&gt;&gt;[]" style="text;strokeColor=none;fillColor=none;align=left;verticalAlign=top;spacingLeft=4;spacingRight=4;overflow=hidden;rotatable=0;points=[[0,0.5],[1,0.5]];portConstraint=eastwest;" parent="QKRQY_yc0Inge7q_qlOR-67" vertex="1">
                    <mxGeometry y="138" width="470" height="26" as="geometry"/>
                </mxCell>
                <mxCell id="9hVN3hlwsKjAI1bXE_wh-19" value="previousEquipment: Partial&lt;Record&lt;EquipmentType, Partial&lt;Equipment&gt;&gt;&gt;[]" style="text;strokeColor=none;fillColor=none;align=left;verticalAlign=top;spacingLeft=4;spacingRight=4;overflow=hidden;rotatable=0;points=[[0,0.5],[1,0.5]];portConstraint=eastwest;" parent="QKRQY_yc0Inge7q_qlOR-67" vertex="1">
                    <mxGeometry y="164" width="470" height="26" as="geometry"/>
                </mxCell>
                <mxCell id="9hVN3hlwsKjAI1bXE_wh-20" value="equipment: Partial&lt;Record&lt;EquipmentType, Partial&lt;Equipment&gt;&gt;&gt;[]" style="text;strokeColor=none;fillColor=none;align=left;verticalAlign=top;spacingLeft=4;spacingRight=4;overflow=hidden;rotatable=0;points=[[0,0.5],[1,0.5]];portConstraint=eastwest;" parent="QKRQY_yc0Inge7q_qlOR-67" vertex="1">
                    <mxGeometry y="190" width="470" height="26" as="geometry"/>
                </mxCell>
                <mxCell id="QKRQY_yc0Inge7q_qlOR-72" value="" style="line;strokeWidth=1;fillColor=none;align=left;verticalAlign=middle;spacingTop=-1;spacingLeft=3;spacingRight=3;rotatable=0;labelPosition=right;points=[];portConstraint=eastwest;strokeColor=inherit;" parent="QKRQY_yc0Inge7q_qlOR-67" vertex="1">
                    <mxGeometry y="216" width="470" height="8" as="geometry"/>
                </mxCell>
                <mxCell id="QKRQY_yc0Inge7q_qlOR-73" value="populateTimeline()" style="text;strokeColor=none;fillColor=none;align=left;verticalAlign=top;spacingLeft=4;spacingRight=4;overflow=hidden;rotatable=0;points=[[0,0.5],[1,0.5]];portConstraint=eastwest;" parent="QKRQY_yc0Inge7q_qlOR-67" vertex="1">
                    <mxGeometry y="224" width="470" height="26" as="geometry"/>
                </mxCell>
                <mxCell id="9hVN3hlwsKjAI1bXE_wh-21" value="order(type: EquipmentType, deliveryType: DeliveryType)" style="text;strokeColor=none;fillColor=none;align=left;verticalAlign=top;spacingLeft=4;spacingRight=4;overflow=hidden;rotatable=0;points=[[0,0.5],[1,0.5]];portConstraint=eastwest;" parent="QKRQY_yc0Inge7q_qlOR-67" vertex="1">
                    <mxGeometry y="250" width="470" height="26" as="geometry"/>
                </mxCell>
                <mxCell id="9hVN3hlwsKjAI1bXE_wh-22" value="unOrder(type: EquipmentType, deliveryType: DeliveryType)" style="text;strokeColor=none;fillColor=none;align=left;verticalAlign=top;spacingLeft=4;spacingRight=4;overflow=hidden;rotatable=0;points=[[0,0.5],[1,0.5]];portConstraint=eastwest;" parent="QKRQY_yc0Inge7q_qlOR-67" vertex="1">
                    <mxGeometry y="276" width="470" height="26" as="geometry"/>
                </mxCell>
                <mxCell id="QKRQY_yc0Inge7q_qlOR-74" value="finishDelivery(type: EquipmentType)" style="text;strokeColor=none;fillColor=none;align=left;verticalAlign=top;spacingLeft=4;spacingRight=4;overflow=hidden;rotatable=0;points=[[0,0.5],[1,0.5]];portConstraint=eastwest;" parent="QKRQY_yc0Inge7q_qlOR-67" vertex="1">
                    <mxGeometry y="302" width="470" height="26" as="geometry"/>
                </mxCell>
                <mxCell id="QKRQY_yc0Inge7q_qlOR-75" value="&lt;span style=&quot;&quot;&gt;type WorkerType = 'labour' | 'skilled' | 'electrician'&lt;/span&gt;" style="shape=note;whiteSpace=wrap;html=1;backgroundOutline=1;darkOpacity=0.05;fontFamily=Lucida Console;align=left;" parent="QKRQY_yc0Inge7q_qlOR-1" vertex="1">
                    <mxGeometry x="2340" y="40" width="440" height="30" as="geometry"/>
                </mxCell>
                <mxCell id="QKRQY_yc0Inge7q_qlOR-76" value="&lt;span style=&quot;&quot;&gt;type EquipmentStatus = 'unordered' | 'ordered' | 'delivered'&lt;/span&gt;" style="shape=note;whiteSpace=wrap;html=1;backgroundOutline=1;darkOpacity=0.05;fontFamily=Lucida Console;align=left;" parent="QKRQY_yc0Inge7q_qlOR-1" vertex="1">
                    <mxGeometry x="2340" y="141" width="480" height="30" as="geometry"/>
                </mxCell>
                <mxCell id="QKRQY_yc0Inge7q_qlOR-77" value="&lt;span style=&quot;&quot;&gt;type DeliveryType = 'regular' | 'express'&lt;/span&gt;" style="shape=note;whiteSpace=wrap;html=1;backgroundOutline=1;darkOpacity=0.05;fontFamily=Lucida Console;align=left;" parent="QKRQY_yc0Inge7q_qlOR-1" vertex="1">
                    <mxGeometry x="2340" y="189" width="340" height="30" as="geometry"/>
                </mxCell>
                <mxCell id="QKRQY_yc0Inge7q_qlOR-78" value="interface Activity {&lt;br style=&quot;border-color: var(--border-color);&quot;&gt;&amp;nbsp; label: string&lt;br style=&quot;border-color: var(--border-color);&quot;&gt;&amp;nbsp; duration: () =&amp;gt; number&lt;br style=&quot;border-color: var(--border-color);&quot;&gt;&amp;nbsp; progress: number&lt;br style=&quot;border-color: var(--border-color);&quot;&gt;&amp;nbsp; requirements: {&lt;br style=&quot;border-color: var(--border-color);&quot;&gt;&amp;nbsp; &amp;nbsp; workers: Record&amp;lt;WorkerType, number&amp;gt;,&lt;br style=&quot;border-color: var(--border-color);&quot;&gt;&amp;nbsp; &amp;nbsp; activities: string[], // Labels&lt;br style=&quot;border-color: var(--border-color);&quot;&gt;&amp;nbsp; &amp;nbsp; equipment: EquipmentType[]&lt;br style=&quot;border-color: var(--border-color);&quot;&gt;&amp;nbsp; },&lt;br style=&quot;border-color: var(--border-color);&quot;&gt;&amp;nbsp; allocation: Record&amp;lt;WorkerType, number&amp;gt;&lt;br style=&quot;border-color: var(--border-color);&quot;&gt;}" style="shape=note;whiteSpace=wrap;html=1;backgroundOutline=1;darkOpacity=0.05;fontFamily=Lucida Console;align=left;" parent="QKRQY_yc0Inge7q_qlOR-1" vertex="1">
                    <mxGeometry x="2340" y="240" width="300" height="170" as="geometry"/>
                </mxCell>
                <mxCell id="QKRQY_yc0Inge7q_qlOR-81" style="edgeStyle=orthogonalEdgeStyle;rounded=1;html=1;exitX=0;exitY=0.5;exitDx=0;exitDy=0;entryX=1;entryY=0.5;entryDx=0;entryDy=0;fontFamily=Lucida Console;endArrow=classicThin;endFill=1;jumpStyle=gap;" parent="QKRQY_yc0Inge7q_qlOR-1" source="QKRQY_yc0Inge7q_qlOR-103" target="QKRQY_yc0Inge7q_qlOR-64" edge="1">
                    <mxGeometry relative="1" as="geometry">
                        <Array as="points">
                            <mxPoint x="2020" y="329"/>
                            <mxPoint x="2020" y="1247"/>
                        </Array>
                    </mxGeometry>
                </mxCell>
                <mxCell id="QKRQY_yc0Inge7q_qlOR-82" value="«page»&#10;Week" style="swimlane;fontStyle=1;align=center;verticalAlign=top;childLayout=stackLayout;horizontal=1;startSize=40;horizontalStack=0;resizeParent=1;resizeParentMax=0;resizeLast=0;collapsible=1;marginBottom=0;" parent="QKRQY_yc0Inge7q_qlOR-1" vertex="1">
                    <mxGeometry x="2080" y="190" width="160" height="48" as="geometry"/>
                </mxCell>
                <mxCell id="QKRQY_yc0Inge7q_qlOR-83" value="" style="line;strokeWidth=1;fillColor=none;align=left;verticalAlign=middle;spacingTop=-1;spacingLeft=3;spacingRight=3;rotatable=0;labelPosition=right;points=[];portConstraint=eastwest;strokeColor=inherit;" parent="QKRQY_yc0Inge7q_qlOR-82" vertex="1">
                    <mxGeometry y="40" width="160" height="8" as="geometry"/>
                </mxCell>
                <mxCell id="QKRQY_yc0Inge7q_qlOR-84" style="edgeStyle=orthogonalEdgeStyle;rounded=1;html=1;exitX=0;exitY=0.5;exitDx=0;exitDy=0;entryX=1;entryY=0.5;entryDx=0;entryDy=0;fontFamily=Lucida Console;endArrow=classicThin;endFill=1;jumpStyle=gap;" parent="QKRQY_yc0Inge7q_qlOR-1" source="QKRQY_yc0Inge7q_qlOR-86" target="QKRQY_yc0Inge7q_qlOR-33" edge="1">
                    <mxGeometry relative="1" as="geometry"/>
                </mxCell>
                <mxCell id="QKRQY_yc0Inge7q_qlOR-86" value="«component»&#10;Workers" style="swimlane;fontStyle=1;align=center;verticalAlign=top;childLayout=stackLayout;horizontal=1;startSize=40;horizontalStack=0;resizeParent=1;resizeParentMax=0;resizeLast=0;collapsible=1;marginBottom=0;" parent="QKRQY_yc0Inge7q_qlOR-1" vertex="1">
                    <mxGeometry x="2080" y="380" width="160" height="48" as="geometry"/>
                </mxCell>
                <mxCell id="QKRQY_yc0Inge7q_qlOR-87" value="" style="line;strokeWidth=1;fillColor=none;align=left;verticalAlign=middle;spacingTop=-1;spacingLeft=3;spacingRight=3;rotatable=0;labelPosition=right;points=[];portConstraint=eastwest;strokeColor=inherit;" parent="QKRQY_yc0Inge7q_qlOR-86" vertex="1">
                    <mxGeometry y="40" width="160" height="8" as="geometry"/>
                </mxCell>
                <mxCell id="QKRQY_yc0Inge7q_qlOR-88" value="«component»&#10;Assignment" style="swimlane;fontStyle=1;align=center;verticalAlign=top;childLayout=stackLayout;horizontal=1;startSize=40;horizontalStack=0;resizeParent=1;resizeParentMax=0;resizeLast=0;collapsible=1;marginBottom=0;" parent="QKRQY_yc0Inge7q_qlOR-1" vertex="1">
                    <mxGeometry x="2080" y="461" width="160" height="48" as="geometry"/>
                </mxCell>
                <mxCell id="QKRQY_yc0Inge7q_qlOR-89" value="" style="line;strokeWidth=1;fillColor=none;align=left;verticalAlign=middle;spacingTop=-1;spacingLeft=3;spacingRight=3;rotatable=0;labelPosition=right;points=[];portConstraint=eastwest;strokeColor=inherit;" parent="QKRQY_yc0Inge7q_qlOR-88" vertex="1">
                    <mxGeometry y="40" width="160" height="8" as="geometry"/>
                </mxCell>
                <mxCell id="QKRQY_yc0Inge7q_qlOR-90" style="edgeStyle=orthogonalEdgeStyle;rounded=1;html=1;exitX=0;exitY=0.5;exitDx=0;exitDy=0;entryX=1;entryY=0.5;entryDx=0;entryDy=0;fontFamily=Lucida Console;endArrow=classicThin;endFill=1;jumpStyle=gap;" parent="QKRQY_yc0Inge7q_qlOR-1" source="QKRQY_yc0Inge7q_qlOR-93" target="QKRQY_yc0Inge7q_qlOR-43" edge="1">
                    <mxGeometry relative="1" as="geometry"/>
                </mxCell>
                <mxCell id="QKRQY_yc0Inge7q_qlOR-91" style="edgeStyle=orthogonalEdgeStyle;rounded=1;html=1;exitX=0;exitY=0.5;exitDx=0;exitDy=0;entryX=1;entryY=0.5;entryDx=0;entryDy=0;fontFamily=Lucida Console;endArrow=classicThin;endFill=1;jumpStyle=gap;" parent="QKRQY_yc0Inge7q_qlOR-1" source="QKRQY_yc0Inge7q_qlOR-93" target="QKRQY_yc0Inge7q_qlOR-44" edge="1">
                    <mxGeometry relative="1" as="geometry"/>
                </mxCell>
                <mxCell id="QKRQY_yc0Inge7q_qlOR-93" value="«component»&#10;Loan" style="swimlane;fontStyle=1;align=center;verticalAlign=top;childLayout=stackLayout;horizontal=1;startSize=40;horizontalStack=0;resizeParent=1;resizeParentMax=0;resizeLast=0;collapsible=1;marginBottom=0;" parent="QKRQY_yc0Inge7q_qlOR-1" vertex="1">
                    <mxGeometry x="2080" y="706" width="160" height="48" as="geometry"/>
                </mxCell>
                <mxCell id="QKRQY_yc0Inge7q_qlOR-94" value="" style="line;strokeWidth=1;fillColor=none;align=left;verticalAlign=middle;spacingTop=-1;spacingLeft=3;spacingRight=3;rotatable=0;labelPosition=right;points=[];portConstraint=eastwest;strokeColor=inherit;" parent="QKRQY_yc0Inge7q_qlOR-93" vertex="1">
                    <mxGeometry y="40" width="160" height="8" as="geometry"/>
                </mxCell>
                <mxCell id="QKRQY_yc0Inge7q_qlOR-95" style="edgeStyle=orthogonalEdgeStyle;rounded=1;html=1;exitX=0;exitY=0.25;exitDx=0;exitDy=0;entryX=1;entryY=0.5;entryDx=0;entryDy=0;fontFamily=Lucida Console;endArrow=classicThin;endFill=1;jumpStyle=gap;" parent="QKRQY_yc0Inge7q_qlOR-1" source="QKRQY_yc0Inge7q_qlOR-97" target="QKRQY_yc0Inge7q_qlOR-73" edge="1">
                    <mxGeometry relative="1" as="geometry"/>
                </mxCell>
                <mxCell id="QKRQY_yc0Inge7q_qlOR-97" value="«component»&#10;Equipment" style="swimlane;fontStyle=1;align=center;verticalAlign=top;childLayout=stackLayout;horizontal=1;startSize=40;horizontalStack=0;resizeParent=1;resizeParentMax=0;resizeLast=0;collapsible=1;marginBottom=0;" parent="QKRQY_yc0Inge7q_qlOR-1" vertex="1">
                    <mxGeometry x="2080" y="543" width="160" height="48" as="geometry"/>
                </mxCell>
                <mxCell id="QKRQY_yc0Inge7q_qlOR-98" value="" style="line;strokeWidth=1;fillColor=none;align=left;verticalAlign=middle;spacingTop=-1;spacingLeft=3;spacingRight=3;rotatable=0;labelPosition=right;points=[];portConstraint=eastwest;strokeColor=inherit;" parent="QKRQY_yc0Inge7q_qlOR-97" vertex="1">
                    <mxGeometry y="40" width="160" height="8" as="geometry"/>
                </mxCell>
                <mxCell id="QKRQY_yc0Inge7q_qlOR-99" value="«component»&#10;Bid" style="swimlane;fontStyle=1;align=center;verticalAlign=top;childLayout=stackLayout;horizontal=1;startSize=40;horizontalStack=0;resizeParent=1;resizeParentMax=0;resizeLast=0;collapsible=1;marginBottom=0;" parent="QKRQY_yc0Inge7q_qlOR-1" vertex="1">
                    <mxGeometry x="2080" y="625" width="160" height="48" as="geometry"/>
                </mxCell>
                <mxCell id="QKRQY_yc0Inge7q_qlOR-100" value="" style="line;strokeWidth=1;fillColor=none;align=left;verticalAlign=middle;spacingTop=-1;spacingLeft=3;spacingRight=3;rotatable=0;labelPosition=right;points=[];portConstraint=eastwest;strokeColor=inherit;" parent="QKRQY_yc0Inge7q_qlOR-99" vertex="1">
                    <mxGeometry y="40" width="160" height="8" as="geometry"/>
                </mxCell>
                <mxCell id="QKRQY_yc0Inge7q_qlOR-101" value="«component»&#10;NextWeek" style="swimlane;fontStyle=1;align=center;verticalAlign=top;childLayout=stackLayout;horizontal=1;startSize=40;horizontalStack=0;resizeParent=1;resizeParentMax=0;resizeLast=0;collapsible=1;marginBottom=0;" parent="QKRQY_yc0Inge7q_qlOR-1" vertex="1">
                    <mxGeometry x="2080" y="268" width="160" height="74" as="geometry">
                        <mxRectangle x="2080" y="268" width="120" height="40" as="alternateBounds"/>
                    </mxGeometry>
                </mxCell>
                <mxCell id="QKRQY_yc0Inge7q_qlOR-102" value="" style="line;strokeWidth=1;fillColor=none;align=left;verticalAlign=middle;spacingTop=-1;spacingLeft=3;spacingRight=3;rotatable=0;labelPosition=right;points=[];portConstraint=eastwest;strokeColor=inherit;" parent="QKRQY_yc0Inge7q_qlOR-101" vertex="1">
                    <mxGeometry y="40" width="160" height="8" as="geometry"/>
                </mxCell>
                <mxCell id="QKRQY_yc0Inge7q_qlOR-103" value="onClick(MouseEvent)" style="text;strokeColor=none;fillColor=none;align=left;verticalAlign=top;spacingLeft=4;spacingRight=4;overflow=hidden;rotatable=0;points=[[0,0.5],[1,0.5]];portConstraint=eastwest;" parent="QKRQY_yc0Inge7q_qlOR-101" vertex="1">
                    <mxGeometry y="48" width="160" height="26" as="geometry"/>
                </mxCell>
                <mxCell id="3YxlM-aCxOGLGn3RMyvL-0" style="edgeStyle=orthogonalEdgeStyle;rounded=1;orthogonalLoop=1;jettySize=auto;html=1;entryX=1;entryY=0.5;entryDx=0;entryDy=0;jumpStyle=gap;endArrow=classicThin;endFill=1;" parent="QKRQY_yc0Inge7q_qlOR-1" source="QKRQY_yc0Inge7q_qlOR-105" target="9hVN3hlwsKjAI1bXE_wh-26" edge="1">
                    <mxGeometry relative="1" as="geometry">
                        <Array as="points">
                            <mxPoint x="1830" y="927"/>
                            <mxPoint x="1830" y="813"/>
                        </Array>
                    </mxGeometry>
                </mxCell>
                <mxCell id="3YxlM-aCxOGLGn3RMyvL-1" style="edgeStyle=orthogonalEdgeStyle;rounded=1;jumpStyle=gap;orthogonalLoop=1;jettySize=auto;html=1;entryX=1;entryY=0.5;entryDx=0;entryDy=0;endArrow=classicThin;endFill=1;" parent="QKRQY_yc0Inge7q_qlOR-1" source="QKRQY_yc0Inge7q_qlOR-105" target="9hVN3hlwsKjAI1bXE_wh-24" edge="1">
                    <mxGeometry relative="1" as="geometry">
                        <Array as="points">
                            <mxPoint x="1830" y="927"/>
                            <mxPoint x="1830" y="761"/>
                        </Array>
                    </mxGeometry>
                </mxCell>
                <mxCell id="3YxlM-aCxOGLGn3RMyvL-2" style="edgeStyle=orthogonalEdgeStyle;rounded=1;jumpStyle=gap;orthogonalLoop=1;jettySize=auto;html=1;entryX=1;entryY=0.5;entryDx=0;entryDy=0;endArrow=classicThin;endFill=1;" parent="QKRQY_yc0Inge7q_qlOR-1" source="QKRQY_yc0Inge7q_qlOR-105" target="9hVN3hlwsKjAI1bXE_wh-25" edge="1">
                    <mxGeometry relative="1" as="geometry">
                        <Array as="points">
                            <mxPoint x="1830" y="927"/>
                            <mxPoint x="1830" y="787"/>
                        </Array>
                    </mxGeometry>
                </mxCell>
                <mxCell id="QKRQY_yc0Inge7q_qlOR-105" value="«component»&#10;Funds" style="swimlane;fontStyle=1;align=center;verticalAlign=top;childLayout=stackLayout;horizontal=1;startSize=40;horizontalStack=0;resizeParent=1;resizeParentMax=0;resizeLast=0;collapsible=1;marginBottom=0;" parent="QKRQY_yc0Inge7q_qlOR-1" vertex="1">
                    <mxGeometry x="2080" y="903" width="160" height="48" as="geometry"/>
                </mxCell>
                <mxCell id="QKRQY_yc0Inge7q_qlOR-106" value="" style="line;strokeWidth=1;fillColor=none;align=left;verticalAlign=middle;spacingTop=-1;spacingLeft=3;spacingRight=3;rotatable=0;labelPosition=right;points=[];portConstraint=eastwest;strokeColor=inherit;" parent="QKRQY_yc0Inge7q_qlOR-105" vertex="1">
                    <mxGeometry y="40" width="160" height="8" as="geometry"/>
                </mxCell>
                <mxCell id="QKRQY_yc0Inge7q_qlOR-108" style="edgeStyle=orthogonalEdgeStyle;rounded=1;html=1;exitX=0;exitY=0.25;exitDx=0;exitDy=0;entryX=1;entryY=0.5;entryDx=0;entryDy=0;fontFamily=Lucida Console;endArrow=classicThin;endFill=1;jumpStyle=gap;" parent="QKRQY_yc0Inge7q_qlOR-1" source="QKRQY_yc0Inge7q_qlOR-109" target="QKRQY_yc0Inge7q_qlOR-57" edge="1">
                    <mxGeometry relative="1" as="geometry">
                        <Array as="points">
                            <mxPoint x="2040" y="807"/>
                            <mxPoint x="2040" y="1573"/>
                        </Array>
                    </mxGeometry>
                </mxCell>
                <mxCell id="QKRQY_yc0Inge7q_qlOR-109" value="«component»&#10;Activity" style="swimlane;fontStyle=1;align=center;verticalAlign=top;childLayout=stackLayout;horizontal=1;startSize=40;horizontalStack=0;resizeParent=1;resizeParentMax=0;resizeLast=0;collapsible=1;marginBottom=0;" parent="QKRQY_yc0Inge7q_qlOR-1" vertex="1">
                    <mxGeometry x="2080" y="788" width="160" height="74" as="geometry"/>
                </mxCell>
                <mxCell id="QKRQY_yc0Inge7q_qlOR-110" value="activity: Activity" style="text;strokeColor=none;fillColor=none;align=left;verticalAlign=top;spacingLeft=4;spacingRight=4;overflow=hidden;rotatable=0;points=[[0,0.5],[1,0.5]];portConstraint=eastwest;" parent="QKRQY_yc0Inge7q_qlOR-109" vertex="1">
                    <mxGeometry y="40" width="160" height="26" as="geometry"/>
                </mxCell>
                <mxCell id="QKRQY_yc0Inge7q_qlOR-111" value="" style="line;strokeWidth=1;fillColor=none;align=left;verticalAlign=middle;spacingTop=-1;spacingLeft=3;spacingRight=3;rotatable=0;labelPosition=right;points=[];portConstraint=eastwest;strokeColor=inherit;" parent="QKRQY_yc0Inge7q_qlOR-109" vertex="1">
                    <mxGeometry y="66" width="160" height="8" as="geometry"/>
                </mxCell>
                <mxCell id="QKRQY_yc0Inge7q_qlOR-112" style="edgeStyle=orthogonalEdgeStyle;rounded=1;html=1;exitX=0;exitY=0.5;exitDx=0;exitDy=0;fontFamily=Lucida Console;endArrow=classicThin;endFill=1;entryX=0;entryY=0.5;entryDx=0;entryDy=0;" parent="QKRQY_yc0Inge7q_qlOR-1" source="QKRQY_yc0Inge7q_qlOR-58" target="QKRQY_yc0Inge7q_qlOR-74" edge="1">
                    <mxGeometry relative="1" as="geometry">
                        <Array as="points">
                            <mxPoint x="1320" y="1620"/>
                            <mxPoint x="1300" y="1620"/>
                            <mxPoint x="1300" y="545"/>
                        </Array>
                        <mxPoint x="1320" y="396" as="targetPoint"/>
                    </mxGeometry>
                </mxCell>
                <mxCell id="QKRQY_yc0Inge7q_qlOR-113" value="&lt;span style=&quot;&quot;&gt;type EquipmentType =&amp;nbsp;&lt;/span&gt;'steelwork' | 'interior' | 'tbs'" style="shape=note;whiteSpace=wrap;html=1;backgroundOutline=1;darkOpacity=0.05;fontFamily=Lucida Console;align=left;" parent="QKRQY_yc0Inge7q_qlOR-1" vertex="1">
                    <mxGeometry x="2340" y="90" width="440" height="30" as="geometry"/>
                </mxCell>
                <mxCell id="9hVN3hlwsKjAI1bXE_wh-6" value="StoreName" style="swimlane;fontStyle=1;align=center;verticalAlign=top;childLayout=stackLayout;horizontal=1;startSize=26;horizontalStack=0;resizeParent=1;resizeParentMax=0;resizeLast=0;collapsible=1;marginBottom=0;fillColor=#fff2cc;strokeColor=#d6b656;fontColor=#0A0A0A;" parent="QKRQY_yc0Inge7q_qlOR-1" vertex="1">
                    <mxGeometry x="1320" y="-140" width="260" height="120" as="geometry">
                        <mxRectangle x="1000" y="40" width="100" height="26" as="alternateBounds"/>
                    </mxGeometry>
                </mxCell>
                <mxCell id="9hVN3hlwsKjAI1bXE_wh-7" value="state: type" style="text;strokeColor=#b85450;fillColor=#f8cecc;align=left;verticalAlign=top;spacingLeft=4;spacingRight=4;overflow=hidden;rotatable=0;points=[[0,0.5],[1,0.5]];portConstraint=eastwest;fontColor=#000000;" parent="9hVN3hlwsKjAI1bXE_wh-6" vertex="1">
                    <mxGeometry y="26" width="260" height="26" as="geometry"/>
                </mxCell>
                <mxCell id="9hVN3hlwsKjAI1bXE_wh-10" value="" style="line;strokeWidth=1;fillColor=none;align=left;verticalAlign=middle;spacingTop=-1;spacingLeft=3;spacingRight=3;rotatable=0;labelPosition=right;points=[];portConstraint=eastwest;strokeColor=inherit;" parent="9hVN3hlwsKjAI1bXE_wh-6" vertex="1">
                    <mxGeometry y="52" width="260" height="8" as="geometry"/>
                </mxCell>
                <mxCell id="9hVN3hlwsKjAI1bXE_wh-13" value="getter(parameter: type): returnType" style="text;strokeColor=#6c8ebf;fillColor=#dae8fc;align=left;verticalAlign=top;spacingLeft=4;spacingRight=4;overflow=hidden;rotatable=0;points=[[0,0.5],[1,0.5]];portConstraint=eastwest;fontColor=#000000;" parent="9hVN3hlwsKjAI1bXE_wh-6" vertex="1">
                    <mxGeometry y="60" width="260" height="26" as="geometry"/>
                </mxCell>
                <mxCell id="9hVN3hlwsKjAI1bXE_wh-11" value="" style="line;strokeWidth=1;fillColor=none;align=left;verticalAlign=middle;spacingTop=-1;spacingLeft=3;spacingRight=3;rotatable=0;labelPosition=right;points=[];portConstraint=eastwest;strokeColor=inherit;" parent="9hVN3hlwsKjAI1bXE_wh-6" vertex="1">
                    <mxGeometry y="86" width="260" height="8" as="geometry"/>
                </mxCell>
                <mxCell id="9hVN3hlwsKjAI1bXE_wh-14" value="action(parameter: type): returnType" style="text;strokeColor=#82b366;fillColor=#d5e8d4;align=left;verticalAlign=top;spacingLeft=4;spacingRight=4;overflow=hidden;rotatable=0;points=[[0,0.5],[1,0.5]];portConstraint=eastwest;fontColor=#0A0A0A;" parent="9hVN3hlwsKjAI1bXE_wh-6" vertex="1">
                    <mxGeometry y="94" width="260" height="26" as="geometry"/>
                </mxCell>
                <mxCell id="khsQaFMbxyDywQdgNuNI-0" value="«type»&#10;Name" style="swimlane;fontStyle=1;align=center;verticalAlign=top;childLayout=stackLayout;horizontal=1;startSize=40;horizontalStack=0;resizeParent=1;resizeParentMax=0;resizeLast=0;collapsible=1;marginBottom=0;fillColor=#fff2cc;strokeColor=#d6b656;fontColor=#0A0A0A;" vertex="1" parent="QKRQY_yc0Inge7q_qlOR-1">
                    <mxGeometry x="880" y="-240" width="260" height="100" as="geometry">
                        <mxRectangle x="1000" y="40" width="100" height="26" as="alternateBounds"/>
                    </mxGeometry>
                </mxCell>
                <mxCell id="khsQaFMbxyDywQdgNuNI-3" value="prop: Type" style="text;strokeColor=#6c8ebf;fillColor=#dae8fc;align=left;verticalAlign=top;spacingLeft=4;spacingRight=4;overflow=hidden;rotatable=0;points=[[0,0.5],[1,0.5]];portConstraint=eastwest;fontColor=#000000;" vertex="1" parent="khsQaFMbxyDywQdgNuNI-0">
                    <mxGeometry y="40" width="260" height="26" as="geometry"/>
                </mxCell>
                <mxCell id="khsQaFMbxyDywQdgNuNI-4" value="" style="line;strokeWidth=1;fillColor=none;align=left;verticalAlign=middle;spacingTop=-1;spacingLeft=3;spacingRight=3;rotatable=0;labelPosition=right;points=[];portConstraint=eastwest;strokeColor=inherit;" vertex="1" parent="khsQaFMbxyDywQdgNuNI-0">
                    <mxGeometry y="66" width="260" height="8" as="geometry"/>
                </mxCell>
                <mxCell id="khsQaFMbxyDywQdgNuNI-5" value="event(argument: Type)" style="text;strokeColor=#82b366;fillColor=#d5e8d4;align=left;verticalAlign=top;spacingLeft=4;spacingRight=4;overflow=hidden;rotatable=0;points=[[0,0.5],[1,0.5]];portConstraint=eastwest;fontColor=#0A0A0A;" vertex="1" parent="khsQaFMbxyDywQdgNuNI-0">
                    <mxGeometry y="74" width="260" height="26" as="geometry"/>
                </mxCell>
            </root>
        </mxGraphModel>
    </diagram>
    <diagram id="WcYr1WQ2SsBaHzOTBxlu" name="Design">
        <mxGraphModel dx="1734" dy="952" grid="1" gridSize="10" guides="1" tooltips="1" connect="1" arrows="1" fold="1" page="1" pageScale="1" pageWidth="850" pageHeight="1100" math="0" shadow="0">
            <root>
                <mxCell id="0"/>
                <mxCell id="1" parent="0"/>
                <mxCell id="bf-2ipx9rJfC0GrVDlnR-3" value="" style="shape=image;verticalLabelPosition=bottom;labelBackgroundColor=default;verticalAlign=top;aspect=fixed;imageAspect=0;image=data:image/png,iVBORw0KGgoAAAANSUhEUgAAAeYAAAKQCAYAAABKANmOAAAgAElEQVR4nOzdf3AU55kv+u9sqEPVVi43lGVKyg5LZs2qbdmOkQrqaIRjLnLQ2imUmBlEQDobxxici706EFDWZWvQstKMc50IVpTK1kmMcRyfkYiFJK/F2eOIRBTEaHQKjgSxjT05RhMfJtEUVq5SZO9WsZXU3D+6e6a7p+eXfs10v99PlQpaM939Tr/99tPv876jdgCIh8NhEJF1SZIEtmMia5MkCbOzs/izQheEiIiIkhiYiYiIiggDMxERURFhYLaY2x8G0bJ1IyTpYbx44VahizMvM++0QJIktLwzU+iiEJmYwcjfS5CkFozwFKUlJExgThcErv1gIyRpI3rel5ej/9yMjdJGtBdl0Iti+Fg7hv/XDIAoorf+HddOPAxJehhd//N2oQuXvz/KZb79xwKXg+zjTzMYf6MdzV9/GJIkQZI24iv72hH8H3OLrLdvA8DthT1H3+/BRklSypf8aT6zUNH/NiaPPwxJ2ong/1qgTdKSEiYwpwsCt/80A2AGsEJwuHUd1y4AKDmAU+EwureWFLpERMXj9jUE/+5reNwfxMiVqPLLGVwfDaL9G1/D429cK2jxEv4IsAOuUG5SNv6gSOqmSCwrdAGKjfNr3bj4tUKXIo1/u4VPAWC9E6uVX1Xs+TnCewpYJqIiET3ThfbRGWBdE7q/9yzq1iwH/nQL1wbasffwMMb9QYxsDaBuZaFLqth/CuGnKxdhw8tRuf/nCO9fhE0vNPUm5U8WzPgtInF6zDkyprzlVHcXRi724Kk6CRufH5FPpN+cR8/zO/GwJEGSHsbO509icjb9dm/9zyDa931FSWE9jJ3P92BkSj0Zr6FnowTp+AjGX34KD0sb0XrWcE/9fg82bmrBCAC802JIhSVT8fMu7yen8ZQkQTpyHmoyPzrwlCHVNoPh/RIkqR3n/w0AbuP62R60qunDjV/BU0eCye3PjKBFktDcdx6nD38FG6WHcfL91F1HB5qxUZLw8Anl7jlTmdNs8/bUMF5Uj3PdTrT2XQObvAiiGP9v5wEAu/+zEpQB4DMrULHjAL69EQBOY/LabaRvb7dx7Y1W7KyTz+GWEyF8+ifDbm5dw+kjT+ErG9U0+YsYnkqeYWnbXz5mJ3HykHwOP7z3RQxPnUePtlcZG0azJEH6++S2za9bhuvCxh6MTw3jxb1yO5W3rZRdbU8D4zj/cov8+TZ+BS1vXMOMYZ3zv9GUNZc2arLN22qZv94lv/f4TkiShPbRYhxCXHrC9ZhHDm2EdCjDGwwpbznV3YPm3crr99wGZs+jfcdTCCZaXBSTAy9i53Vg6Ce7UWHY5O2LL+LR3Sc1DTSKyYEuNJ//FD8804ZNK2/Lt40vN+Nx5R238oomyVT8vMu7pgLV9wDn+8Zx7blNqF4+g8kL8gVv5PIHuLV1E1bc+gCT7wDwVqPyz4Hom834yuHzmuJcx/m+dpz/8La8/T/exm0AI0eekm8sYDKkcKUHLc+PAF/rxOt7KrKX2XSb1xA82IKTqMe+72zHiv8vivH3ruMPuyqwPJ/DSRb0KT69CAB1qLjLWNtO3LUewEUgOvsHAObt7dboi9jrP6200+sY/n4LhnXbuYaTe7fhxSvq8gyuj55Eyy9vY8WZNmxamab9pXN8J6Tj6sIBnArvQyWu4eT/vTO5jwsn0XLhpPx/Y6/ytmbZ9LoF/XVhpguPP5pcJXrhJFo+vRN3vaVpT88/nmhPwHUM+7fpjkH0wkk89Uo1Lh3ZhBW5ttGUbe7FXfdfREP6IyM89phzVHfkX3ApHEb4WD3wP4YRnAE2PTck/+7aJXT/LYAr53HtE+OaMzj/zycxgxI0Hb+IcDiM8LWL6N5VAswEMayblFKHtjOXEA6H0f2oYfz4vn24eL4TdQDwSCcuhsMIh8M4lSZdNffyVqD6sQoAJ3H+8m1ACcIV91QAfecxeQu4/d44ggDqaqqwAtcwfPw8gE14dkAue/jSEJ59CMCVV3Fe2zO+Zzd+eFEu9751mt9f70frM1248bUAfnykHk4AM7mW2bDN258C+PQWlpdvwva/a8MPX6gHR+LJnLa9/QdMXgjq2+n4KTy7UfP298/j1StAya5uXLwWRjj8Swz5qoGZIMav6YOmtv3ldf59OI7hKwAeehZDl+R9XDy6fQE+q2z70Yv4ZTiM8KXXse8eAB8OY/xDzRtK6hE4cwnh8EV0e+VfOb2d+Pm1MML/vQ2bAKDvGq4jjzaa2OYlvP50BYAZXIvOoOSRToR/ckB+z/5TCIfDaKtdsWCf1cqE6zHXHb2omzQ1+bKEncczrKCouOcurACAzwA3puR7yPPf3YYN39W+6zZu/7txzZu4fhEAGlC3RdnvZ0pQtb4K6Bsx9BwrUPHXyon5mdw/08KWF6j4j/WowDW8ffUaDmAcQdShc08F/p9DXRh/7wCWj50EUIe69SXAzASuzwCorUPdfUrZV1SgshLABcOkujUVuNfkKnVr6hpuzQAzs8DyP5d/l7XMaqdIt80K7D4RQPS7/4SuvV9BV8ld2H6wG23eu9hjtr3lWH4PgA8nEI0BKNW+dh3XLsv/u6usBMAN5ffa9vbvuDULAFWoXKecUCtX487/I7mVmV9fk3vTfc3Y2Kfdfglu/+k2oDnLtO0vLbMx5tu3cQ0AKitRsUL+XCVOZ4aN5MfpLJFLuaIa1Q8BPR9e03W8sX4T/i/lmNyp7Hb7jno4PwPgrypQCUDNjeXcRjXbXHuXEwAnemXDHvMcrP7LOgDApudO4dI1ubcm/5xC018b370KzvUAcB7j48r4ye0oQhcmAAB3/vl/KLLyArinEnUlwEzwPE5efhvYuAmVWyrxVQBvXw5i/C0Aj9TBXQqg5E7cBQCj5zH+idLCZ8cxfh4AKrA8h4i4YssBtD1dAVxoRcuPrs2tzIrl92xH4McX8cvzP8Q+53Wcfr4H5zkFVgAVqKwrATCDru924XxMORdv38Lkj17EyxcBlOxD9X3ptyCfqxOYfE9up7dnb+DTPyRfL3HKgz4lu7px8Zfac/Ii2h5aoJ7eMsg97MlJXPs3AH+6jWg0av7eT67jxr8B+NMt3IjlNjYbjc7Icy5ujWP8AgBU4845Toabaxs19f/ekstlHNMXlHA95oVQsr4e9SUjGP7uTv2dYskBDF3cZxhjLoH70XqUvDOMnt0b0KN9ad0BbN+4+Kmb/MoLAJWobioBjveg62Wg4rkKOJffhU17gJMvd6EHQN0Wt5Kiq8Cmg5XoOjaC1rovolW7+a/tw1fvARDLVsL/E5V723BgbCe6vtuOnvWvY1/eZQZw6zzaG4ex/LEK3AllBjtWYPni3/tQEaj0/APqg80YvtKDpzb1GF/FgZf2oTrtjWIJqh6qA/55BMG/24Cg2Vvu2YQD67rQldJjrkf3xU7U5TtmohtjBiqeG8LQrmr8p3uArgsvYlvli+brrbwTd5UA+LAHOyuNnzOz04c24rR2js1D9ahegxzaaKr8rysmlBuRmTeewhffSM1oikqcHvMyuUUuN9yKLP9MCYCS5C2K4X0prwNAaR0Cb3Ri9yOV0CWZ7jRv9SWPBPDjo7tRt055d8ld2LSrDaf+yz5ULAeA5fLZWYLMKddly1NeN5ZvIcoLAJUP/SflvU7Ura8AsBwV/7FJCcabsOl+tfEsR8W3fohT39mO6r9WfremEtv3d+PHR+rk96vlNnaftcf6zyux+7kDqMQkur53GtezldlsmyucqPjipzj/2ot48fv9mFy+HW0DB7CJw1ZiKK1D55khBPbUoXKN8ruSu1DtPYDuMz/EvnXquWLe3kq2BnDqO/Vy0Cu5C/XfOYWh79UBWC6fo8srsO+/nMKz3mr5PQnJmz/T9mek9orNLK/E7mOd2P2Q0voe2o3uF/YZ3lON3S89i/q/lvd119Zn8frxfShBlusWgKYj6rbl9U59b7vcvkzak7wNE+pxm0sbNV6H76vHC3s2yeuv2YTquxiUAcABPvaRyPL42Ecbu9Ijf61oHt97VufSHPiJYeIlFRU+9pGIiKgIcYyZiKiYqanvz8z9uwWJtDSv+JbAVDaRDTCVTWR9aip7GQCsWrWq0OUhonliOyayB44xExERFREGZiIioiLCwExERFREGJiJiIiKCAMzgEvfX4mVK7+B078tdEmISG6PK3H0cqFLQsXi5sA3sHLlSnxj4Gahi7Ikijcw//Y0vrFyJVY+cRrJqriJ00+sTK0g9b3fv1SAgtJ8qA2u6C/El4/K5eQ5JlPbnOHH3hdO9frDm/jcJa/ZyZ+jYCvKrHgD8+cfwlcfA/DW27iQaASf4JO35P8NT2ke+PnbTzAMoP6v1oCs5CYunBkGHqtHPQD/OTZXy3nsFYRnZzGr/PzYO/+vbG34jrytQ+sXoHxUOL89jW+slLD3LR9GEufICHzwo443NxkVb2DGKqypAIBhfKJW4OUL8Ksvv3Ahcdd16ZwfQD2+6pYvCmoqLPUu/hKOrlyJbwycxtGVae58Ez0B9a7ukvJe5UfTg7/0fXn59PdF6C0sgt9ewNtvAb5nOuWbME2dAsnje0nTq175/Uv63pouo2KoK239pmRgDL0f5fWjl7XbUF67fBQrtyhn3gt1xd+7LwZqhkGpM7lNKm0qJfugHnP5dTWLoh5j0/MgUY9qm76k65kdvazPxujbZvY2nXLO4SZOPyFh71sAMIy99xrPPTK6FNyLYQC+s4ewIfHbDTh01gdgGHuDyhXW9Dqq7Wl/A29MpWw9bR3K9X4Up9U6tGCWq4gDM7Bhsw9Asid185OrAHzwPQ8AV5WAfROfXAPw2Ffx0OflSq57AfCdle/QwifqMbxH0jXM4T17cfVEGLOzP8b2z2v3eBOnW/diGPV45YND2IBLOLqyDn61V/DBK6h/ay8kbUW/tRd7r8mvL0RvQSRyw/XhofWr8NDWegB+XDAGvLf2om6qGbOzsxh5HnJgbAU6lbrFW3vRMnATUOsK6t15GK88Noy99+Z3Z+7f0o01H6h39sPY23oaN9cfwuxZ+VzE8yPszWXz29P4xhZ/4liF/6obdS/Mc5tv7UXdma8inFLvsuE9dfjkGbXeAP+WlWhBp3IeAMN7WpTzILc2rZ5z4RP1wAt1OHp5Fba/Jm8LqMcrH8xi9rXtYItP5xIuvAAAPjxkbCufX4N6ALj2SfLGxnAdvfR9CXvfUo7zbDPwwrBu21nrEH7s3fOAfC34zgZYTVEHZqx/CD5AqUA17bkGf7tZvuN6O3Qz0etCxRqsUk+Gx17B3yonwypvM3wAhs9cSJ4Ej72CTpMg+kmwBXvfAnxnlYCt9NDrtz4kN0A1va7r2dXjlQAbaP7UulqDNQBWub8qp7NfMvZC6vFKk9yw1vxVPQDA94x8vNV1hqc+SdbVib9V7s5XYfszmvMkV883Kzdra7DmMQBvfYJPsqwitLf2QjKMHd4MvS33lDYrNaG0wflJtrNEvRvatNzmlXqDD83eVQDUmz4l85Zrm1bOuVVrHgAAXP2EfeMFp2tb2uuoem2QO1vABvztifrkejnVobGnbi1F/ifN1Yvj27gQWINP3gLqTzyEVes/ke+Kz1zAzTWfJC8Cvz2Nq3Pe1zD8hrt6uYcODO+RsHLPnDdMZtI0ruG33saFwHZDJiM7ta5oiT32CsKGnuOlqeG0by80tukiotyUp9z4/vaTjNdxEeqwuHvM2rvdoHwhf2DNKmh7M2+c8yORLvn8Gjww533V45Wzr8i9ti3ynb96t1x/IpyY3CL/WPdOrFjI8wKUxrVyJVauTI7f5dXDVah1RYWnZjYWXcWavDNVbNNLRc1cmAxPKZN109Zfluu4CHVY5IFZk+J8QROAkRyT9GvSocAGPPQ8gLf24g3lZLg50A0/kunPjD6/HZ0n5O3Wff9SIpWuS5nRAkgOOWhn9M5+8EpqijJXal3teUNJZ93E6Zfkc6bZuyrZ2NX02eU3lBuBHKnjYpSVeuFMzA1R2mCCYYwx5XVTyng/kqnyOX0LY15tWp2QStmpQ0mG4Sl1/gF8GEk79qvJlCrzAt7Yo8nCCHBdLvrArLt7SgRgfQ8pkQ4FsOE78gQN/xZ53EvaMwzf2dwn66zydsoTPF6ow9HLG3BInVignQFowVl+xUS9EGvrDYDmK3LJG6vcKXUFP+oSPXAfRhJ30epsUOX1l9Zg5EQeofbz29GsTj7jrOwkQ9v4xsBNYP2hxKSplStXQpp6QD/GrN4AK+tKU83yxL6M6uGreFt+/55h4PmROU62nF+b3tD0Cuo5Kzs36w8lJ2apx/nevRh+7BWEM/ZuV2H7a8rky3tXYuXKbqxRspky+1+XHQDis7OzhS4HEc3DypUrUbztWDtjPv90o/xNi3q88oHxWxRE9qK24+LvMRMREQmEgZmIiKiIMJVNZAPFncomolwwlU1ERFSEHADi6oJ6x71y5Uouc5nLFltWFbocXOYyl+e37AAQj8cTsZlsyOFwgHVsb6xj+2Md25/D4WAqWxRszETWx3YsDgZmATgcjkIXgYjmie1YHAzMAuCdNpH1sR2LY8ECc6zPC0dHaKE2RwuId9q0eGLo3eFAYHwp9hVCwOFFbzTX9waw8FekfMqQZUsdDnj7Yjm/n+1YHCaBWW5o+ZwwVNzsfqcd6nDA4TALDiEEHPJrDocDjh29EOqsHg8kP7shmOQbFKwm1tcJX3st3Mr1zOEw+1mYAJulJMr+U/flfiIIDI3mfE6atmNdHdu7TkXCVLYAbHunHe2F1+HA6JYxk6cTxdC7owYTvdOIx+OIx6cRRBPKRMnqRHvhdfvgD8WVz9+CyEFRbkxiGB0ahH+LG0ApGt9Uj4F8niSPyQAanYtclOgoBvr98LcPYuAXhqPvdKGqfwCjOd4cpLbjEAJuYCyufJ6QH4ONzyzBzQYttjwDs+Hu0+Qip/ZeUu/ejHeuyTRTrM9r6M3IPR21BxTr88LbF0qsvzRpM/uwbY/Z2YiBeByt1SavKRfEll2lyi9K0XjQD7SNLkJ6s1h54EoEHjda32xEqdK2atqAwcYyXXuK9XnT9yaVm6DMPTNjmjc1+6Zv6xkyGuMBODpCieuJ2f7k8pqkq6OjGOjXfvYMDJ9Le23RHw/ztHjaMqiv/2IAg+21aN3ix2BK79iNWrOAnUZqO3ajNd4Kt7pYXQs/BhFhYLa8vAJzqKMMkYOau8+2Gn2QbKvB6Bazu7cYeneUoen+MWXdOMbafajJI7U42FiT2LfphZjSsm2POZNoBIMNLri0v3O64MGEGBcuZy28DYNoWm0MGm60xuMYawc8SjahtRrAeABljVWJ3td0L9B0UBNAVzehSu1p3ggCpj0zY6CJIAKPLl0b+XgQnm21yg1CloxGWw0618qvDyRusGSxPq9SXk1gUkUjGERVDoE5hMDqCFo0PU6fWzle0V48ozkecZP9ZCyD/I5kz726Fv7+Jrxq6FS41now+HEkW0EB5NCOoxFMIMcbEipqeQVm92FtUHTB1QBMRDShtX0s+Xr1kwg2KI1U6b2MHU6evu4ngvDkkcbRbZvyYtsecwaxyEShi1Bgcgp3rN2HmhzGU0NnffD0PpkIMKW7WuBX2+f4KHwNQTyptj9nI1rS9PRcaz3JnuH4KCa2tcCLCOTQE8JomwfeL5UmtvlSpoyG7nWNXwQyBsRYZAIw3pSZMvQ4U27cfBhNl53LUgYAwPiraOr3o7Za3ldtO+A7q79NKnVVAe9FcuqgZGvHodeaMNjesvjpeVp0eaaytamnMjT1Z3pvKVz3K/+NRjBofNnpQlV+O6c5ErHHXOpKd3bl0pOyD/dhTQ94dbrgHEPkvWRqW/6pgU99NTIB9DehTJPyrWkz31/pl7zw9MuBOBYBvF9yw3W/EuDGR+Fr8KLWmebGyemCJ+snGkRToy/HwJsD7eSp1U3J65SzEQM3gphwm6XScytD6KwPaK9NBG73lvkNpWRqx7E+L2reC2L6cNrbBLKQPAKzyWSahszvj7yn/NeswUUjEL1Ps1RE7DEDAPrVnprCLL0tiNJdLRnGH+WbaE+ibesnR5W6qoCGIKZ1r6WmlwEoKXQfRsdjGB0CXE45IPnOhhCLTChp7DQ3TmY38Ck8CN5YoIl80V543RMI3kim6HXXKWUOg5y6L9MM2+VShhBG2wC01SQDv9uHjL3wLNK140RK/c1GmNQIWVAegTmCSD9Q5VKqPjqKAWOPWTvmPP4qmvqVtJXThSr40Km56wy91oRB5e651FUFaNLaoY7k3TrNn4g9ZnkijPaci6H3mC8RGOxOnjCp6eWNj8IHNa0q045tutZ6MNj4qnlvzumCx2R81Fwpard54Dv7KiJQboKcLnjeG8WrQ5CvB6bblOtH28PMtI/GN+U5LmaTwuTrieGmzIxhLDr2iwHzGwOnC1UpY7eZyxDr64QPfs0YtTq3BvAdS86tiUUmgPtdOZ2TZu041OFA2ZAX05lS6mRJcb3peLABcUD744kHb8Tj8ZBf8zt/3N+OuKd3Wl6r1xP39I7p1vWHtNsdi/u122wIxqe1r7YnX1O3o64/3euJo30sTqRzIxj3wHiuas474+s2Poeyt2OlDas0x0bXznTH0h8fM3m//jhP69qq9r3qtSFRFkObz1g/IX/q++Njcb/2cyjr668z6u8Nnzexvv792usO2v3J7euuddrPkksZ5M+bXCd92cba07wvF2nO/9TjRlYBID47Oxvn06UEwKfS2B/rWEv+FkjkYLF/g0OemY5QbuVkHdsfny4lEDZmEouaTi/yb6ybDC9kwnYsDvaYBcA7bftjHRuFEHCMoraIx15DHQ50rp02n0RngnVsf2qPmYGZyAZ40SayPqayBSLkrGwim2E7FsefAckK57/2/FdV6HLwX/7Lf9mO+W/2enaAqWzbcziY5rQ71rH9sY7tz+FgKlsYbMxE1sd2LA4GZgEYU2FEZD1sx+JgYBYA77SJrI/tWBxzeLpU5sfHmb0v1ueFY45/cD7U4ZjzuiTjnTZZVcrf/F7A7c7/upLr9XBhsB2Lwzwwax+FluOJF+vzwuEwPpSdigHvtEUUQ+8O4+MKM4j2wjvP9rvw14AQXm1UHnyhuyYZfhbtxl0+hvr9aT+fG0/2wvS51IvBtB0bjsti3MTQ0ksNzNFeeN0++EPqE1FaEDnYm/VB3qW7BhAv4r+yIzLeadNSWPBrgOb5zahuTTyhabrXo38M5SI/g1j7OMyxdh9qdiSvh6WuKgwOjWa9Pi6E1HYcQsCN5BOsQn4MNj6zZD14WjxpUtnaR5y50ZrmOZ+6O+TxABw7sgfw5HppeuTaO8Advdkf3UZZscdMcto1gFC0F15N+4pBaY+rmzAIH2o0v5fXMe+ZyinmUKJHGRiHyTXAsL72tfEAHB0heagqTU8vdNaX8yMR1e2k7MdQBvMepfyeXHqb7i1+/SMlq2vh1zyydjGltmM3WrU3QtW1GZ65TVaSGpidtfA2DKJpdeaUVOLh3PneIY8HlPXUu1+g6aDmQqDtrR+MoKktr89DJthjJpkPNQeBl+JxxONj8Pc34Zm+mNzTvRGER31+8JuNKEUMvTtqMJHoLcrPHg5onsk82FiDyEG5raY+HUl+clJy/WkE0YQybdq5rQada+XXU/9edAyR9wDPWlfWTxXr8ya2o+7nGSXIhjq0ZTDbT7KcufzN6tBZ4zOjXXA1LE0wzNqOoxFMpDw3mqzIpMdcisY3lZRNujHmXwTmFpQhn9ie3icT65XuaknecY6PwtcQxJNqI69uxVh7njugFOwxk8yD4DE1++VGbTsw+HGanFR0FAP9frQkgpUbT/YantjUPpb+cYVKW34psX4pGg/6gbbR5A2/7nWjCCL9QJUre7As3TWgCaqlcN2v/1zpU82RxM1HpqA82FiW6HHXtAH+Ldqrnry/icjiJ7OztePQa00YbG9BIwOz5aWdle0+rOnRrtYG50E0NfqABhey38sayXfB2hPd4aiBT301MpH/J6Cs2GMmM661nvQvRiPJ1LbyU9Y4mPO2Tduy04UMe5wH/SStGk2WzX04jrH7m1CWMnELQFsTmnII/tox5viNICbcDl3mYKlkasexPi9q3gtiepHH22lpZP26VOmuFsO4hQfBGyZpqZzId5e6Ez0eRzw+gEanPJGCFh57zJQ3pyuZ2tb+5HjhN23L0QhyD+25C3WUoen+Mc0ELf3raifDOHEL7WOIh/zwufP4ypOzFt6GpekhG6Vrx4lhxTRzgch6UgJzyvcGTR/mXYrGN+Uxp3yn57vWejDY+Kr5+LXTBU9/E15V70bHA7q7X5ob9pgpNxPJG3CnC1XwoXOuX78xtmXE0HvMOD6biQuunAKgcSw6hNE01wzXWk/qZLLqViUrmOPXvKKjGND1suX955Jyny+zdhzqcKBsyItpfiPGVlICc+mul+Ad0qSa3RMI3jCrdDdabwSBxrK80jqluwYw3TuhS5ElUkzORgyE/PC5ld+frZW/GkHzwh4zZeVsREv7IJpWq7Oa3WiNj6FKN+yUx/dknY0YUNK+8rpKrzbnVGvqWHG69zUek69D8n46gXb1mqFPcZc1VmHMZP+luwZSe9MauqG31U2oCmknu0UQ6V+aCVcp7Tjai842AP1qqt5sVjpZEZ8uJQA+lcb+bFnH4wE4jrkwXcwp2vEAHG7MaSJsvmxZx6TDp0sJhI2ZLGkJvyM8V6lfn1o8bMfiYGAWAMeYyZqW9k9e5i+E0TYPgk8szegu27E4mMomsgGmOYmsj6lsgfBOm8j62I7F8WdAssL5rz3/VRW6HPyX//JftmP+m72eHWAq2/YcDqY57Y51bH+sY/tzOJjKFgYbM5H1sR2Lg4FZAMZUGBFZD9uxOBiYBcA7bSLrYzsWR96BOdbn1T0wnYof77RpUUV74V2EPwO5UNeaUEcef0q0iLEdi8MkMOv/vqz6s5AndgACP7gAACAASURBVG4NLoRADvuN9XmR8jg30hHnTls+ZxLnrbB/M9i8Dcs/8pOU5Hajf033N+/HAynrpBN6rQnYVotS3TqGn0W/mTd+5mSZ3U8EgbTPZLYO03ZsOOZ2uAGhDD1m46MZMz1IfHG40ZrDfkt3DSDOJ6tkJMqddqijBgip5+wY/P1NeEbIC1UpGt/UHAcA/pD+EasAgIYgptU2rn38YbQXXrdPs04LIgfT3eTIf/3K+6VSoLo1cb2Y7vXot7+ozwkOIeAow8A27XOTvRhQy+x0oarI/7RnLlLbcQgBN5KP5gz5Mdj4TO6PsKSiNe8xZv2dt+HOOtoLr+41+a62rHEQaKvR3OHF0LvDi95x9f0BhJQ7YO1dvG5fam9oPKDvGen2qV1f2UdU26sSo6ctSo/ZfVj71B83attzeToRAZD/LrXhuevJJya50ZruQRLjo/ChKqenK4U60mczMr2mvCNtBi3UUQNf+5j+Jt7ZiIFEmd2obR8s4j/tmZvUduxGq7ZTklKHZFXzC8zjAflRaom7ZKApcWcdQkB5RFriDva1CBrfVO6m28cMPfFBNLkjaInHzXvAxn1tG9A861UVQmC1ug21F6ANvoNoWj2K2ngc8fg0gg0+1AgwXi5Kj1nP+Jxeykj73HVnLbwNgzk9ozgWmQAaXMh2lGN9XnSuVXu00whCk80YD6DmPU3vOuUmIISAowYTvdMmGTS5nv1bMvfIXWs9lr9Jy9qOoxFMYGkeQUmLK21g1j2DNE3PMnTWB0/vk4kgWrqrJfk0mPFR+BqCeFLtwTgbMZAlneUPpU9Jp+5rQNM7UhnuIJ0ueLQPf9ftoxS12zzAexHLjz1lI0qPWWf8VTT1+9Gy5EMwFqJ9jq9b+5QkORU+1u5Tnpuefow58vEgcL8r62MZS3cNaIKqybOW06aaI+jdkS4oy69H+rPsHECpq8rybT1bOw691oTB9pbkUAVZVo5jzGYBU75T1QfwGvjUVyMTC1hMeV850U6GWN2EwQxvLXVVLUThip5wPeZoL7zuCQRvcO5BRtox4Pg0gu/V6CZpuQ9rMmGrM08Ay04/OaumTfNSdSvioSo0rTaZhNbWhKZ+oMrFG6xM7TjW55WzDos6lk9LZR6pbPmu1zhJTJ1csrBBT95XVokLspo+D8KzgKWwKqF6zNFeeFc3oSo0wJ5DXtJnkEp3tcx77DLUUYam+8cS14mxdsMb1Ilj2klogDzkZfydjjyXwHfW/kNS6dpxrM8rD/OlmwdAljOvMWbXWg8GG181H4dyuuDpb0qOA0d74dWO5+aZVjLuK9bn1d9ZA0A0gkHNRJTYLwYy9phFIUyPeTwAx+oBeG/ETYY5KLMYRofktDT6vPpJVtrxZwPX2lyGg4zj/SGMtqV5q9MFj3EyWXWr0ms3H1JzPxGEp61GX2bDd6tjkYmcUu7FzKwdhzocKBvyYprfTLGVHMeYzWdDlu4awHTvhDIOZRiPdjZiIOSHz62mlQfgVR4oLo9Fy+NbuX7vrnTXgGbMSz4ZnzReKKpb9e/5uAr+XI+EjYnRY46h95gP8gQ/8++zkoF2jNmh9GgPu1G66yV4hzTtP8OwQKmrCuiPIPO0qlI0HgsCiWtKJ9CezGXpvm2xuglVJnNNEu3fbMa2sxEDN7TbV643x5I9yMjHg5afCJjSjqO96GyDoR5F/v6+ffDpUgLgU2nsr3B1HELA0QnXjWIeOpBndSNk7UwK27H98elSAmFjpsVjge8IZ0jFWwnbsTgYmAUgzBgzFUSx/8lL41ctrYrtWBxMZRPZANOcRNbHVLZAeKdNZH1sx+JYBrDCRcA6tj/Wsf2xjsWwDOCkAiKrYyqbyPrUGy+msomIiIoIAzMREVERYWAmIiIqIgzMVjQe4J/dK5gQAuqfPhTgWd6LSz6WKX/z3kSsz5vxnA91ZH5EbbGK9XmL5jwKdeR6Tmeut+SfWOWfw52rBQnM5o1GfsybWnlyZeXYaKK98ObTwKK98Or+XndujT2TUIf2b86GEDCcZNkuFIWkL7vFmZwLuV9AFl6srxM+9XGJh935nddFJ80FVnvjp7StXNtTqCP3v38v8+gfWJF4PKTJRT3dQyiivehs8yhPlePDHOYj+ffE9Y/pTD3HjfWmCuHVxkH4Q8knDVL+li3Vjkp3DSC+a5E2Ho1gEH6MqY1yPACH2zGvv43rPhxHpjmui/p55ilb2a2u4J9PEyCK+TxYEM5GDMQbF2njLrgaNIvjAfmBGaEgPP0DuneWuqqAjzNtqypNoKBcudZqHyzyDAa2TSP+ZinkIF2Gmo5axA+7kVJvKdIFbcrV0qWydenXEAKOAELanq7yWqzPC8fqJgxCeUqUus54IPeecPWTCDYAExH1zl2Tfkx5+or+NfVuP5FiGg/A4aiBL+WpRep25DtLfS9B3xNJptkWNtUW0TyVR7t/XXpsPABHRyhRBt3ny/sJTOnrTbfvNNvVv6Ytj+HuXCl7yrngMLxnPJByPHWZDEMmJb+enJFcxrLGQaCtxuQ80Bwf5VxdnHIsNX22KKY8ElJ7TsvnuXzO17Qln0wn/16p21wyONWtefeyUs4R7bljmkGLoXeHF73jap2YtMc5tJl053ZqZi1L+l49d1L2kebc0h+NDL3cXNZPKt01gIFdidvPtM/qTi275lqpaxfm11/5fAolym16XNK0H2NmUHvdMztPk+0uzTmQoZ3q6zd5XHXX9gXOUsbna7rXE0dDMD6t/2082IC4P6Qshvya94zF/UDKsqdX2cKNYNwDf3xMu7mQPw5otpfymvb98r7l7Rm2rbyGdvndY+3a1wyfqV3d4ljcD088eMP8M6d8fk15jK+NtUOzXcP2gNQfk/eqxyJR7pA/Dk35dGU3vtfkeJnXn5ks9ZZpu4Y61R73sXZtvcrbTCybnAvJY2h4r0m967ejr0PtOmbH3uxc058X8SzndbrPY1aO+ZlbOzYeP0XKZzKcW5p15GXzelXeIR/fnM4vRb7HyHCOGMukbx9qfRuuL1r5tpkM53Zq29Ifc935dCMY92jeq1/X7NzS0l/X1HLkvn5m6a5bJu80XCszX3+N55P59tK1H822DedMynZ1r5udAxn2YxaP4nFDO1kYAOKzs7PxhesxG58J6ihDU3+mFTwIJp6X6kZtOzD4cYanula3Ih7PMTU9/iqa+j3wfqlUfrJMQxAvae7+Gg/6gbbRxF3P4Dz/AH/pl7zw9A9gVLm7DZ31Ae21cCsPn/cfTD4XVn6o+2jKXXrprgHE4/HUn8NpRsy0n6m6Fn4MIpKu16v7/Kl/1F9+Pnay/Jmlr7eM241GMNjggjqC5VrrSaznPqytVzlNlsx2ZCLv33dWOZrRUQwY6j3xzG5nI1pMn4JUisY3TY57rudaCu3xQR7lKJzEM9PVH7cv8wrtY4ljU/olLzyYSH/uqcf3zUbz8eEFp7Q57TOdq59EsEF/zP0mz3zWyafNZDi38+JsxIDmOKU+69pwbmlFRzHQ78eY5nrhfiKouy5lXD8TdQz/iTmM3udw/dWeT+nWN28/brSG/BhsfAbeg01A70v6bIt2u85aeDOdA1nbqQ+jZr35nK+b+Vm4wKxOiEn8TCOYcRxCTzu+MTeadKd7AkHl+bCxyETqW50uqHtzH45j7H71pmKOaWZdpYcwmjiJI4j0Gy58q5swOOfPmE62MR+tGCLvJdON8k8NslyK0+85UW9Ztut0wZO4yMgXz+REE22qK9sNnZ57S7KRx34xgMH2lmS9G24Wa9rm+CHnoVjKkYk8UUfzE/LnvrLTharFK9ocyG1OrxSu++ezzfmc23nuSZsyzXaDpBWNpF5XFqRuQgisbkJVaG4TubJdf3NaP1P7UW66Bvv9aNmV6ZYj8zmQcT/ORgzcCGLCbUhxV7ciHqpKDHHOd8Kxlo2+LuXHWOLikjyJSl0mp6bhJHYfltcba/ehZk7jBPJd4ODQKGLjo/A1eFHrBNSAmXLhM5k5ajZGtThfyZFPUE/vtKFM851BmWW70YhmrLgMTVDvomPo3VGDicR6+d3QyQ3Th9Fxpae0RT6ypa4qk5vFuGbcTGUclzMbl5zHUcm5HLQwzG5S5cA6d3M9t/M0HkBZY1XyOpbnDVJKsItGYBIW8xBCwCG3zblOos3l+pt1/QztJ9b3DJrgh7/Bh86MczcynwNZ26mzEQPxOOI3gkBjWfLaoGRy4yE/fO6F+3pYEQdmQ3osn8lfWk4XPP1NeFU7+eOYmmrWc631pP9KRqZUMSCnk/sH8MwxHzzbapVtyA3adyx7sM87lT0PrrUeDDa+miY7YDaZbf7bjUUm9Be2RMpO7uFUuZSjHh3FQEqPJ3OqtHabB75jz2Cg34/aRCrKWO/p11/YVLZBxnIoNwVF8j3WhaJP4+Yx+WtBmLQ57dDWHM3t3FbT0Zphro702alYZALQpMRDZ/PoMTtdqII+OIVea8JgopOQp2gvvI4aIDTPm8g8rr+5ra8VwquNQPBYK1qPBYHGZ/SBsa0mGS+ynQO5Xi+cLlSZzTp3uuBRvxkwHshjQq254gzMSn5fP7Nv7tvSpiEcjjI03T+mBDx9b6mssUo3RpPkxpO9HiUlnS7d7UZt+yAGDZWvT5Uvzuy9fJXuGsB074RhpvP8Z4tn2m7prpfgHSozyQbI40SJdP/qCKraNRvN4VyQx/gHMaht7Cn1vvDpppwUSzmWiDyHomZun1GdMby6CYOJb0Hkf4FLaXOaoa25mtu5DaC6FWPtyW90dK4dS5sRKt31EoJIlrsT/pxTvoAbrfExVGnS7TXvBTE9x7H90GvykJtx/kH+HaNM19+5rJ8sR6ijBj5l6ArORrzUCzQd1Fwj2oNwHUsOC/gzpeMztVPdTPkaTChj2bos5+omVGWbt5AHB+TZnAu0ObK88QAcx1xzbtDphDocqIG2QcrfjYwcXKCeqeAcDj5dqlB4bhefWJ8XZR+3LErGcTE5HA7Mzs4WaY+ZCiZ01qebRb4w5PEd/YQYs0k6RFbDc5sW3pL95S+yBvfh+CL8ScNSNL45hoijDA7NH5Hyz+MvsxEVB57btPCYyiayAaayiayPqWwiIqIitAyQozQRWRvbMZE9LAOAP/zhD4UuBxERkdD++Mc/AijW7zETEREJioGZiIioiDAwExERFREGZiIioiLCwExERFREGJiJiIiKCAMzERFREWFgJiIiKiIMzEREREWEgZmIiKiIMDATEREVEQZmIiKiIsLATEREVEQYmImIiIoIAzMREVERYWAmIiIqIgzMRERERYSBmYiIqIg4AMQLXQgiIiICZmdnsQwAwuFwoctCi0iSJHS/e7jQxSAiogyaH+wAwFQ2ERFRUWFgFgB7y0RE1sHATEREVEQYmAWgjltQcYr8qAPND/bj8k0AN9/HiQc70PyjaKGLVSBR/PTBDjQffh+3Cl2UpabWfdbP/q+4fFhzzsxrW1SMGJiJlsCtn/Wj+cEOND/YgZ9+UODCfPCuXBZhg7+eWjcnfvavS7hX5QbkwXcRKaptUTFYVugC0OLjGHOh/St+df4jYPPdeODcRzhzKYq/uddZ6EJRsVl1H/a8e18Ob/ws1nccxvoF2RYVIwZmosV289e4cg7Y+oNHcQc+wtUTv0bkm064clz91s/60Xrko+Qv9jyB7m8mA3vkRx04diL1Nd3vcTceH2zA+k/fRfO3zsm/OvEamk8AW39wGH9zb+p+1N9rydtUtrUKcu/7W+fwwJFvY8+XPwu59/YazmAzDr77IFyJZUM5VkFOt3qGsPrINtw4MoSr2IyD737B/LMrnyt9GeX93DiyDauPDOGMsp87/sX82Jgd26tH/gnNR5Ll0x8/aD6j0b/i8uF/wuvn1GX1s6fuA5u3IdDxOYQSx+Qcjj14Tr+5PU8g4Ayh9chHun1qj738ue7G44Nu/M6TeVvqZ05/7PTlT/85aakwlS0AjjEXVuRf5KBTfu9nUb7pbgDn8Ksc09nqxfSBI99G97uH0f2DzXJAVdLQavDY+oPD6H73MA7iNfz0A/n3P3cq67z7BLbiI7ze/T5u3fugvA1Avmi/qw/Kie3sAc58K3UM8w7n3QA+wu8+Vco3PQ0AuHr+1/JY5s3f4wYA7PmCJihvxsF3D6P73W/j8c0f4XWPfrtnjgxh9Q8Oo1sTzAAAN9/Hm0c+koOZJihnKuPVI0O4ceTb6H5Xvgk5dgKJYxdw/jrl86z4cgMCR+4GoL5PH5TVfQWO3I2rR/7JJN0tB7Xf7ZTf1z24DQ/gHI4p9WOsv8CmD/Hmzz6Hv3n3CWwFgMSxUddVyvXFe/CA9rgiil+dALD5HpSv0u7fmXVb2nKYHbtbP/vveP1c8rM+HL3ClHiBMTATLSr1gvo53IHkBffMqVwm5SgpcGzGw2oP5t51eHwzgBO/RiSx7W1wKz1b1zflQOv65mFNr+dzuGMzgHO/x++y7Kdc3c6GzQA+wpVf6gNRovyXoon1tu7ZnNz2p7/HVQBbNziBD36NMwAeOLJOCbifxfqdJtvd80RKzxz4PULdSi+64z6syLWMm7dhh6G3pwa3FV9+UO6pZ5V6XFd82Y2t0AZKlZxWTpR/1eewGgCu/x63TOpvxZcbcuuNrvoC1m0GcO5D/Oomksdy0xewIpePoJPbsZPrFHB988Gcszm0OJjKFgDHmAvIeEFVLrhXz32IX928L0ug+D1+dy7Dy2rv1PQ1OU18NadCqvsxSYUaqeW//nvcAvC7c3fjjuYvYOuJ1/CrDx4ELp2DGgBu/Ww6p72bOndOk/7Os4yqex/EwT3ncOzEEFofHIIxxZxWpuNq5gPN8IBpmedCya6ck7MTcmbibqz74lxSzJmP3YovP4rHz3+E15WhDTndft8cbgBooTAwEy2iyCX5QiiPX2pfkXsr6zP2ntSebpqXld5ZavCN4qeeIVxNXGCNY6Dp9pNL4FICxpEP8asP7sENlKF81eeAzcCV6SjuuA4ljQ2grAzARxm3ltbmbTi46UMcO3IOx370BXR/M1sZf2+6Gdc3D6P7m2oq9xx+/rN12XusaY+riZvv48S3zmnGcrVj6lnqLws5O/ERzlx6H3dcl1P65Tn1+I2y1686mUxO4Q8h9MF9JlkMWipMZQuAY8yFkkyJBtSxP834X2pa1Cg5Jv1zdWzzgyt4/ZyaHnaifA+S6U7IASjl61jK5LOEOz+nG3/U7ieXsW81YFw59SGu7vkCXPgs7rgLuHo+JE9y26BMsLr3C3L694g6ZvmvuHxK7lE/nEM6944vP6qk7V/DTz+Y2/i8Oia8oqws/edJeU09rkMIfaBuK4QzALbuzNKTVDIkMpMyf/CuUiYlWGaiprNPDMl1njaNnW1bmY9d5EfJr/DJcwio0NhjJlok6sU85YKaSGfLPZPyDNtY8eUGHIx24Jimx62dNev65rfx+PV/wuueDrwOyD23LzuBH2zGmW+pKdy7sXXP3biqzjBedR8e3jOEq9pZ2ep+vtVhPoNaV365R3nm3Ed4YNOjcjk2bAZOnMNV3I11d6pvdOJvBrfhhmdIk0LNMZ0MAPgs1jdvw5VzQzjzrXdR/m4eZYScol13WJOp2POEeW/53nV4fPM5vK6dla0eV82+zGapY9V92HHkQ1w9oqSBsRlb9wBnrqtlMJR58zYEOuQyrN+5Ga+fU9LLe55A91dSP7+azs6cxv5s1m2llEN77L75BH71YAeald8+cOTb7C0XmANAXIynS02iR9qJLhzAqfA+VGZ658sSdh4HDvwkjH3rlqyAi2bk0/9a6CIQEVEWzQ92YHZ21gqp7BkM75cgSRIkqQeTea3TjOHYQu1/IbZFRESUWfEH5lgII+8AdY/UAejC+JW5bqgS+8JhhLP0lgGg8ukwwmF79JYBjjETEVlJ0QfmmcsjGMEB7H6uDnUAusYMfebYMJoltUfdjOHYDIb3b0TLOwAwgpZN6mvKz/5hzFzpkf//cnJbM2eaIUkSeq5o/2+yrf3DCCuvN5+ZMV2fiIhoroo8ME+i/9AIsL8alaVu1D0C4Ph4Mp0dG0bzphaMPNKJi+EwwufrMPLdENzHL6LzEQCoQ+d5ufcbDp/CAXW9ddXy/xPbmkHo7AiAA6jW9ZJLUG/c1vF6SOvlm4SRsyHMZFy/OPB7zERE1lHcs7KvjKMLQN1frgZQAveWOuCdLpw804DurSVKbxo48EQ9SgCgtB7dxwFgJsNGAaAS1fsBHO/C+JV9qCyV0+XYX43KHNZGaT1272/ByPERhGL1qId+/WLzd1/8WqGLQEREWTRDHnYs6h7z5FgXgDrUrS8BAJQYeqo3/vfInLddWSP3n69FZ4BYVA7wNbmHVXn9EYxcnkneIOSx/lJyrMj4HBoiIioiRdxjnsT4cUAd223RvvSO3FN1/2UdgDkGZyWd3XU2hGGpC3mnodX1D/0j8EjxprGJiMhairfHrKaxj15Uxojln4tH5WA8cnkm0YNOTgibRM/+YcygBE4p2w6UdPY7LWg5jgxp6HTbqkSDWpZ3gLqjDUWZxgaA+K3LhS4CERHlqEgD8wyGX9OnsVWJdPahfkyW1qP7JweA4zuVWdcn4XxOHm+u9HSiTjOT2mzcWE1nA5nT0Om2pZbFrJxERERzIdBf/loMyl8Te6QTF48rE9CKkCRJ7DUTERU5x4r1VvnLX0VMSbdDchZtULaT0Ivr4VixHoFLad5w6SQcK+T3eE/rnzwcO/33idcSP4+/A/4xt+Kl1rf8cxIh5fdqXSbr+HfofTx5bqS+TkXnN+/Aa2yPiTr7JQKGOpepvzf8vPjLwnyGRcTAPA/yrPHinY2tEqW3HBp9GdhWCw+AweFLpkHXc/KniN+6jOmTtcCQD2U2bNR2EHpxPWoCgP/nlxG/dRnxnwM1aeoqdvpFNA0BaD2J1g1LW06ap21+TN9S6vjWZQxsvyOHlZ7GmGad+LNfXPRiLjUG5nmw25/utLZfYjQAeOqfRUsrgKFRjP4m/btL3XIAp2L0O0SuAUAtXJ9XfrVht/kF+NJJlO0elS/wNrxAk5gYmAUgwveYY6f/K3yohdd9B9y1TwMYxUAofSozFhrFIADPXX+xZGWkXN0BVwUAjKLpngxDF7iEwMMvA3gaY68/gtIlKx/R4mJgJhv4HUaHRwHcDddfANiwHn4Ag7v/2TBGBQzu/hs4VqyXe1l4Gi05pc5oqbmfvYyxVvn/vofN5xYM7vbBBwCt6+Fe6gLSwhjyocxkHkFmL6Mmsc7fozdDZsyqGJgFYPsx5t9cwsAQNBfoL6K2FQBexqjhYq6OMcdvnYQfL6PGpg3bDtzPXk7OBwDge1h/4facPIngNgCB3Rl61VTUdGPMu3O8wdKOMX8PjTZMejEwk+WpaWkEdidmatYE5Nd8o+kmd6nBexSR3y5JMWmOSrc/KwdgfISI7ibqL9D4gh8eAL6HeYNF9sHALAB7jzGraWzDTM1bJ+EHgMDlNOkxebIY8DRqOZO3yPwSAV1a8zeIDAHYVotaY+/oLx7BwM/lOQVNz/Prb2QPDMxkOeqYo2PFejj+8w+Ur8oYxxmT6exOzfdZ1TFmx4rd8OFpjOWcPqOl80W0/hyaccTd8G3zYzrdBK8Nu+Xx6CEfnuF3l61FN8Zs/O65dixZO8dA/3s7fo+Zf/lLAOVlfyh0EYiIKAv+5S8iIqIixMAsAHuPMRMR2QsDMxERURFhYBaA7b/HTERkI8sAYGpqqtDloEU0NQU8+uijAJJBWk1vc5nLXOYyl4tjWcVZ2QKQJAnxeLzQxaBF5HA4WMc2xzq2P4fDwVnZRHbBC7b9sY7FwcAsAGZEiIisg4GZyAYcDkehi0CLjHUsDgZmAUiSVOgiEBFRjsQKzFd6IEkSJElC85mZQpeGaMFw/NH+WMfiECowT451AY/UoQ7AyNkQRAnNHGMmIrIOgQLzJMaPA3Vb/gG79wN4ZwQhPiOObILjj/bHOhaHMIF55sxJdKEOdetLUFlzAMAIRi6L0WfmGDMRkXUIEphnEDo7AqACzlIA66pxAMDIoX5MFrhkRAuB44/2xzoWhxiBORbCyDsA9lejEgBQier9ANCF8SuFLNjS4BgzEZF1LCt0AZbCzOURjADA8Z2Qjutf6xqbxL51lYUoFtGC4Z9rtD/WsTgE6DGraewDOBUOI5z4OYUDAHB83PbpbI4xExFZh/0D85V+tOjS2KpkOvskv9NMFseelP2xjsXBp0sJory8vNBFICKiDPh0KSIb4Xdc7Y91LA4GZgFwjJmIyDoYmIlsgOOP9sc6FgcDswA4h4CIyDqWAcDU1FShy0GLTE1nq3fd6ngVl7nMZS5zuTiWVZyVLQBJkpgGszn+8Qn7Yx3bH2dlE9kIL9j2xzoWBwOzAJgRISKyDgZmIhvgd1ztj3UsDgZmAfB7zERE1iHE06WASfRIO9Fl+O2Bn4Sxb11BCkS0oDj+aH+sY3EI1mNWnzAlP1mq6+vNGI4VukyLj2PMRETWIVhgVqlPliKyB44/2h/rWByCBuZJjB8HgAo4SwtdlsXHMWYiIusQZIxZ1YWdUnKkue5og+EZzUTWxPFH+2Mdi0OwHrM6xhzGxaN1GDm0EdLLk4Uu1KLjGDMRkXUIFpiTStbXoQ4AwlHMFLowRPPE8Uf7Yx2LQ9jAPHN5BCMA6ra4UVLowiwyjjETEVmH4GPMF9G91e5hmUTA8Uf7Yx2Lg0+XEkR5eXmhi0BERBnw6VJENsLxR/tjHYuDgVkAHGMmIrIOBmYiG+D4o/2xjsXBwCwAziEgIrKOZQAwNTVV6HLQIlPT2epdtzpexWUuc5nLXC6OZRVnZQtAkiSmwWzO4XCwjm2OdWx/nJVNZCO8YNsf61gcDMwCYEaEiMg6GJiJbIDfcbU/1rE4GJgFwO8xExFZh1iB+UoPJElK/uwf5pOlyBY4/mh/rGNxCBOYZ840Q/p6rp1JyQAAIABJREFUF7D/FMLqM5m3jOAfz9g/NHOMmYjIOgR5utQk+g+NADiAU09XJn5bsrUb3YUrFNGC4Vdp7I91LA4xesxXxtEFAPurUZntvTbEMWYiIusQIjDPRK8VughEi4o9KftjHYtDiMBc4qwodBEKimPMRETWIURgRqkTdQBwfByThS4L0SLgd1ztj3UsDkECcz127weALux8WROar/SgWYBZ2RxjJiKyDkFmZQOVT4dx8S+bsfHQTkjHlV8+0omLx0sKWi6ihcDxR/tjHYuDT5cSRHl5eaGLQEREGfDpUkQ2wvFH+2Mdi4OBWQAcYyYisg4GZiIb4Pij/bGOxcHALADOISAiso5lADA1NVXoctAiU9PZ6l23Ol7FZS5zmctcLo5lFWdlC0CSJKbBbI4POLA/1rH9cVY2kY3wgm1/rGNxMDALgBkRIiLrYGAmsgF+x9X+WMfiYGAWAL/HTERkHUL8reyZM83YeGgk5fcHfhLGvnUFKBDRAuP4o/2xjsUhVI+57uhFhMNhhMNhnNoPdH1dEuLpUhxjJiKyDqECs1bl0xfR+QgwcugfMRwrdGmI5ofjj/bHOhaHsIEZKIF7Sx2AEURtHpg5xkxEZB0CB+aka1H7p7PJ3jj+aH+sY3EwMAOocJYUugiLimPMRETWIXBgnkHo7AiAOjhLC10Wovnh+KP9sY7FIWxgnnx5I1reAeqO/gPqbR6YOcZMRGQdQnyPWTVyaCOkQ+pSHTrPd9s+KJMYOP5of6xjcfDpUoIoLy8vdBGIiCgDPl2KyEY4/mh/rGNxMDALgGPMRETWwcBMZAMcf7Q/1rE4GJgFwDkERETWsQwApqamCl0OWmRqOlu961bHq7jMZS5zmcvFsazirGwBSJLENJjNORwO1rHNsY7tj7OyiWyEF2z7Yx2Lg4FZAMyIEBFZBwMzkQ3wO672xzoWBwOzAPg9ZiIi6xDmb2XPnGnGxkMjht/y72WTPXD80f5Yx+IQJjCr6o5eRPdWez9/2YhjzERE1sFUNpENcPzR/ljH4mBgFgDHmImIrEO4wDxyaCMkSZJ/Xp4sdHGIFgTHH+2PdSwOjjELgGPMRETWIVyPmciOOP5of6xjcTAwC4BjzERE1iFcYNaNMUvNGI4VukRE88fxR/tjHYuDT5cSRHl5eaGLQEREGfDpUkQ2wvFH+2Mdi4OBWQAcYyYisg4GZiIb4Pij/bGOxcHALADOISAiso5lADA1NVXoctAiU9PZ6l23Ol7FZS5zmctcLo5lFWdlC0CSJKbBbM7hcLCObY51bH+clU1kI7xg2x/rWBwMzAJgRoSIyDoYmIlsgN9xtT/WsTgYmAXA7zETEVmHOI99jA2jeVMLRnS/rEPn+W7UlxaoTEQLhOOP9sc6Foc4gVn1SCcuHq+HSE9k5hgzEZF1MJVNZAMcf7Q/1rE4GJgFwDFmIiLrEC8wv9OCjYnnMfdgstDlIVoAHH+0P9axODjGLACOMRMRWYd4PWYiG+L4o/2xjsXBwCwAjjETEVkHAzORDXD80f5Yx+Lg06UEUV5eXugiEBFRBny6FJGNcPzR/ljH4mBgFgDHmImIrIOBmcgGOP5of6xjcTAwC4BzCIiIrGMZAExNTRW6HLTI1HS2etetjldxmctc5jKXi2NZxVnZApAkiWkwm3M4HKxjm2Md2x9nZRPZCC/Y9sc6FgcDswCYESEisg4GZiIb4Hdc7Y91LA4GZgHwe8xERNYhVGCefFl9DrP604zhWKFLRTR/HH+0P9axOAQJzJPokSTsPF6HzvNhhMPKz/k6jGzqwWShi7fIOMZMRGQdywpdgKUw+fJOdAE48JNu1JdqXiitRzdjFtkAv0pjf6xjcQjQY57E+HEAOIDqdYUuS2FwjJmIyDrsH5hjUVwDgEecWA1ATWsnx5ntn8om+2NPyv5Yx+Kwf2AudaICAN6J4gYAoBL7wmGEw6dwoKAFWzocYyYisg77B2ashvMRAOjC+JVCl4VocfA7rvbHOhaHAIG5BPXPdaIOQNfXxfx6FMeYiYisQ4hZ2fLsazeG929EyyYJLdrX9lejslDlIlogHH+0P9axOPh0KUGUl5cXughERJQBny5FZCMcf7Q/1rE4GJgFwDFmIiLrYGAmsgGOP9of61gcDMwC4BwCIiLrWAYAU1NThS4HLTI1na3edavjVVzmMpe5zOXiWFZxVrYAJEliGszm+IAD+2Md2x9nZRPZCC/Y9sc6FgcDswCYESEisg4GZiIb4Hdc7Y91LA4GZgHwe8xERNYhRGCeOdMMSZLQfGZG81v1ucx8HjNZH8cf7Y91LA4hArPoOMZMRGQdDMxENsDxR/tjHYuDgVkAHGMmIrIOMZ7HrBg5tBHSoUKXgmjhcfzR/ljH4hCqx1x39CLC4bDycwoHCl2gJcIxZiIi6xAqMBPZFccf7Y91LA4GZgFwjJmIyDoYmIlsgOOP9sc6FgefLiWI8vLyQheBiIgy4NOliGyE44/2xzoWBwOzADjGTERkHQzMRDbA8Uf7Yx2Lg4FZAJxDQERkHcsAYGpqqtDloEWmprPVu251vIrLXOYyl7lcHMsqzsoWgCRJTIPZnMPhYB3bHOvY/jgrm8hGeMG2P9axOBiYBcCMCBGRdTAwE9kAv+Nqf6xjcTAwC4DfYyYisg7BAvMkeiQJktSDyUIXhWgBcfzR/ljH4hAsMIuJY8xERNbBwExkAxx/tD/WsTgYmAXAMWYiIutgYCayAY4/2h/rWBwMzALgGDMRkXUwMBPZAMcf7Y91LA4GZgFwjJmIyDoYmIlsgOOP9sc6FgefLiWI8vLyQheBiIgy4NOliGyE44/2xzoWBwOzADjGTERkHQzMRDbA8Uf7Yx2Lg4FZAJxDQERkHcsAYGpqqtDloEWmprPVu251vIrLXOYyl7lcHMsqzsoWgCRJTIPZnMPhYB3bHOvY/jgrm8hGeMG2P9axOBiYBcCMCBGRdTAwE9kAv+Nqf6xjcTAwC4DfYyYisg7hAvPMmWZIkoTmMzOFLgrRguH4o/2xjsUhXGAWEceYiYisg4GZyAY4/mh/rGNxMDALgGPMRETWwcBMZAMcf7Q/1rE4GJgFwDFmIiLrYGAmsgGOP9of61gcwgXmG/97BABQ4SwpcEmWDseYiYisY1mhC7BUZs40Y+MhOShj/ynsW1fY8hAtJI4/2h/rWBx8upQgysvLC10EIiLKgE+XIrIRjj/aH+tYHAzMAuAYMxGRdTAwE9kAxx/tj3UsDgZmAXAOARGRdSwDgKmpqUKXgxaZms5W77rV8Souc5nLXOZycSyrOCtbAJIkMQ1mcw6Hg3Vsc6xj++OsbCIb4QXb/ljH4mBgFgAzIkRE1sHATGQD/I6r/bGOxcHALAB+j5mIyDoECcyT6JEkSFIPJtVfXemBJEmQ9g9jppBFI1oAHH+0P9axOAQJzEaT6Pl6F4A6dD5XD7s/Z4pjzERE1iFgYJ7B8P6d6AJw4CfdqC8tdHmI5o/jj/bHOhaHcIE5euYf0fIOUHf0ojCPfuQYMxGRdQjzPGZZF1oOAUAd6tbbPYFNIuH4o/2xjsUhWI/5AE795ACAEbR8V5xJXxxjJiKyDsECM4B1+3BqP4B3WrDx5cmsbyeyAo4/2h/rWBziBWYAlU9fROcjAI7vRM+VQpdm8XGMmYjIOoQMzEAJ6p/rRB2Arq9rvttMZFEcf7Q/1rE4+HQpQZSXlxe6CERElAGfLkVkIxx/tD/WsTgYmAXAMWYiIutgYCayAY4/2h/rWBwMzALgHAIiIutYBgBTU1OFLgctMjWdrd51q+NVXOYyl7nM5eJYVnFWtgAkSWIazOYcDgfr2OZYx/bHWdlENsILtv2xjsXBwCwAZkSIiKyDgZnIBvgdV/tjHYuDgVkA/B4zEZF1CBSYJ9EjSZAk/m1ssh+OP9of61gcAgVmcXGMmYjIOhiYiWyA44/2xzoWBwOzADjGTERkHQzMRDbA8Uf7Yx2Lg4FZABxjJiKyDgZmIhvg+KP9sY7FwcAsAI4xExFZh4CBuQs7JQmS8tNzpdDlIZo/jj/aH+tYHHy6lCDKy8sLXQQiIsqAT5cishGOP9of61gcDMwC4BgzEZF1MDAT2QDHH+2PdSwOBmYBcA4BEZF1OADwNoyIiKgIzM7OYhnAFAkREVGhqRP8mMomIiIqIgzMRERERYSBmYiIqIjYMzBHe+F1OOBwOODtixW6NDYQQ+8OBwLj891OCAGHF73RNC+PB+DY0YtFqbFoL7xp9h3qcMDREVqwXWm3F+vzzv0zLebxWALz+ux5059bsT7vgtbpgstwPgqj4Od3lutRAS1AYA4h4DC5aOsOuvyeXINkqCOfgCoHDe37Q681YbB9DPF4HAO7SnPczsLIr+yFEevzwuEIYKEuWwu9PZnhnIn2wrvg+0jyrHUt0pYB3O9CLmehFc6dvOX42S1nkc9HWnhFf7OmsWxpduNG6xLP/F7UC63Fle4aQHxX8W5PtnTnjGutZ9G2XeqqAj5etM0XNZE/O9F8LFEqW58KjfV54e2LySk/JeUsvyb3kmragMHGMs3v5fWzpz2M62dIXSr7zbhNTUpct63xQHL9xO/TlV3tUZpsJ+U1Q/pdtx99b0o+hiH5uDgcCLxtkhobD5j3ZA0ppJyPh/IZ5fdqtmtMSRnK7XAYUsXa45p2f8lzJtbnhWN1EwbhQ41uHW15jOnoWOLYOBwOBH6R9kOlHpuOUOKYqMc8Ux3qPu+OXkRy3FVS+nMHACKafRt71Lq6M9ZJR0hXbtPeuFlKVXfe6I+jbh8m65oPC6RmtYyZtrSfw8i07eUgQ1tK2b+m/GZtY7HPx3TXx/R1maGOEELAEUBI/fxqWXXXtkznhnFb+nNTX9+Gz2+8Jpi0q5TPoG4rbfli6N3hRe+4+rpcvszXMHnbZY2DQFtN6v4zXI/SbjfX9jUP8fkZi/uBuD9k+HXIH0dDMD4dj8fj8el4sCH5nuleTxwwLvvjY+oW2xH39E5rNiavn9xePOU17ftT19e8u9ejeS113bSf60Yw7mkfk//VlGO616MrV8q+Q37dZ9O9/0Yw7kn3uUP+OOCJB29o9p9yzLTH3fw4oH0snkJbN7p6Skc5/omyKsvqtnXbGIv7NeWe7vVoyiAfU/17DZ85zTljPFapn1dfX/p6UcuvOZ7phPxxII86NJ4nyvqmxz0L83Mn/Tlhdu7p6iTDukmZzhtDPauv6c5f/TbTnXPGsmqPacbPoZWx7WU473JpS7r9y+/NeK1YxPPR/PporFt13Sx1lNLmUstmVo/az6R9n79B2561rxvastk1wqxdNQTj0ymfIVP5jNeieI7XMOO1yOzY6D9DxvrPuX3lB0B8dnY2vmCBGWY/mQKz9gAZToxMgTVVfoE5pfS5BK9MDBdt475Ty6K5gBj2oT0uZp9BW9bUkyzzhSrtZ8vphDI0UOO+tNszXrAyBG3jZ8orMKdcGLXHJLW86S8+GY6Npoy51mHKZ8qDaWBOe0FN9xmVY5JxXb20543JMdYdxzwCs1kbz1xXhv2a0bW99IE5c1sy2X8aus+2iOej+fVRu21NXWarI7PrQE7neOpnnu71xP2hsbjfrK2bXS+19ZPu9YZgPGg8ZzKWz+RY5hgUzQNzjuev8bU82lc+1MC8YKlsfyiOeFzzE/LnvrLThaqFKkhW+rRPTVuad0Um0m9Bm9Z0+zLuK/JeMj0p/9QgsYbTBU9/REl9xjA6NKiMjcvrGWUbCy3d1QJ//wBGowDGR+Fr8KLWmXEVoLoV8VAVmlZrhxSyK3WlqTGnC1WYQERJMYbO+jJOAJrz+G40kkwlKj9ljYPKixFE+ue22VSZ6zDTebLwXHA1qP+XP6PPrUm1rW7CYE7r6qU9b6KR1O3Nta06a+FtGMTAL2IAQhht8yD4hDvvz5F720uskaUtZTpXcrtWAFjC89FsvwZZ6igWmQD6m1DmyP7Z3Fv8wHsRxABEPq5CbbULLsjnSuwXAxhsr4UbadqB04Wsrbu/CU1t+jlB+ZQPwJyvYWb016M86j9D+5oLe35dKoNQRxma7h9L3ECMtZu/L23gGQ+grLEKYzndgJTCdT/g6Z3W37TEB9CYuPCpjbkMTQjipV2lifWMIh+nv+zK3Khtly9+obM+eLbV5jYjtro18Vl87nl+fSAawQQGE42kps2PscPu/7+99w9tJE3zPL+aLTb/2oaDOpA5mSGoHJIpLodtscdZKrJ70ZDFXdN9Q4ZGuW2Jm6E6d+euLq+ZweOZvmvLpk8O3TGL1/TQl1vsHtnF9iG5Jz1S0vRyO3RygtykFVoKXMN4qCXZ7A0Wa5GgExJmYLmCHuL+eOPH+8YvRciyLdvfDxjbUsQb7694n+d93jfie4oEYyho0GH47eD+bJew2JskuQ1j+8mZI8oYcojtLWSv7Zh+EzWwji3M54rkUd8w0H86wFRxGjOUI9O95183+V6K7ytpxwoA59gfo64bYEYb5bUiUOtgEshr5BMsaxXHaTMxONagIY/KPaD3YgrrVR/G3ZKfZkQ+Zo1YqHUwOekA9RXPoGbKn5fPBY5hDpnaf8EsrWHuv5K30KTd/DUL4T373pmJQZwXVNCgHzbw2PW+xl1Ud03hzdU0eCk8C3vtct61mzr69ceRm1mm1pE64D+pe4Y0dN64i70deDdCHKW7Bvr1FZR3dFTvZHxQpaBBRxHarFl2EmPLe1RtfkMRhz8TF7OCJvYiN1yIwbi57/aXKbobSbPJZJLaMNRPRu0EzzpqE5SK2u+TCJbxdET2m4g6Nj9uoO8a1YKGItxZMGaUHd4g/3BfdhrTlyPNvRdF8r0Uvr65W0V3nGasuJj+qDCrjWLOUfpsIo7T9vEAR07kK68V0X/1GIMdA5W1uDSn6O43AWdGnVyGOnqyQc2Uv4iyJY1hzux/NhlsxRmwlIa59EEHurN77vQvtZDJo74vvDMRntgDWjHBFq+zuOG1HqoflJBff4QO/DDLHgzFYw3mPb/ew6R7pIS43J2E+fVHqD6VQ6T+rsTQeasNFE0bW2uRufVZq8AAgDRhbARCg6sNFM1TGtK1LQxRVsu0iJcIFOrYbDkz8ftdTFHClj1Esa7Wn2v0StsTqZ0eAvtDZFhcUUhqw1A/eVbBpDtfeD5rvy9t2xjeVkN+c9d1ZL8J13H5uIOJ50CWsGUafph/X8MwsexikO8fqk5j2nLMuvfimHUvqX0lhzI2US/MGCsusD+qzGqjCAp19E46OJKXDxL6XOmugf5OE0V3UrBWgbHTRFM2uqE0ndlm2mjZ2hYmXaCx2oaZMX9pxzCxZCPaYPYO6gy24gzIQWz+OrcLEh9zN4cy5M47Rff+CqyNFAY4FpFG797k3F+uAoibZOVpVRkYzN0c9m5eTH6WilEbuX0tedC8MC623xBChLrUmzdvlnPGfD0IhkqAhWwSGQ/QO5wjjL0grFf9wGav6M031xHzWRPGxjIaZVx4vyGE+HDGfKGYaMu7tCE2wcw/W46esZ4vYubVkBwMvctZ2LJz8f2GEOLOmGmYCSGEkCWAoWxCCCFkCaFhJoQQQpYIGmZCCCFkiaBhJoQQQpYIGmZCzpqgLGYsJtpJUoap0yGEXGZomAlZOEKXdtH6rMtLoLwhHV9CSBbeuugMEHL1KGHrWj2CeN3KS8jZwhkzIYAzywu+lzdKdELMDtujuHP882Lfdz1qS+8AjghdK+kmzTxFXoLvWZ99TbVM04MqqgdTmLuz30ucVE/tkfPe4tWGr5rmhd4z5JWQaw4NMyEw0V61sCnJCTZLbZjIo3JPF1KF7qGjAZowUFmLO2cG4y6q+5onaTfpAo0Ned24j8Y+8Mi2YdsTdGpNlCON2BTd+2UceepkQxg75WiDOmojVzpC58TJa0BmDxB604O7bp70mLIIVaSiJNEYfEtdfr0H+6TjSyA+qSOfJa+EEBpmQkQoVlKkKWjQHUm//J0q9EMhDA84UoOtCkoJ5yRSqKMnvfYyrxWBQwu+2KOOzn7dk0SsbxjAziBsJMcD9A4NbHqvOi3hQVdH81nYnJrPmtC7j4QGuJOHzRbUY1tDz8jm71QTyxJ1jUQy5JUQQsNMiEAO9a5KWrmFCqo1V3PYxGBHR+eDUvI5M1Bk6kozNIULWrS04djyw8XOz0o9KgfRIiLazQQJu4KGCNl7AHnUn0zQOS5nk5hMnVdCCEDDTIgILwdCvb7ZErPW/tMBpqMBmq5eceI5CYzaWKkXRZjXCYEn582KNvgFzQ8Xyz8h/ds8tNvh061X8xrGPOpPnDA7GlhJs1acOq+EEICGmRDH+BWhOaHe6YueagzXKjAOe3i434R+ryLCzLPOiWFqHQE1Da7Yp/ksOGPuS2vOU3T33dB5gIKGIprYS/FIlnZTR7/+2A+Hj7vY2wGMu6cxjMLgq7KlMlIofFZeR+3oTXCEXFNomAlZ28Kw5YdaV14Voc5jS6i0+ujLesUzz4kmv/5IzDSd8/ZgBGbaBoYblvP9ChroYBI5syxhyx6iWF+J3W3tX7OHSffIDyWvig1c2eVF1Z3V5eMOHkXJeRbq2Gz10Vh1w93p80oIoR4zIYQQshRQ9pEQQghZQmiYCSGEkCWChpkQQghZIn4JEHFt/uZv/uZv/uZv/r7Y3wC4+YsQQghZBnI5bv4ihBBClg4aZkIIIWSJoGEmhBBClggaZpKBGTrDS8z0oOprAI/a6QUYrhhKPZCUSBrc5Axg/Qa5poZZGJjQKwHHXVQ9YXrRWdK+NjDrgKcoDOVmiNNfF5T6v8yYaPPdz04fvwrtCQC6/170iHt3IY7euIvqzHEg27iUHjEmXtyY5NcvAd666AwsLyVsnfVu9VoHE1ebd9RGrlSFdtLzdXMJucTk13uw1y86F4tAg1YLfCTfu5iie38FKzkLQ1mjOyuFOnp2fcZBZzsu6d0JelHvPz9TIur3mnNNZ8xpCIRtR23kdk3FWxZeqzhupd4HdsrS54C5m0s/Y1irwEBfEqdXBQPk2fj0oIrqwdRJ3/dsw3k7i7SC6akzQ3U2IX83Rfd+Fd2RmBUE62V6UHU0jR1hiPuSwpLiySfVZ+DY1BGM5GsoZZJnRrIes1vWURu5XBlNOCIOUlpyHceVIxR5GbUDx6phv+DszZ/hJNe3nJbaXyPy5/R993txvNqnImdwypKBk5+xfF5SW8b02VB9OHXgXCdL//u/doN9JCaSNhNHp7qmKmgltXd0nwpEWsZuXuW2DS8nzewDqes8AaWvq3UkxhDTu4fc8SP7uEJk7OvHxO7UYOvdifrxScfWYdhD6RjDdL4zDRuQzjENG9DtzomTYle30RoqyQ1bsOGlF8hBV7dR69heDkxDOjaYv6FtwM/LpKvbiPjfu76St8WnJZdp2IJfDqUMwTKGzw2h1L90jlSvyvUCDFtSe0WVUy5TMF9x14gok2E6eZXyoZZ1aBtS3wh/71yjFVETgTqYdA1bl/uh9L1oK6m+ZrSVWg+iftx+kZi/YN93vg/dP0Gi6jnQxyPrILHPqu2qHJu1/wWOF3WrtlsUoXs34vPZ9RnRp5R+Exh/AnWj3q9p+0CWOpcIjHWinuLHkKjPkscV4gLAfvPmjX2tDTMQ9ZNgmJWbMWHgT5MDt6O6P3LaIQOlph+6Vuh4KW+LTCtqsJAGs/BgnWagCaYVHCgDhjzl4BkcaGIN84xrpDJAbppeOkHDHFdvUU5KsL4Ne2gaEeWIqk+5zNH1Lc7vBAbhGfkL9f1kB0mpk4BhDA3eUWnM6LOKkTtV/5vvHo7Nt1fe5PqM71Ph/IbzI6edvQ/E5j1yTIzPr9wGUfWWbVwhLq5hvtahbL07gW3b/s9JJ6CNm8QC1kVqHUxsG7Y9hHHYwEM3tDO2/JCu87NS7893jUWmFUVBQxEAMIV1DPQVzd0ymqdJe2whlFPvelHIIbsVNA5Pew1RpjiUEGIpqaQWrEOgWZJCm6uN8HUBCO1n4MiaivNuV1AqaMDTAaaYYvC0D+NuyUtTJQ/tdmJpBTsNNA6BouauJWbJn5PLbRvD266u9Hzh0bwW05Iz+mzprgHsDGACmL7ood/aRL0wT/8r4UFXR/OZCSh1Ox9T68j5K6k+k/uUjxMePy4nbC7L3gdi69xBHRO3UIrJr3Yz/UhJsnOtDfPyUMKWaaBffywGuIIGHQaGstNg27C35xg0FplWFGMLYjgSA0LI2bFPsZmtoIUdJe96Qabo3i/jyLv+BJ00jlPiNRIGuVEbK/WiX6+mkXAR4cQZZqANYjYKle4a6D8dYDoa4OimBhQqqKKHwdiCdWigsuanqZJy0G8NYZsGmiV3PTNb/rx8bovjhq0myot8/GxWn117gE6ticFINqbz9b/8nSr0nQHM8QA9r27nQeRFv1dBPrE+UzpPIneoP3H6MhpYCe2ZOEUfSE10fq1XC3TuSQga5kVybCmDU/bNX00MRnBmbOpGkrlZZFoOzZK0oenjBvq1KioF4UV7zsXcHPkb4CLyLl9PRcwevFngeIBemhnzjGsEyzQ9qIpNLNYRUNOguec8C87N5I18YnBr7qc0XmsVGIc9PH525JQnD+12H9bHAzRbFcdYRqQ5eozGoY7qnRS7ate2MOkCjdU2zKz5C6Dd1IHbGha2l3dmn82jck9Hc/+hYkzn6n+FCqq1JsqrDfS9us2OubuCxqGBzXW3veLrM65PxeM4HTe1yM/n7gMpCdXruIu9HZwqupDE1XrMbj5omBdEfn0TxqEI7c2329AJq+13MUUJW/YQRSUsN3+6i0sLAHR0TA17TjrlHQND57GR/HoPk+6REoLMdIMV6thsObuZ70fXQ/lYfkwlUE7T8MOHqxaKrTQXTb5Gfr0nZoRuSPVpFQ/WgPz6IzGLcT7fgyHNvJ22LPnlV0O/s559LaHS6qO5U/SMTumugeZOUxkMQ2mWjtDJ8LidV7b7XWiZ8qfK9mT6AAAgAElEQVTuYl+pFzFcVARGlGxmn83fqUI/7CvGdL7+J4w8kNHQHKp1VcZQiTAktXdcn1JRd6WXjzt4FPEY02n7QBpC9braQNG0sTV3dIHMgupShJDrzaiNXAmnewaZkAWQywl1Kb5ghBByrTGfNYHWkEaZLA00zISQa4yJwQ5gmDTLZHlgKJsQQghZAtxQNjd/EUIIIUvELwHCSvM3f/M3f/M3f/P3xf4GwFA2IYQQsgzkcgxlE0IIIUsHDTMhhBCyRNAwE0IIIUsEDfNSExZFvyxMD6qSCH1AAP66IQnei9dKSq9bDAkTkPPjotrh/O9rXwntjO7DUTvhFa4XwLLlJyPnZJhFRwy9n3ncRVV6l625m/R+3gCBc2fmQJboc34uo8FbLFfHYJq7p3n/99liftxAvzWEbdvorecxPdhD05X83C6lfGm/MCKLKKPqNF1eTluOYDtcXUw8rvcdtavFvEf7LO+38+2fyzkGLtWbv0rbNs50f3hNEkAYtZErVaEt+IXvhEQRUgaS1Jjy6z3Y67NSKGGLT08snkWqYi01OjSOc5cK++yZ2J0abL07UT8+6dg6DHvoHtXVbbSc/0zDRmsoPgNswD9f/gyAjVrHnti2PWzBhpSekoOu7h0nGNoGYBum+r+XZmuonKt3J0764scw7ci8LTYtUW+GKaen252TYB0i5lzd7pju94F6MQ21DoPtADV/0Yj8xZXT/39oG0q+A+cF86aUSTpPybP7eaCupfyq5QjUW+z1ksqrXsut62FLLbtIT7c7J+G8xf7IfTOy/G5fkHLTiqnD2HsnWO8R92RU+5zqXkhoa6+eAmWaOQakLUdcXw6fH2zzYUtNMzR+BPIef89E3YeBtjQNpX/Oalf3e707md13g/e5W4bA58Gy6t2hV0dqmjH3m2nYqHXsYWw/SCiXf+X4do289yPSlcvntZeTbitwxYWMgYsFgP3mzRt7uQ1zqGGkBgmca9sZDbNpSMcG86cabbeRQgO+kld1AF1kWnKZhi15EA84F8pgET43TNBguvkJDAYxRm3YCjs2SrkiDXP4JplZptZQ/JbaL9iewYFUbd8ox0zOd7C80XUWuoac/0jDHH2eWjd2YBCJKX9gMI8qf9p7J3T9iPIktmvW/hvX1mkM8ynKMasvJ56vtIltD1u6rdcCTqLzffJ1ou5DqS2j8pS2XSOctWgC93nkWBrfxpEpRt5vM9oqrlwBQu2SdO8H2knJT61jT+KMclzd2NnGwEXjGuZz3fzVD+ir5lYb6CedUJM0SNcqMBTx+TClbVvRRA0ha6jua5i4x44H6Hki54Cnp/tMWudoDT390fydKnQYvgatnLdFpuVgmJLO6wcd6Ic9DMYARgM0ax1fy9XRM+69mEaeO5spBk/76jlrD9CpqWm6lLZlTVYNWg04smasOzn1I+v3zipTb7skfks6zHmtCBxasGIuYz5rQu8+kLR6N2G411BLgS25zxQ06DiK7Wf9p4Oz3VASV34Fp502/PoofdCBvjPw16kz3jsyM9s1470Q29ZpmLsc2fpyiIIm5dPE4LiKzXvwrm0+a0K/V0E+5XUi70Ori6qin5yxXR2UsSUF4t545C/hFerYbCF2jEpNbFulKFcSs+79hP402F1B4/Ywwx6CU/abBXGuhlnvTmDbtv9z0pHE5WchBohT4W70sIcwDht46G5eGFvoo6kIrK/UE12GeBaZVhQFDUXnz6l1FBZs3zlN4hasw+BneWi3446XxdxX0AidG8HYCjtjwTLFoGzgKzUTLjKFdRx0BMuIPWPUTuUsqqL06TceZiGp/D6inZqltE5u1ntnjnaNYkZbZydLObL25QCFCqo118GwgHsVlLSiY7xMDHZ0VO/kT3WdZr2BPorS2m/Wds2j/mSCznFZHJtq46y4N4JoN9OPxOmQ2yprucLE3vtrW7DNIhqrERt6Dxto7ETs70jklP1mQVzTx6VK2DIN9OuPxeBa0ITXLzsN8+7UXGRaUYwtuEN3XitKzob/01ufdztL1MAXfSOLnfZlHHnO1gSdNINmQQs7Y8EyRTFqY6Ve9OvVNBIuIm6kkCMYtSN17M5a0jmLIipjY9hqonwGj2PEll9BtJPYZSv/ZImOxDFnu0Yxo63Plix9OYo8KvdEpGv6ogdoeTEL3BnAHFs4qlVRKZzuOoYZ7EfztGse9SdOO6GBlZm7maONjPVqgZOHEKfsr7Pu/bUt7/NmSdphXetgctIB6isZnsA5bb9ZDJfcMKshR3M3w0xmrQIDTQxGcLz4JvYWsf1/kWk5NEvSI2UfN9B3B4WCBv2wgceneuxLDg2Km7a5Lxmc0WM0Dt3ZgYzwLIua8/l4gF6amVVE/SSWadxFddcUM8maBtf3NZ+F57/9V35gW7up+45XEmNLmbVMX/RSefLaTd3b0avd1AEvLDdFdyPbbEAhpvwqEe2UlWMr5tw52zWKFG1dhBQiHLWzR3xiy5GlL0eTv1OFvjPA41dw+ocGrXaEwcc94F7FCa2e7jqlbdmgnqZdHWc0xewwdG+Mu9jbAYy72dw6+X5Lk7dM5ZLaNc29D8BxBIvq7vNCHb2gwQ4x7xh4dlxew+yspzZWMzz7rOCs/e53MUUJW/YQxcAa+HzP6S0yLQDQ0TE17HmhagNDd72lUEfvpIMjOUSU6flspw5KvkOjhmtzyClrYIFymoYfnlq1UGylu2awfsrH0mNs3o3kpttD9YMS8uuPxADmnLMHQ5mNiTWrslf+/HoPk+6RsqQQ6bStbYlZi7vs8KqI6Lm4eBbfX54oemun+fVH6NTcNFZgbQxj0khBTPlDtRhsp9ShTHe9XZwb7pfztmsUM9rai1ytePs+ht30IdXkcmTpyzEUKqjWmmgeu7PjPCr3gOYOlEH6dNfJo/5kCGOnjOrBNGO7yksOom6D68+RVwzeG6sNFE0705py8H6beXyGcgXbNeneV0Lcqw0Uo9by17Yw6QKN1ahJ22nGwLOD6lKEEELIEkB1KUIIIWQJoWEmhBBClggaZkIIIWSJoGEmhBBClggaZkIIIWSJoGEmhBBClggaZkIIIWSJoGEmhBBClggaZkIIIWSJoGEmhBBClggaZkLOkOlBFdWDqSOwEnxv+hTd+1V0R11UlXd5q+9AVt8prL6zW/w4L+gftZHbNb1rudeRrx18X7jynXudsZufrO9eJ4QsAhpmQs6Yfn0Fg7u+rCTqDyWlmz4aJQubngyeiXYuILsoyflNDx4K4XdXVxy6+oL9nTL2bk48+c/pQVUIR9iSXKWrVjVqK9/ZT+rIO+pYRUmiL4u4ASHk9NAwE3LWtIa+cStUUK1JUocADFkRZzRAsyarBOVR3zA8WUnrVV+S9tOg1fqK9CmUc6cYPO3D2HDVnFxVoIE/az7sYRAhh9d8lko8lRByBtAwE3KuRAvVu0yto/CHBc2TudNu6r4O7niA3qGu6s8qCG3lpiwLuippRa9twTaLQjrVC1nnUX8yQee4nElKkhCyOGiYCTlXprCO47/Na8Xwh2PLM6bWqz7g6ODmVhtA91GCTqwGrQYYUlja9kLmDmtb4jNFTD6P+pNwGJ0Qcj7QMBNy1uyU/Q1Uo8doHOqo3okRtC9o0A8beOxtuJqiu98EWhWUMIV1rKNz4hvZ3npMOgDc2XlzP8Wst6BBRzEw+xbni9C5s+mMRpqQM4eGmZCzptWBtu+EkktNGGYvfpZbqKN30sGRF35eEZu9tksA8qjvV9FbVXdlJ+2aLm3bGN5uYCVil/f0oKqEuIumu/nMP7Z8LK9ZE0LOgxwA27bti84HIVeS6UEVK682HcN6WsSObZjSTulxF9VVC5tyeJoQcinJ5XJ48+YNZ8yEXBrGFo4Q2OwlrT8TQq4GNMyEXBYKdfSkXdQiNA4MOVsm5ErBUDYhhBCyBLih7LfcfwghhBBy8bwFAH/913990fkghBBCrjW/+MUvAHCNmRBCCFkqaJgJIYSQJYKGmRBCCFkiaJgJIYSQJYKGmRBCCFkiaJgJIYSQJYKGmRBCCFkiaJgJIYSQJYKGmRBCCFkiaJgJIYSQJYKGmRBCCFkiaJgJIYSQJYKGmRBCCFkiaJgJIYSQJYKGmRBCCFkiaJgJIYSQJYKGmRBCCFkiaJgJIYSQJYKGmRBCCFkiaJgJIYSQJYKGmRBCCFkiaJgJIYSQJYKGmRBCCFkiaJgJIYSQJYKGmRBCCFkiaJgJIYSQJYKGmRBCCFkiaJgJIYSQJYKGmRBCCFkiaJgJIYSQJYKGmRBCCFkiaJgJIYSQJYKGmRBCCFkiaJgJIYSQJYKGmRBCCFkiaJgJIYSQJYKGmRBCCFkiaJgJIYSQJSIHwL7oTBBCCCEEePPmDd4CgJcvX150Xgghp+DWrVu8jwm55Ny6dQsAQ9mEEELIUkHDTAghhCwRNMyEEELIEkHDfGX4DB+9dwu33vsIn6U5+p+9h1u33sNHf3nmGSOEEJIBGubz4C8/wnu3buGW9/Pr+Prv/hF+/O8/X+BFPgdeA3gNpEn1879xDv7FArNACEmHMya8989UN/r1n23i1q1b2Pyz1wCA8Y++ifduvYfWv/6ri8gluSBomM+DXwib6TPGp3/2fWz+93+E57zfCLl+OGPC678JuNG/EP9/fgqHmdGwyw8N83nyuz/Ey5cv8fIvnmLnPQCvO/js3190pgghy0rhN76Hn778KXa+9IXU5zAadvmhYb4IPv9chJvfbuDdX3Y++48jfPTt38ZX3hPh7ve++jto9T7zwtIixPVN/Om/eY6Pfv8rIgz21U10/m1M4Po/jfDd92/h1ntb+Mnr6EMCmcLPnn2ErX/w6yLc/t5X8Dvf6eDTN/73n/Va+Kb7/a1fx9e//RFG/9HN4E+weesWvtkb4fk/3RTleO8r2Py/P0sVWieEhAmGtpPHgdf4yR/ewtf/WJz73X9wC7dutRiVu4S8ddEZuFb88ddx64/df76ID3/we/jyfyb+e/1pB9/tjbxDX/+75+h8++covPsU3/hVOCGun2Drt37ip/fvfozWP3wH7/70Q3xRudAYP/7O7+Oj//BF/N6f7OD9t2dnbfzkm/jK9nP/g9c/w/ODFp7/28/x9E++gXfxGZ5/uwP/6mN82vsufvtvv4tPvvNlfOEXwtn4ybd/WzrmZ/ix8Y/wzu2f4sO/m6qGCLleKGNCBMHQduI4UDurXJJzhjPmC+NTfPRbv4OP/lzceH/n732IH/6rT/AXL1/i5cuXeLrxLoDP8OnP1Onu27/Rxv/zyUu8/ORf4MNfBfD6M4yn8hE/x+ifbmLzR6v48Pv/HB/+3Rsp8vIZfvzHzwF8Gd/qfSLC7Z88xbe+BODPH+P5XwLAO3j/B0/x/34q8vfyp9/DbwLAwWf4mZLBr6H9Lz/By5ef4F/8T+8CeI3Pxqmm7ISQlESPA2/j/X/8Ej/8XXHM7/3JS7x8uYMvp4+CkyWBhvk8cdeYX/4FfvrRN/AuPsV3u8/xGsCNG5/jsx9s4bffF6Hse/vRDz0Vv/T38c4XAHzhJt755agjfo7PXn4K4ASfI41RBvB6jJ+9BlB5H+//l85d/IV38cUvAv5a1Q3gr57jo/9RhM9uvfdN/GlUWn/vy/j7v/IFAF/AzXcK6a5PyHXFGxPEz0//yfupTps9DpDLDA3zhXADf/uGYzQ/F2tDP/7O19E6KODDP32Jl599gh/+wdqcab+Lb/zhHt7Ha3z/D/8Iz9/MPgNv/+d4BwAGzzH6D86K8JsRRs9FejduAPjz7+O3/ufv4ud3v4fBy5f4i+d7YsZMCFlKfv5XnwN/c9G5IPPANebzJLSe9Da+9t+W8Db+P3z+nwDg+/id/+r7p7/Of/E1fOufPMfR73fw7f9jDT/6x+8jeZn5XXx544v47v5PsPX+r2FLzuFvfIj/7leBz/+NMNjPja/g14zTZ5EQcjbc+FtvA3iNzj/6NXTwPvaefw9fy190rkgWOGM+D95CwDC+jXcqDez84EfY+2/eBlDA1/7XPXzjSyL0+/avfA3f2mjgbQA3XNfpLTHDviG5UmLSfcP57Ia4yNvADQCFr/4e/pffeBuvf/S/4fG/Du+LFjfv245rdgPv/g//HD/8g9/E2q84Of3lL+I3f/d7+MF3hFG/8V9/A//nH3wN77wNAAV8+R9+Cx9+yb8e3rohft+QwucReSaEwBsT3v5bgeWm4D0z638ExwHg3a/+795YUvjSGt6hUb505ADYlIsj5HJD2UdCLj+3bt3CmzdvOGMmhBBClgkaZkIIIWSJoGEmhBBClogcANv9x12junXrFv/n//z/kv3vctH54P/8n//P//+bN2+EYbZtzzaTK0gulwPb+GrDNibk8pPL5bj567rAAZsQQi4PNMzXgFwud9FZIIQQkhIa5msAZ8yEEHJ5oGE+Y8zdHHK5Krrji8sDZ8yEEHJ5uBaGWRjHsIGcHlQv3GieB5wxE0LI5eFaGGafPhofmxediXPnUsyYR23hPO1GtY+Jds51rnLI3e/ClaAWzpX/XXuU7ryZ5467qMrnRuaLEEIWzzUyzDr0GoCdcmDwlogbjB2jUT1wh3VnwJcGendWHpu2R8BYBGfsroFyfoLXrB6Y6N6PMiZT5/NwBGC5Z8xOvp9VMGxFfW+inSsDpg3bdn6e1JEHgFEbK/Uihu7npoFmyS3/FN37ZRx1J855E3TQwIrUpvHnmmivNlD0rjmEsVOW2uJ64Eea2pjtlphoX4Po03kzPaguxClMTkfcg7PHrgCjdsjZXSjjLqoxfcrcXaSzLMZWt/yLTXs+rpFhBqobHegAmvsRnWncRXW1gX5r6A3UcAfjggYdQP+V5Rxr4QgADnsYOEbAOgYAA5VEGWVhZJowHIMwQafWR2PV6XyjNnL7GiaOsRi2gH79odIx+/UyrA33XKBZmj1oLveMOY/6Exv2diny2+nBHpqtIbYi6tV81oTefQDvzLUH6NT66L2YAuMBeocGNtddaZ086hsGsDOAOevc0QDNWgcPvGuW8KCro/90cHaD0EUzaqsGeNzF3o6OzokN295CsHUWZTAWxbLlJxLH8c9sAGNxnfXF9kpzNxxdmoezbhP9pnYp007DtTLMKNSx2QJw2MDjwM0xfdFDH4Bx1xmC1iowADEYFyqo1uAN6tMXPfRbBgz0YY0BwIJ1CKBVCQ1gCqMBmoBkEBxjAccgrG35s0EA2k0d8K7h4BmMPLTbAHDkfO8YOLuHekG97HLPmJOYYvC0DwODiCiCcIaKmqxpJ+qk/8oCxhb6NQ3K7VXQoOMI1jj53Kl1BNzWoHyrFYFDC9ZZFnfpKEIrzD6KpKRQR8+2I53M+Shhy7bRW1+srmNp21bGoWVEjI2XL+20XC/DDKD0gT9rlgdZ61UfANAsuQagjKb3bR6VezpcI2i96kO/+QCVFtB8ZnoG1zPqMUytoxm5myph6pV6f54ihljuGfNsmqj4YWzTcKIIjjMUQ3JdJ5/r9oXryvSgitxqA300UQ6tr4s+ulLvAzvlwHIL1OWgxDX95LC3H0aXr6/eH+LzhPwElqbUmWVwSUkO2Qeuo4TyTbRzbZjuktP9Lv5lKPQpzg/PZAPh/kD+kmbScn0El6/8/5PKlJSOSnCmG9yLEaxLS/redZrnaxO13tsv4utDYdRGbtf0yuamqfShhHqoHszvbivXWGBY/9oZZhTqeNTVgcMG9p76H7tekiGvZUrrmfk7Vejoo/fC9GZb2k0dOLZgWkeYHcZ2Zl0JmLsraBy64UMbk+5iPLfLO2MWKGGltYoTqdCg1eKPj6/rIrRC8rmxHnNwBn5Fya/3YJ90oLtLLsoyg4jMTLo64Cz7+DO2Phr7wCN3Xf6wgYfuwBtY0590gcZG9EA2PaiifNzxl3Swh+5Y3B9iGcdf92+P4vIT2Cdw0gGkZSFzV9p/4JV1CyVM0b2/gsbtoTcGDFtNlJVBt4myu+T0pI6v3vWXSAA4yyg6qneS5pxTdDfkfQwJM+mdMgZ3/TEhbvkqvkzZ0lEYd/FQardhC9C7E7/NDxvYw6OA0zxfm0wPHqIBt90n0J42EOci59d7aqRgp4y9mxPvWqE+1GqiLO0vKe8YXpk2XzWkSVhE2jFMD6reNd09LA8XtKxw/QwzgPz6pghTH/rNLgyvMwOOwgln95/uoXcojLAIb/aw97Q/O4wN+OHx+mPfM99vApDXQl1EGDc98Zu/Lu+MWQpNx3BkqR63EqIOhp4D4e3Ec48tdbYXEd4mQXR09t0QaAmVlt92wTX9/PomDG+PhoyzfLHhh1JL22J5prQtGy/hXKltKBHcJ1CoY7PlLBkF27qgoeguCTl7E4aSM1L6oANdyatcTjj3dRMDZwYqlro2Q0tKUcSONzLSHgsxTh2py1viqvFlypROgMA9o93U1fux1sEjd+zynOaYtGa0idruedT3RXQzFXI+ovrQBx3oMftLSttDGGmvI6Ea8NljVRaupWEGStgyA01RqKPnbPiKDtk4a7qHfb+jOh2xf5h2s0AJWycd6G6IMLeCxqHv1YoO0kdjVXzXu22k75gJXOYZs3ZTV2Yj04M9NGGgsiaWF3wnB8DoMRqO0+QOlnte+wknSL9XQR7J5+bvVKEr+xBMPK73Zy5VEBU/8iCMRr++It1bZWWW4pO0zCCHalfQmLWUcdjAinQvl3fcb8W97Bn10QBNdz19bIVnaQUNybEusTlQGFnHKMzsK3nUn0zQOS5nC4PG5iWhTJnSCR+new6uKFv8WBcfiQJmtUny8lI2RFr+smTOWZoRZRAbdReBGnr3y3J63lpcUstLaduGvR34cG0Ltr01+7PEdMTmi/gzIs4p1NGz63FHh9Pb3or9Tk1bhI+iUl5u5SEndOjdlGXkdiBCYNsl5Nd7GL7KoZxzh3EpPBf6TkfnpOd4wsIJqq6uIOdWSmsI2/Fww+lK5xbq6JkWcqWcZzz07gS9hW3auW4Io6Hfm6QIEYrBPTzvkB5/W8/D7Te9uCtqRaBWxSRyE5PjKOz4fcMwbaftNejBqztPYSS53vk7Vej1AcwPNPE0wJMZxRRnOfesKMvKrhb7dMJsEsp0GsYW+mii794ntQ4mc242S24TxLT7PIg+ZGzELA/cXshFxNLj7SHsJyXn/xzKi0n6us6YrxfLa5QBfzd54EcOJW7L36mP7qjfBXakO7tgo9Kcee7alpKfRe98vRIEwv1JaDcDEYpYhBGXH2k0d6veZj8vVDseoBecYcn5KWiBqIeMBevQX2NU1ncLGopKpAUwP26gX6uikhSaLlRQrTVRXm2gn2ZZK6LMp3tEJ6FMp2BqHUH33gUwx27t1G0SbHexBj/fNsxwH5IJ9kVzNy56g4RnqYUj5LeZicECZ8w0zNeAy7vGTJYVsUYswpJpnqPNr/cw6R45SzjJLy4pbTsvg3FDhNhEvSCWn7zw5KqFYktOP5CfQh29kw6O5HCmtxO5hC0Tgby4g28JW/YQRSnsXj7uxM7ypBw4T27MfjpDoO6gLh/La6TzkFSm+cmvP0L16YpSh2mfTc7WJsF2fwjsz7f2K9KyMbyths3d5YL8ek9sBnM+H9wV74TIhlgDh9dP9oDW4h6zygGwl3tGRQiZxXIvVywZ4y6qqz1UT6Qoiftyn9M8vztqI1eCuhP6vDijMonw7FCKNomwuxUXJr5imLs57N1MswSzGHK5HN68ecMZ83WAM2ZCJMYW+oGNUbPfMTAb81kz3dMZZ8GZlCkYrgUWu0lr2TEx2Il6YuZ8sCFmzfzN3/x9SX+7f5N0TLq6V28AbNQ69uRUKQ5tA7ANc0EZnIPFl8m23XLJ6V5kGa86AOw3b97YDGVfAxjmvPqwjQm5/DCUfY3ggE0IIZcHGuZrANeYCSHk8kDDfA3gjJkQQi4PNMzXAM6YCSHk8nB+hjkg9xUt+0XS4b6cIIU6DDhjJsuE6LtJEofXiaDE4sUQkKMkF875z5hrvqxXpyZebM+b9GzhjJlcKRwnP3HcSHPMWV078dx0zvSpr7W0hJ2A6UF1oVrGSrpZ6nuJuMBQtv8KO08RJTirljxJc1e8Us2URbvlxow8N0oK0f0sqsHiBdK9RnYF0r3ry6/WU9MMCYyHBN+rkhZpNSzyHSzvrgnRsd13u8pC9vGyj5wxkyuF8w70xDdPpTnmrK59Ga91geTXe9nfwZ023Yt4C9sCuEDD7OoNO4Li4y6qqw30HWFt25FgVELdhw2Un1YxsR0RbleIfdxFddXCpu2LgMMRURfG39X8hP/y+9AbevxXzdm2KzQuiWsDkAXS3euv5AaouPmVjp8eVLFS7/svgHclJbOErQ4bKL/aDJRJvMtXvEM2Ssg+DGfM5CIxd+Wlq7B+kPx9onPrOeLqrEt1gN3zgzOzeKdbHNuGKTv3sTO48LWrB1OlDFEz3OlB1ZEedJzpQPrR5wfKEJh8RM6kI48JLx9EzlKVc6X6ib2u+r7v4NimtOuuKV4Rmiuj6Unbht9jHZmu/N2ojdyuqbR57HLoqK2cq+TnDGboi+T8DbOnx+lqEYt3u05f9NCH9AL4tQoMAP2nA6kCfYFyIfTtfF+ooyd5RnlNKI0eWVPxInUpndB1PITKkaoyg5CCjiu+7V7DE9x28iuOd50O6XVuaw/Ei9IlbeHZ6Oh8UAqVKRpXpakXEmjnjJlcGKM2yju+6tHmq4ai5DM9qAqRCOf7YUtyhkdtrNSL3rmTe72wMtG4i4fSMdEzJEda9Lbj9LvXUQbnJsobwCPbhm0PYbhOfwr69RUM7vqTgmYpHI3Lr/ccZ9+pC3mGuFOeeb6rtlQ0k9Sj0hwTWwo09t3yT9Cpue0Ql6Ykw+nW2U7ZM9qhdsUeuoUtcRx0dE789CZdWfxBRAT9dB1hC9no75TxEI+8CU+//nD2+vioreTnLGboi+TC1phFY/jyatYrIfDli1snSHFFoHhDJREX7MAAABQ/SURBVPnMEiotAIc9DMa+waxEdVg5TJ3x+irL9T5ZzpjJRWE+a/rOK4DStqwYJO5H19kFgNIHHeiO8xo8N7/eizE0TQwS15sH6B0aGMpSoh90oB/2MPAGdN/pd8eM/quU6sCtoZcvMWE4gpVlI1WG85vPZrv1aY4JI5c/j/qGoUwiQmk6deq/R7qEB13dOS6iXbfDE4ZIRgM0a7LSVjgvkL9fq8BAP119K+293FxYKNubyTq6mNpNRzJN8sxSeTa3NeCgivKOdK6pioWV7hoA+mhsPIwJY0OEa0pNwA2l2/NLjrlC3csCZ8zkYhAiCPEIB7YpywCuuhq8s851CEgJRoY1x1ZY19eNiMXgjkeZmZHu/OfnUX8yQee4nBCKTXNM+nzoSWmOLT8s7/ys1N1ann9iEim84eUlipRj7doWbLPohdCXfUPdBa4xCw/LnTW7oelkb6+PxkZXCUlHiYubzwJzXTeMfNhHXwoPJzIanGLG7K5tS4Lro8doHLqhbyHkDc/TM/G4nkUSPKozxm/+4oyZXAxuP49D9OOQM25vSfdICpxNUvaJ0McNDbpRA/vYwun1pM4bd7kqIryb6ZgUKM5MRJoFzQ/Lyz/bJZxmYuIu2cXn5RSsbXkTt2ZpuR8Pu9AXjITWid0NUrHPOeswbvew4npnrSF663nk1x+hU/M97zKMwGzX3wGOWhWVqJBKoY5HzgYrEQ4HjFbEcWnLtt7DsCXWn9zwut71dT3dkJ7I8x40s5PgFYZSF+EdZVd2PJwxk4tCu6l7UTEAMHflJSJhfJv70TO74LnTg2ryTKegoQhdkT70P5ecZADmxw3048aCMyVjmDsSUW9Rk5LoY4Sh9CY94y4ehiYC/qQHmKK7HyVhKaUZUafB4+R2NXdlQ5gQei5o0A8b0l6CuLycgoIGPSCRuYwsXLrqLBi2YAO63TmZMwHTsAHYevf0QmiXjcvSxmR+lrmNxb3rSgZO7E5NlQ6Uv0dArlD5zvt8aBvuWODc1+6Pf39Lx3j/x0kiBo91JBRbw6jSKMeGjwunFVkXzvWTzw/+PUvSMeGYk46te98Z9tA0AvXpfBZZ10n1hpj6F+3sfSeV0ZenNOyh+39sXtVzbSXf/nUipSilY4OSmMsqXYnLJvto7uZQ3tHROUm5iSDyfBE2u+rPBZLrB2UfCbn8XDPZRxODHSB2N/YVh2vMhBByebg0M2ZCSDycMRNy+blmM+brDWfMhBByefglAN4OaBf+f7X+dz9blvzw/8X/Twi5OjCUTcgVgKFsQi4/DGUTQgghSwgNMyGEELJE0DATQsiCMXdnv5FPOjogUUmE1OTZ10mk/OXpUkT3fk5R2cok9etAw0wIIWeA/8rMa2h4x11Uc1HylVcPoQ292LJeWcPsy0Behc5xDW/sGczriRJyHsytTkUuHfn1XowO+PwsxDBHhwMipvRpjWRWb2vUVtMed7G344pxL7bCFs64i2pusTJk5m6M/N1lZVm974h8ZQthXhyKfrlSBhPtXBumq01+v4tp5GcI6JerfW56UEX1YKpcR+3jJtrSucE6E+NF1LniPDmt4PijlC1lmFK5Xpq0Rm3kdk3lvMh7btSG0HbvO5KDCf3YGQuiJhRqfSQ56TH1GhpnZGc/Q1s4dRAe8/12mR5UHflOR2THOy7pOq46ntPeL+LKFz5WTmdmvwvU8SDuCkHHP2hj5H44ai84HH6OM+az8CqSWX71EACeZB3f3301KG270nfLy/SgivJxBxNHqm/YaqKsDJJNlPc18b2nhx74bNRGrnTkOL/Rkov9+goGd8X3k66OZskd2Kbo3i/jqDvxtc93yooTv1Iv+pKCWWT6Rm2lbDP13J1z5OtN7vXw2DEwezfdPArJw4ey8d0p4yEeeXns1x96ecyv94SS3NqWo+0+a6LQR2MfeOReqya1STB/XUhKUDIJ9eqo57ltYO6W0Wxtol5Ibou4ukkiv96DfdLxZSGf1JGf2eYP0YDbbhNoTxuxUo/m7gqsDTs6v5jR7zYagJuHEw29GLnd/J0q9J2Br2xmAXqtiYF7nbGFozN+xfOpFTFC6iDiU1X1I0rNRFYRiVEB8c5xlE9iVURkpZI4ZRLbUXdRPhP59FRRYtVqIs496dh6lJLMScfWnfzYXnkjFHVaQztSrUZWgfHO1+2OGa4vlbDai1L/MeUK1WVr6KnguMep+Qqq9gTaUil7jEKQ1GZeS0T0o7j+4KryqMpFwTZIUd6sZYvrp1F9LnNdzk/6+zhCjUfpr1HqSOHPhq1wncr3R0g1Sb5XQveHfHyUWpB8j4bvJaXfmEbmOo0qS9xxSttGKC1FqxYlK05Ffi/dH+H8xaSXWK+27dVjTffvvRnnxNVN+F4NlD+YbtY2jxtbwzlRxu+5+l3CWCryNLE7NaG+FXkdpS+oZYlXKYsGjrrUBa4xN1HecD3EIYxD4Y1Ge1vpCZ0fmL2U7hqA5AlhPEDvUEf1Tl6EJGbMAlJRqKAa8K5Q0309VExhHQPG3YDvPO7ioTxTULxr2aP260ulhC3bxrAF6I5XuLWG7OXaKXszhd56PoXHLrelOgOLnXWsVWBAqiNMMXjah36vorR3Yn/YKcd4xibaqw0UTbm8D6NnXJnKltBPvbKfti7PGgvWoa9dnsvlnLBjFkT/DZK4rlrQUHT/Hlt+mNP5WfFmLiJ/KkLfNxVrW7DNohM2TrNEFF0W9zs5ZFreSUpHaB4vjILm6LOL/Hm67rmcExqPILFeAVfHvX/Yh959IMaWxHOS6iYjmds8CTkkvoJG0rmhfpeWEiot4MiaivzdrqBU0ICnA0ydsSo0fi+QxRnmwwZW5PWDWRUGHZ19d5AVldB/ZcUfvrblG5rTEDAI0xc99FubqBcA81kTeveRLytZqGOzJQmMp8YRCnfOm77oARubMI4tMQCPB+gdxoVBZGMlk7G+JDKXq9bBo/V84PwHnpOQX9+EcdjDwDN0ct5U58cL6Ykzod128y3K4Iu3izrZXM/ghrWGXn/I36lCd0XoRwM0ax08cOu3UMdmq4/ei7D5y1a2bPUOYI66PGuEATFM35kIO4GziDaU1quUw15BCzk0tudERxm4jAbCGSvShcDjjb65u4LG7WG803WWeEZE5E/3QsDuT4T8bWK9AoCJdqkJo2WgX38snNjEczI4RLPI3OZxBEPiE3TSnus5O+ko3TXQfzrAdDTA0U1NTLjQw2BswYodvxfD4gxzTVrXyVphOM9djCU86LqzV9nzmWMWkHSVuwbgGGLrVRGVNQ0axAAsnIFKeCAs1NE76eColLCZJHO+TluuDB67i3IDxM86Sh90vHWc2DpJi+QZT62jkKMYPdvJXrbT9dM56nLhOE7j/ulm6dpN3R/cAWfDZUQUKIqChiKa2Ivs3xH5Gz1Gw41qOYO479B18TBmnVD0Q2evScJzscGyTA+qaI9EW8mPPA0SZ8yz6AunMeF7P3IyRXe/CTj3Q6iu40isV2B6sIdma4it7S0/qjXjnOi6AfJaEZAcSnM3qh8f+WXO1OZiLTi6VcXsuqg5zu54gF7a2XYwD0l9BxCTuMMeHj87cq6Xh3a7D+vjAZqnGatScGUfl0rCW9hXZq6nnAUEcRp1MDYxONagIY/KPaD3YgrrVUIYxNkMNncYPcRpy5XBY3eRQkaJsw4v5L/Y0FBeK0Y4irY0cz9F2U6Xs3O+XjSlbRvD24EIV8Zdpfn1HibdIz806SwdpItolbBlD1FUHBTfEQ3lr3SEzolbR3nU9zvQd8rOdS1smoaXsrKDeLWBojk7EpBf7wlD5YZYn1bxYE1cB14e94DWvE6ZMxkoJe3KNjDcsJwyr4iNUM5MN1TXsY+BJtTruIuHdaDzgUiztO1umkpui+i6AbC2hWGr7y0Z7N0cqhMxJ0rVWHX71qw2F8tcovwPgf0hDERRwpZp+EsxqxaKqSMZJWydSG26ATwyo6/iHl9p9dHcKXqz49JdA82d5pmGsV1SL0zHMd/mL3VhX1kkj1r4T7n5yz9fXeQP5Nju1MKbw8SmnGA6gYV873s3jfgNCsMWbL1l2LqyGcgQG4r8o2I2hsifz6iviOtmKZdCaFNLxPmhfCK0+UHe1OFvHnGODeUtvGFMIaI/hMsv1VFS+QLMLlu2fpq8QWjW9eZnEffxVSbtBi9CLhJc/OavBELe1qLJo3JPeL+y5zNrFpBffyQeY3C8WmsjzqsTlO4a6O80UXSvsVaBsdOMD4Moz4WWcSSvC2dAhIjL3uaX081u0njsOjr3orz92bMOsTYML2wXSdb+EFgSiH6ONm3Zkq+TtZ+e6npkTkwMdjLuXyDkArm+so+jNnIlYLjsLyBZeky0c3vQTuYNx5po58pABkeBhKHsIyGXH1f28a2LzshFYT5rAq0hjfJFMxqgCQNDGmVCCAGA62qYxQ5Lw6RZvmjoIBFCiMr1DWUTcoVgKJuQy48byl7OzV+EEELINYWGmRBCCFkiaJgJISQtZyDxt+xcFinTqwQNMyGEnDdnoMNOrg40zEuJeL80b9rzRlKtCc6Kxl1U+SIQsiiow04SoGGOIos3S883mkC9TA+qCw+Hmbsxb/Ryru29WStwXfc88eMLG0wP9jzVmuHthiQIP0V3o4fqCV9GQwSW/E7uxP4V58yZaCuiGrKUoXzuFN37VXTH8vfBNAPnyk7lqI3crunlyX03tfJO8aC4h/wGwvtdZNBSIwuChjmKLN4sPd9ozrJeHMM7uBv1StSAFrMtXtYvD0jlY1/gYtIFGqtioJOFPbSbuqPFKoQ4evfmez0quYIcNrCHR57Wt75TVhxQuX/J2uRJmLuSlKGn8+06gn00VgeoeKp9cprizXmKDCIaWJGvmUkT3JGGdO+fDQuNU6lqkXk5/zd1p2IoxB4c8QpPDMARKIDz47+YfmJ3arrdOXGEEjxhBEmwIkYYI/ydKl4w6eq23p0IgQLneF8gIcuxwWuGhTT8siSfp76QXy5jWCQiKT/i8whRhZAQiKjX0LmtYUxbufUSyBsiRC2i6iFJtCQhT7HCEbWOPYmqVykNWaBi2HKOi0hvGVne+/iKEdEf/Psgon/FCurI40bwvKTvAqJBUf1TFvWJya86fkjXSywfOWuw1CIWHk2U9zXhfT6pIx+cDZ10gPpDKQwT4VnmVmBtuN6rpHk67qLqph3yGsP06ysY3HWP1dEsxa83xh9rol06QufE/w6toSRkHsOo7UjfyeX2JSHNXb+M7gxRDu9mybuHJ8no/D+2gJru6+A62sK+CEiwrVzyqD+RyurJLwYFz8P5noepdQTc1iDLFQjtWAsWLFiHutDn9RD6vkfWFPn1TRiO+Ef5uIMHa0577ddB+QMSh6/RLbSCm7J4ymqcrrCMkAN1IzTiNbXFQD+VjtaK3t9T6yh8gKKHHiRZEzwyPXLuLLlh1tVBcTRAs9YReqCAp+7Te+GbU8PTX3UUpFpDL5xaums4A7Q4tycZEH/wjkFKRygiHcULn8cdO7ZwJN1wea0IHFszH70wnzWhy0pThTo2W75YfGlbDhn7hiZN3kvbNuxIIQ9HvNy5xvRFD9jYhOHmV9GyBkJtNQvnfF/xx9GsdQ3/2hbsOULhiTrTYwvJw04JW65G8pM6rF1H4Wvsr7lxLwEJ4vc5ce95YWDvZ9behICxLDWlcSwZ2Uh7SHroEWckaoJHpkfOnSU3zCpT6wg4VAXey6dY/1A2QJSas09wKWhI3X3lYwsaipJRNJ81Q7O7iFzCOg5/6nvpgLr5YwWNw8XkvXTX8BwH61URlTUNGnoYjIWh7idJNc5ibKGPpiJ/uFKfPbeYhVovEjUNWkLZi1qgFUZtlDFEb93yoxwnHRyliTaQq81hAw+dPQsYd7G340aOHGd2P+tzzhasQ8Nb883kkBY06IeBjYr7zUQZVe2mjn79cXQ/DqY3ap9qjCXzcakMc14rAjV/Y4X705tHZzWwAcI2k5SVF8TYwhEc/d5cDuUdA8NZYWznZg/ie+nBkPAEndqC8rtWgXHYw2BsYnCsQUMelXtA78UU1qu+omWdmYLmbHAJzC5m1kcKAlEINbzdD0Q6IsLb4y6qJUht40Q5sjhk5OrSGmLz1YoXqkZ34kfltsWO/pW4XdKRlLBlIqDRHdgpHUdIe3wFjdvJy2OJmuCFOnqm4Yfjn1XEMhQ5Vy6VYQ57h/MztY7ELMr533yWYcY8L2MLfWedNV2ISxDycBUvXaxreTO+8QC9pBlzgOlBNWHgKKHS6qP38QBHjmHLa0X0Xz3GYEcOY6dENpgFDUU0sXcQM2Q5j2xkDR3n71QDfcTE47rrRJRQaakzmunBHpq1KiqeYZ6iu9FAUQklSksRUp8h15C1LdjbJWcJKHpiIH9nh/ZceEdhywkfC0dQ2kNi27DNorPnRezRUGbQa1tqms4TEJHObfBYh/x6Lz7c7iwjuWnl13uLcZhJai6ZYQ56h/Ov++XXH4nHCpw09mAkbJhYEGtbGKKsPquY4vV+IQ/X2QAnbtYStmQPd9VCsbW4LJfuGujvNFF0Z8drFRg7TTQzhrHz65swnGUI8ehSCVv2EEVlE4r/nGUi3nPKYtOKW/b2CGGP33mUxJ/RTJR2X6kXMZQGrunBQzRuD6WBsIQHXYgox2oDxQ1uBCMLZmyhH9jsxU1Y1xvKPp4j04MqVp5WMZEMgbmbw97NyXzh+NPnCN37Ykc3n8O+3FD28XIzPaiqeyxqHWWcINcDV/bxrYvOyHXCetUHbm9KN5uzsevmBWVo9FisR9EoE3Kh5Nd7sNcvOhdkWeCM+VwRM1R517TevajZMrlKcMZMyOXHnTHTMBNyBaBhJuTy4xrmy7X5ixBCCLni0DATQgghS8RbgJg+E0IuN7yPCbkavPXmzZuLzgMhhBBCHBjKJoQQQpaI/x8BwQ9MBeP6SgAAAABJRU5ErkJggg==;" parent="1" vertex="1">
                    <mxGeometry x="20" y="90" width="486" height="656" as="geometry"/>
                </mxCell>
                <mxCell id="bf-2ipx9rJfC0GrVDlnR-5" value="&lt;font style=&quot;font-size: 22px;&quot;&gt;Current week: 0&lt;br&gt;Decision form: 1&lt;br&gt;&lt;/font&gt;" style="rounded=0;whiteSpace=wrap;html=1;" parent="1" vertex="1">
                    <mxGeometry x="263" width="263" height="90" as="geometry"/>
                </mxCell>
                <mxCell id="bf-2ipx9rJfC0GrVDlnR-6" value="&lt;font style=&quot;&quot;&gt;&lt;b style=&quot;&quot;&gt;&lt;font style=&quot;font-size: 25px;&quot;&gt;Bid:&lt;/font&gt;&lt;/b&gt;&lt;br&gt;&lt;span style=&quot;font-size: 22px;&quot;&gt;Expected cost: 1000000 £&lt;/span&gt;&lt;br&gt;&lt;span style=&quot;font-size: 22px;&quot;&gt;Expected time: 8&lt;/span&gt;&lt;br&gt;&lt;/font&gt;" style="rounded=0;whiteSpace=wrap;html=1;" parent="1" vertex="1">
                    <mxGeometry width="263" height="90" as="geometry"/>
                </mxCell>
                <mxCell id="vqc672nhbnp2Wsuudc89-1" value="&lt;font style=&quot;font-size: 21px;&quot;&gt;Current money: 0 £&lt;br&gt;Current money spent: 0 £&lt;br&gt;&lt;/font&gt;" style="rounded=0;whiteSpace=wrap;html=1;" parent="1" vertex="1">
                    <mxGeometry x="260" y="640" width="250" height="110" as="geometry"/>
                </mxCell>
                <mxCell id="bf-2ipx9rJfC0GrVDlnR-4" value="&lt;font style=&quot;font-size: 22px;&quot;&gt;NEXT WEEK&lt;/font&gt;" style="rounded=0;whiteSpace=wrap;html=1;" parent="1" vertex="1">
                    <mxGeometry x="88" y="746" width="350" height="60" as="geometry"/>
                </mxCell>
            </root>
        </mxGraphModel>
    </diagram>
</mxfile>